solid OpenSCAD_Model
  facet normal -1 0 0
    outer loop
      vertex 0 0 0
      vertex 0 40 80
      vertex 0 40 0
    endloop
  endfacet
  facet normal -1 -0 0
    outer loop
      vertex 0 40 80
      vertex 0 0 0
      vertex 0 0 80
    endloop
  endfacet
  facet normal 0 0 1
    outer loop
      vertex 4 40 80
      vertex 0 40 80
      vertex 4 12 80
    endloop
  endfacet
  facet normal 0 0 1
    outer loop
      vertex 8 12 80
      vertex 12 12 80
      vertex 12 40 80
    endloop
  endfacet
  facet normal 0 0 1
    outer loop
      vertex 12 12 80
      vertex 8 12 80
      vertex 12 8 80
    endloop
  endfacet
  facet normal 0 0 1
    outer loop
      vertex 8 12 80
      vertex 12 40 80
      vertex 8 40 80
    endloop
  endfacet
  facet normal -0 0 1
    outer loop
      vertex 12 12 80
      vertex 40 8 80
      vertex 40 12 80
    endloop
  endfacet
  facet normal 0 0 1
    outer loop
      vertex 40 8 80
      vertex 12 12 80
      vertex 12 8 80
    endloop
  endfacet
  facet normal -0 0 1
    outer loop
      vertex 12 4 80
      vertex 40 0 80
      vertex 40 4 80
    endloop
  endfacet
  facet normal 0 0 1
    outer loop
      vertex 12 8 80
      vertex 8 12 80
      vertex 12 4 80
    endloop
  endfacet
  facet normal -0 0 1
    outer loop
      vertex 4 12 80
      vertex 12 4 80
      vertex 8 12 80
    endloop
  endfacet
  facet normal 0 0 1
    outer loop
      vertex 12 4 80
      vertex 0 0 80
      vertex 40 0 80
    endloop
  endfacet
  facet normal 0 0 1
    outer loop
      vertex 4 12 80
      vertex 0 0 80
      vertex 12 4 80
    endloop
  endfacet
  facet normal 0 0 1
    outer loop
      vertex 0 0 80
      vertex 4 12 80
      vertex 0 40 80
    endloop
  endfacet
  facet normal 1 0 0
    outer loop
      vertex 4 12 4
      vertex 4 40 80
      vertex 4 12 80
    endloop
  endfacet
  facet normal 1 0 0
    outer loop
      vertex 4 40 80
      vertex 4 12 4
      vertex 4 40 0
    endloop
  endfacet
  facet normal 1 0 0
    outer loop
      vertex 4 4 0
      vertex 4 12 4
      vertex 4 4 4
    endloop
  endfacet
  facet normal 1 0 0
    outer loop
      vertex 4 12 4
      vertex 4 4 0
      vertex 4 40 0
    endloop
  endfacet
  facet normal 0 0 -1
    outer loop
      vertex 40 0 0
      vertex 4 4 0
      vertex 40 4 0
    endloop
  endfacet
  facet normal 0 0 -1
    outer loop
      vertex 0 0 0
      vertex 4 4 0
      vertex 40 0 0
    endloop
  endfacet
  facet normal 0 0 -1
    outer loop
      vertex 0 40 0
      vertex 4 4 0
      vertex 0 0 0
    endloop
  endfacet
  facet normal 0 0 -1
    outer loop
      vertex 4 4 0
      vertex 0 40 0
      vertex 4 40 0
    endloop
  endfacet
  facet normal 0 -1 0
    outer loop
      vertex 0 0 0
      vertex 40 0 80
      vertex 0 0 80
    endloop
  endfacet
  facet normal 0 -1 -0
    outer loop
      vertex 40 0 80
      vertex 0 0 0
      vertex 40 0 0
    endloop
  endfacet
  facet normal 0 1 -0
    outer loop
      vertex 4 40 0
      vertex 0 40 80
      vertex 4 40 80
    endloop
  endfacet
  facet normal 0 1 0
    outer loop
      vertex 0 40 80
      vertex 4 40 0
      vertex 0 40 0
    endloop
  endfacet
  facet normal 1 -0 0
    outer loop
      vertex 40 0 80
      vertex 40 4 0
      vertex 40 4 80
    endloop
  endfacet
  facet normal 1 0 0
    outer loop
      vertex 40 4 0
      vertex 40 0 80
      vertex 40 0 0
    endloop
  endfacet
  facet normal 0 1 0
    outer loop
      vertex 40 4 80
      vertex 12 4 4
      vertex 12 4 80
    endloop
  endfacet
  facet normal 0 1 -0
    outer loop
      vertex 40 4 0
      vertex 12 4 4
      vertex 40 4 80
    endloop
  endfacet
  facet normal 0 1 0
    outer loop
      vertex 4 4 0
      vertex 12 4 4
      vertex 40 4 0
    endloop
  endfacet
  facet normal 0 1 0
    outer loop
      vertex 12 4 4
      vertex 4 4 0
      vertex 4 4 4
    endloop
  endfacet
  facet normal 1 -0 0
    outer loop
      vertex 12 12 80
      vertex 12 40 4
      vertex 12 40 80
    endloop
  endfacet
  facet normal 1 0 0
    outer loop
      vertex 12 40 4
      vertex 12 12 80
      vertex 12 12 4
    endloop
  endfacet
  facet normal 1 -0 0
    outer loop
      vertex 12 4 80
      vertex 12 8 4
      vertex 12 8 80
    endloop
  endfacet
  facet normal 1 0 0
    outer loop
      vertex 12 8 4
      vertex 12 4 80
      vertex 12 4 4
    endloop
  endfacet
  facet normal 0 1 -0
    outer loop
      vertex 40 12 4
      vertex 12 12 80
      vertex 40 12 80
    endloop
  endfacet
  facet normal 0 1 0
    outer loop
      vertex 12 12 80
      vertex 40 12 4
      vertex 12 12 4
    endloop
  endfacet
  facet normal 0 1 -0
    outer loop
      vertex 8 12 4
      vertex 4 12 80
      vertex 8 12 80
    endloop
  endfacet
  facet normal 0 1 0
    outer loop
      vertex 4 12 80
      vertex 8 12 4
      vertex 4 12 4
    endloop
  endfacet
  facet normal 0 0 -1
    outer loop
      vertex 4 4 4
      vertex 12 8 4
      vertex 12 4 4
    endloop
  endfacet
  facet normal 0 0 -1
    outer loop
      vertex 12 8 4
      vertex 8 12 4
      vertex 12 12 4
    endloop
  endfacet
  facet normal 0 0 -1
    outer loop
      vertex 12 12 4
      vertex 8 12 4
      vertex 12 40 4
    endloop
  endfacet
  facet normal -0 0 -1
    outer loop
      vertex 12 8 4
      vertex 4 4 4
      vertex 8 12 4
    endloop
  endfacet
  facet normal -0 0 -1
    outer loop
      vertex 8 12 4
      vertex 4 4 4
      vertex 4 12 4
    endloop
  endfacet
  facet normal 0 0 -1
    outer loop
      vertex 12 8 4
      vertex 40 12 4
      vertex 40 8 4
    endloop
  endfacet
  facet normal -0 0 -1
    outer loop
      vertex 40 12 4
      vertex 12 8 4
      vertex 12 12 4
    endloop
  endfacet
  facet normal -0 0 -1
    outer loop
      vertex 12 40 4
      vertex 8 12 4
      vertex 8 40 4
    endloop
  endfacet
  facet normal -1 0 0
    outer loop
      vertex 8 12 4
      vertex 8 40 80
      vertex 8 40 4
    endloop
  endfacet
  facet normal -1 -0 0
    outer loop
      vertex 8 40 80
      vertex 8 12 4
      vertex 8 12 80
    endloop
  endfacet
  facet normal 0 1 -0
    outer loop
      vertex 12 40 4
      vertex 8 40 80
      vertex 12 40 80
    endloop
  endfacet
  facet normal 0 1 0
    outer loop
      vertex 8 40 80
      vertex 12 40 4
      vertex 8 40 4
    endloop
  endfacet
  facet normal 1 -0 0
    outer loop
      vertex 40 8 80
      vertex 40 12 4
      vertex 40 12 80
    endloop
  endfacet
  facet normal 1 0 0
    outer loop
      vertex 40 12 4
      vertex 40 8 80
      vertex 40 8 4
    endloop
  endfacet
  facet normal 0 -1 0
    outer loop
      vertex 12 8 4
      vertex 40 8 80
      vertex 12 8 80
    endloop
  endfacet
  facet normal 0 -1 -0
    outer loop
      vertex 40 8 80
      vertex 12 8 4
      vertex 40 8 4
    endloop
  endfacet
endsolid OpenSCAD_Model
