solid OpenSCAD_Model
  facet normal -1 0 0
    outer loop
      vertex 0 0 -2
      vertex 0 22 12
      vertex 0 22 -2
    endloop
  endfacet
  facet normal -1 -0 0
    outer loop
      vertex 0 22 12
      vertex 0 0 -2
      vertex 0 0 12
    endloop
  endfacet
  facet normal 0 0 1
    outer loop
      vertex 2 22 12
      vertex 0 22 12
      vertex 2 6 12
    endloop
  endfacet
  facet normal 0 0 1
    outer loop
      vertex 4 6 12
      vertex 6 6 12
      vertex 6 22 12
    endloop
  endfacet
  facet normal 0 0 1
    outer loop
      vertex 6 6 12
      vertex 4 6 12
      vertex 6 4 12
    endloop
  endfacet
  facet normal 0 0 1
    outer loop
      vertex 4 6 12
      vertex 6 22 12
      vertex 4 22 12
    endloop
  endfacet
  facet normal -0 0 1
    outer loop
      vertex 6 6 12
      vertex 20 4 12
      vertex 20 6 12
    endloop
  endfacet
  facet normal 0 0 1
    outer loop
      vertex 20 4 12
      vertex 6 6 12
      vertex 6 4 12
    endloop
  endfacet
  facet normal -0 0 1
    outer loop
      vertex 6 2 12
      vertex 20 0 12
      vertex 20 2 12
    endloop
  endfacet
  facet normal 0 0 1
    outer loop
      vertex 6 4 12
      vertex 4 6 12
      vertex 6 2 12
    endloop
  endfacet
  facet normal -0 0 1
    outer loop
      vertex 2 6 12
      vertex 6 2 12
      vertex 4 6 12
    endloop
  endfacet
  facet normal 0 0 1
    outer loop
      vertex 6 2 12
      vertex 0 0 12
      vertex 20 0 12
    endloop
  endfacet
  facet normal 0 0 1
    outer loop
      vertex 2 6 12
      vertex 0 0 12
      vertex 6 2 12
    endloop
  endfacet
  facet normal 0 0 1
    outer loop
      vertex 0 0 12
      vertex 2 6 12
      vertex 0 22 12
    endloop
  endfacet
  facet normal 1 0 0
    outer loop
      vertex 2 6 2
      vertex 2 22 12
      vertex 2 6 12
    endloop
  endfacet
  facet normal 1 0 0
    outer loop
      vertex 2 22 12
      vertex 2 6 2
      vertex 2 22 0
    endloop
  endfacet
  facet normal 1 0 0
    outer loop
      vertex 2 2 0
      vertex 2 6 2
      vertex 2 2 2
    endloop
  endfacet
  facet normal 1 0 0
    outer loop
      vertex 2 6 2
      vertex 2 2 0
      vertex 2 22 0
    endloop
  endfacet
  facet normal 0 1 0
    outer loop
      vertex 20 22 0
      vertex 20 22 -2
      vertex 2 22 0
    endloop
  endfacet
  facet normal 0 1 -0
    outer loop
      vertex 2 22 0
      vertex 0 22 12
      vertex 2 22 12
    endloop
  endfacet
  facet normal 0 1 0
    outer loop
      vertex 2 22 0
      vertex 0 22 -2
      vertex 0 22 12
    endloop
  endfacet
  facet normal 0 1 0
    outer loop
      vertex 0 22 -2
      vertex 2 22 0
      vertex 20 22 -2
    endloop
  endfacet
  facet normal -0 0 1
    outer loop
      vertex 2 22 0
      vertex 20 2 0
      vertex 20 22 0
    endloop
  endfacet
  facet normal 0 0 1
    outer loop
      vertex 20 2 0
      vertex 2 22 0
      vertex 2 2 0
    endloop
  endfacet
  facet normal 0 -1 0
    outer loop
      vertex 0 0 -2
      vertex 20 0 12
      vertex 0 0 12
    endloop
  endfacet
  facet normal 0 -1 -0
    outer loop
      vertex 20 0 12
      vertex 0 0 -2
      vertex 20 0 -2
    endloop
  endfacet
  facet normal -1 0 0
    outer loop
      vertex 4 6 2
      vertex 4 22 12
      vertex 4 22 2
    endloop
  endfacet
  facet normal -1 -0 0
    outer loop
      vertex 4 22 12
      vertex 4 6 2
      vertex 4 6 12
    endloop
  endfacet
  facet normal 1 -0 0
    outer loop
      vertex 6 2 12
      vertex 6 4 2
      vertex 6 4 12
    endloop
  endfacet
  facet normal 1 0 0
    outer loop
      vertex 6 4 2
      vertex 6 2 12
      vertex 6 2 2
    endloop
  endfacet
  facet normal 1 -0 0
    outer loop
      vertex 6 6 12
      vertex 6 22 2
      vertex 6 22 12
    endloop
  endfacet
  facet normal 1 0 0
    outer loop
      vertex 6 22 2
      vertex 6 6 12
      vertex 6 6 2
    endloop
  endfacet
  facet normal 0 0 -1
    outer loop
      vertex 2 2 2
      vertex 6 4 2
      vertex 6 2 2
    endloop
  endfacet
  facet normal 0 0 -1
    outer loop
      vertex 6 4 2
      vertex 4 6 2
      vertex 6 6 2
    endloop
  endfacet
  facet normal 0 0 -1
    outer loop
      vertex 6 6 2
      vertex 4 6 2
      vertex 6 22 2
    endloop
  endfacet
  facet normal -0 0 -1
    outer loop
      vertex 6 4 2
      vertex 2 2 2
      vertex 4 6 2
    endloop
  endfacet
  facet normal -0 0 -1
    outer loop
      vertex 4 6 2
      vertex 2 2 2
      vertex 2 6 2
    endloop
  endfacet
  facet normal 0 0 -1
    outer loop
      vertex 6 4 2
      vertex 20 6 2
      vertex 20 4 2
    endloop
  endfacet
  facet normal -0 0 -1
    outer loop
      vertex 20 6 2
      vertex 6 4 2
      vertex 6 6 2
    endloop
  endfacet
  facet normal -0 0 -1
    outer loop
      vertex 6 22 2
      vertex 4 6 2
      vertex 4 22 2
    endloop
  endfacet
  facet normal 0 1 0
    outer loop
      vertex 20 2 12
      vertex 6 2 2
      vertex 6 2 12
    endloop
  endfacet
  facet normal 0 1 -0
    outer loop
      vertex 20 2 0
      vertex 6 2 2
      vertex 20 2 12
    endloop
  endfacet
  facet normal 0 1 0
    outer loop
      vertex 2 2 0
      vertex 6 2 2
      vertex 20 2 0
    endloop
  endfacet
  facet normal 0 1 0
    outer loop
      vertex 6 2 2
      vertex 2 2 0
      vertex 2 2 2
    endloop
  endfacet
  facet normal 0 1 -0
    outer loop
      vertex 6 22 2
      vertex 4 22 12
      vertex 6 22 12
    endloop
  endfacet
  facet normal 0 1 0
    outer loop
      vertex 4 22 12
      vertex 6 22 2
      vertex 4 22 2
    endloop
  endfacet
  facet normal 1 0 0
    outer loop
      vertex 20 2 12
      vertex 20 0 12
      vertex 20 2 0
    endloop
  endfacet
  facet normal 1 -0 0
    outer loop
      vertex 20 2 0
      vertex 20 22 -2
      vertex 20 22 0
    endloop
  endfacet
  facet normal 1 0 0
    outer loop
      vertex 20 2 0
      vertex 20 0 -2
      vertex 20 22 -2
    endloop
  endfacet
  facet normal 1 0 0
    outer loop
      vertex 20 0 -2
      vertex 20 2 0
      vertex 20 0 12
    endloop
  endfacet
  facet normal 1 -0 0
    outer loop
      vertex 20 4 12
      vertex 20 6 2
      vertex 20 6 12
    endloop
  endfacet
  facet normal 1 0 0
    outer loop
      vertex 20 6 2
      vertex 20 4 12
      vertex 20 4 2
    endloop
  endfacet
  facet normal 0 -1 0
    outer loop
      vertex 6 4 2
      vertex 20 4 12
      vertex 6 4 12
    endloop
  endfacet
  facet normal 0 -1 -0
    outer loop
      vertex 20 4 12
      vertex 6 4 2
      vertex 20 4 2
    endloop
  endfacet
  facet normal 0 1 -0
    outer loop
      vertex 20 6 2
      vertex 6 6 12
      vertex 20 6 12
    endloop
  endfacet
  facet normal 0 1 0
    outer loop
      vertex 6 6 12
      vertex 20 6 2
      vertex 6 6 2
    endloop
  endfacet
  facet normal 0 1 -0
    outer loop
      vertex 4 6 2
      vertex 2 6 12
      vertex 4 6 12
    endloop
  endfacet
  facet normal 0 1 0
    outer loop
      vertex 2 6 12
      vertex 4 6 2
      vertex 2 6 2
    endloop
  endfacet
  facet normal 0 0 -1
    outer loop
      vertex 0 0 -2
      vertex 20 22 -2
      vertex 20 0 -2
    endloop
  endfacet
  facet normal -0 0 -1
    outer loop
      vertex 20 22 -2
      vertex 0 0 -2
      vertex 0 22 -2
    endloop
  endfacet
endsolid OpenSCAD_Model
