solid OpenSCAD_Model
  facet normal -1 0 0
    outer loop
      vertex 6.35 31.75 6.35
      vertex 6.35 57.15 31.75
      vertex 6.35 57.15 6.35
    endloop
  endfacet
  facet normal -1 -0 0
    outer loop
      vertex 6.35 57.15 31.75
      vertex 6.35 31.75 6.35
      vertex 6.35 31.75 31.75
    endloop
  endfacet
  facet normal -0 0 1
    outer loop
      vertex 6.35 57.15 31.75
      vertex 12.7 31.75 31.75
      vertex 12.7 57.15 31.75
    endloop
  endfacet
  facet normal 0 0 1
    outer loop
      vertex 12.7 31.75 31.75
      vertex 6.35 57.15 31.75
      vertex 6.35 31.75 31.75
    endloop
  endfacet
  facet normal -0 0 1
    outer loop
      vertex 25.4 19.05 31.75
      vertex 50.8 12.7 31.75
      vertex 50.8 19.05 31.75
    endloop
  endfacet
  facet normal 0 0 1
    outer loop
      vertex 50.8 12.7 31.75
      vertex 25.4 19.05 31.75
      vertex 25.4 12.7 31.75
    endloop
  endfacet
  facet normal 1 -0 0
    outer loop
      vertex 50.8 12.7 31.75
      vertex 50.8 19.05 6.35
      vertex 50.8 19.05 31.75
    endloop
  endfacet
  facet normal 1 0 0
    outer loop
      vertex 50.8 19.05 6.35
      vertex 50.8 12.7 31.75
      vertex 50.8 12.7 6.35
    endloop
  endfacet
  facet normal 0 1 -0
    outer loop
      vertex 50.8 19.05 6.35
      vertex 25.4 19.05 31.75
      vertex 50.8 19.05 31.75
    endloop
  endfacet
  facet normal 0 1 0
    outer loop
      vertex 25.4 19.05 31.75
      vertex 50.8 19.05 6.35
      vertex 25.4 19.05 6.35
    endloop
  endfacet
  facet normal 0 0 -1
    outer loop
      vertex 6.35 31.75 6.35
      vertex 12.7 57.15 6.35
      vertex 12.7 31.75 6.35
    endloop
  endfacet
  facet normal -0 0 -1
    outer loop
      vertex 12.7 57.15 6.35
      vertex 6.35 31.75 6.35
      vertex 6.35 57.15 6.35
    endloop
  endfacet
  facet normal 0 0 -1
    outer loop
      vertex 25.4 12.7 6.35
      vertex 50.8 19.05 6.35
      vertex 50.8 12.7 6.35
    endloop
  endfacet
  facet normal -0 0 -1
    outer loop
      vertex 50.8 19.05 6.35
      vertex 25.4 12.7 6.35
      vertex 25.4 19.05 6.35
    endloop
  endfacet
  facet normal 0 -1 0
    outer loop
      vertex 25.4 12.7 6.35
      vertex 50.8 12.7 31.75
      vertex 25.4 12.7 31.75
    endloop
  endfacet
  facet normal 0 -1 -0
    outer loop
      vertex 50.8 12.7 31.75
      vertex 25.4 12.7 6.35
      vertex 50.8 12.7 6.35
    endloop
  endfacet
  facet normal 1 -0 0
    outer loop
      vertex 12.7 31.75 31.75
      vertex 12.7 57.15 6.35
      vertex 12.7 57.15 31.75
    endloop
  endfacet
  facet normal 1 0 0
    outer loop
      vertex 12.7 57.15 6.35
      vertex 12.7 31.75 31.75
      vertex 12.7 31.75 6.35
    endloop
  endfacet
  facet normal 0 1 -0
    outer loop
      vertex 12.7 57.15 6.35
      vertex 6.35 57.15 31.75
      vertex 12.7 57.15 31.75
    endloop
  endfacet
  facet normal 0 1 0
    outer loop
      vertex 6.35 57.15 31.75
      vertex 12.7 57.15 6.35
      vertex 6.35 57.15 6.35
    endloop
  endfacet
  facet normal 1 0 0
    outer loop
      vertex 0 57.15 38.1
      vertex 0 31.75 31.75
      vertex 0 57.15 0
    endloop
  endfacet
  facet normal 1 -0 0
    outer loop
      vertex 0 6.721 38.1
      vertex 0 31.75 31.75
      vertex 0 57.15 38.1
    endloop
  endfacet
  facet normal 1 0 0
    outer loop
      vertex 0 31.75 31.75
      vertex 0 6.721 38.1
      vertex 0 6.721 31.75
    endloop
  endfacet
  facet normal 1 -0 0
    outer loop
      vertex 0 31.75 6.35
      vertex 0 57.15 0
      vertex 0 31.75 31.75
    endloop
  endfacet
  facet normal 1 0 0
    outer loop
      vertex 0 6.721 0
      vertex 0 31.75 6.35
      vertex 0 6.721 6.35
    endloop
  endfacet
  facet normal 1 0 0
    outer loop
      vertex 0 31.75 6.35
      vertex 0 6.721 0
      vertex 0 57.15 0
    endloop
  endfacet
  facet normal 0 0 1
    outer loop
      vertex 25.4 31.75 31.75
      vertex 15.175 18 31.75
      vertex 25.4 6.35 31.75
    endloop
  endfacet
  facet normal 0 0 1
    outer loop
      vertex 25.4 31.75 31.75
      vertex 14.5686 19.8662 31.75
      vertex 15.175 18 31.75
    endloop
  endfacet
  facet normal 0 0 1
    outer loop
      vertex 25.4 31.75 31.75
      vertex 12.9811 21.0196 31.75
      vertex 14.5686 19.8662 31.75
    endloop
  endfacet
  facet normal -0 0 1
    outer loop
      vertex 0 31.75 31.75
      vertex 12.9811 21.0196 31.75
      vertex 25.4 31.75 31.75
    endloop
  endfacet
  facet normal 0 0 1
    outer loop
      vertex 12.9811 21.0196 31.75
      vertex 0 31.75 31.75
      vertex 11.0189 21.0196 31.75
    endloop
  endfacet
  facet normal 0 0 1
    outer loop
      vertex 0 31.75 31.75
      vertex 8.825 18 31.75
      vertex 9.43137 19.8662 31.75
    endloop
  endfacet
  facet normal 0 0 1
    outer loop
      vertex 8.825 18 31.75
      vertex 0.011734 6.71423 31.75
      vertex 0.27636 6.35 31.75
    endloop
  endfacet
  facet normal 0 0 1
    outer loop
      vertex 11.0189 21.0196 31.75
      vertex 0 31.75 31.75
      vertex 9.43137 19.8662 31.75
    endloop
  endfacet
  facet normal 0 0 1
    outer loop
      vertex 8.825 18 31.75
      vertex 0 31.75 31.75
      vertex 0 6.721 31.75
    endloop
  endfacet
  facet normal 0 0 1
    outer loop
      vertex 8.825 18 31.75
      vertex 0 6.721 31.75
      vertex 0.011734 6.71423 31.75
    endloop
  endfacet
  facet normal -0 0 1
    outer loop
      vertex 14.5686 16.1338 31.75
      vertex 25.4 6.35 31.75
      vertex 15.175 18 31.75
    endloop
  endfacet
  facet normal -0 0 1
    outer loop
      vertex 12.9811 14.9804 31.75
      vertex 25.4 6.35 31.75
      vertex 14.5686 16.1338 31.75
    endloop
  endfacet
  facet normal 0 0 1
    outer loop
      vertex 0.27636 6.35 31.75
      vertex 12.9811 14.9804 31.75
      vertex 11.0189 14.9804 31.75
    endloop
  endfacet
  facet normal 0 0 1
    outer loop
      vertex 12.9811 14.9804 31.75
      vertex 0.27636 6.35 31.75
      vertex 25.4 6.35 31.75
    endloop
  endfacet
  facet normal 0 0 1
    outer loop
      vertex 9.43137 16.1338 31.75
      vertex 0.27636 6.35 31.75
      vertex 11.0189 14.9804 31.75
    endloop
  endfacet
  facet normal 0 0 1
    outer loop
      vertex 0.27636 6.35 31.75
      vertex 9.43137 16.1338 31.75
      vertex 8.825 18 31.75
    endloop
  endfacet
  facet normal 1 0 0
    outer loop
      vertex 25.4 12.7 31.75
      vertex 25.4 6.35 31.75
      vertex 25.4 12.7 6.35
    endloop
  endfacet
  facet normal 1 -0 0
    outer loop
      vertex 25.4 19.05 31.75
      vertex 25.4 31.75 6.35
      vertex 25.4 31.75 31.75
    endloop
  endfacet
  facet normal 1 -0 0
    outer loop
      vertex 25.4 19.05 6.35
      vertex 25.4 31.75 6.35
      vertex 25.4 19.05 31.75
    endloop
  endfacet
  facet normal 1 -0 0
    outer loop
      vertex 25.4 12.7 6.35
      vertex 25.4 31.75 6.35
      vertex 25.4 19.05 6.35
    endloop
  endfacet
  facet normal 1 0 0
    outer loop
      vertex 25.4 12.7 6.35
      vertex 25.4 6.35 6.35
      vertex 25.4 31.75 6.35
    endloop
  endfacet
  facet normal 1 0 0
    outer loop
      vertex 25.4 6.35 6.35
      vertex 25.4 12.7 6.35
      vertex 25.4 6.35 31.75
    endloop
  endfacet
  facet normal 0 0 0
    outer loop
      vertex 25.4 31.75 31.75
      vertex 25.4 6.35 31.75
      vertex 25.4 12.7 31.75
    endloop
  endfacet
  facet normal 0 0 0
    outer loop
      vertex 25.4 19.05 31.75
      vertex 25.4 31.75 31.75
      vertex 25.4 12.7 31.75
    endloop
  endfacet
  facet normal 0 0 -1
    outer loop
      vertex 25.4 6.35 6.35
      vertex 15.175 18 6.35
      vertex 25.4 31.75 6.35
    endloop
  endfacet
  facet normal 0 0 -1
    outer loop
      vertex 25.4 6.35 6.35
      vertex 14.5686 16.1338 6.35
      vertex 15.175 18 6.35
    endloop
  endfacet
  facet normal 0 0 -1
    outer loop
      vertex 25.4 6.35 6.35
      vertex 12.9811 14.9804 6.35
      vertex 14.5686 16.1338 6.35
    endloop
  endfacet
  facet normal 0 0 -1
    outer loop
      vertex 0.27636 6.35 6.35
      vertex 12.9811 14.9804 6.35
      vertex 25.4 6.35 6.35
    endloop
  endfacet
  facet normal 0 0 -1
    outer loop
      vertex 0.011734 6.71423 6.35
      vertex 9.43137 16.1338 6.35
      vertex 0.27636 6.35 6.35
    endloop
  endfacet
  facet normal -0 0 -1
    outer loop
      vertex 11.0189 14.9804 6.35
      vertex 0.27636 6.35 6.35
      vertex 9.43137 16.1338 6.35
    endloop
  endfacet
  facet normal -0 0 -1
    outer loop
      vertex 12.9811 14.9804 6.35
      vertex 0.27636 6.35 6.35
      vertex 11.0189 14.9804 6.35
    endloop
  endfacet
  facet normal 0 0 -1
    outer loop
      vertex 14.5686 19.8662 6.35
      vertex 25.4 31.75 6.35
      vertex 15.175 18 6.35
    endloop
  endfacet
  facet normal 0 0 -1
    outer loop
      vertex 12.9811 21.0196 6.35
      vertex 25.4 31.75 6.35
      vertex 14.5686 19.8662 6.35
    endloop
  endfacet
  facet normal 0 0 -1
    outer loop
      vertex 0 31.75 6.35
      vertex 12.9811 21.0196 6.35
      vertex 11.0189 21.0196 6.35
    endloop
  endfacet
  facet normal 0 0 -1
    outer loop
      vertex 0 31.75 6.35
      vertex 11.0189 21.0196 6.35
      vertex 9.43137 19.8662 6.35
    endloop
  endfacet
  facet normal 0 0 -1
    outer loop
      vertex 0 6.721 6.35
      vertex 9.43137 16.1338 6.35
      vertex 0.011734 6.71423 6.35
    endloop
  endfacet
  facet normal -0 0 -1
    outer loop
      vertex 9.43137 16.1338 6.35
      vertex 0 6.721 6.35
      vertex 8.825 18 6.35
    endloop
  endfacet
  facet normal 0 0 -1
    outer loop
      vertex 0 31.75 6.35
      vertex 8.825 18 6.35
      vertex 0 6.721 6.35
    endloop
  endfacet
  facet normal 0 0 -1
    outer loop
      vertex 12.9811 21.0196 6.35
      vertex 0 31.75 6.35
      vertex 25.4 31.75 6.35
    endloop
  endfacet
  facet normal 0 0 -1
    outer loop
      vertex 8.825 18 6.35
      vertex 0 31.75 6.35
      vertex 9.43137 19.8662 6.35
    endloop
  endfacet
  facet normal 0 1 0
    outer loop
      vertex 50.8 6.35 38.1
      vertex 25.4 6.35 31.75
      vertex 0.27636 6.35 38.1
    endloop
  endfacet
  facet normal 0 1 0
    outer loop
      vertex 50.8 6.35 38.1
      vertex 25.4 6.35 6.35
      vertex 25.4 6.35 31.75
    endloop
  endfacet
  facet normal 0 1 -0
    outer loop
      vertex 50.8 6.35 0
      vertex 25.4 6.35 6.35
      vertex 50.8 6.35 38.1
    endloop
  endfacet
  facet normal 0 1 0
    outer loop
      vertex 0.27636 6.35 0
      vertex 25.4 6.35 6.35
      vertex 50.8 6.35 0
    endloop
  endfacet
  facet normal 0 1 0
    outer loop
      vertex 25.4 6.35 6.35
      vertex 0.27636 6.35 0
      vertex 0.27636 6.35 6.35
    endloop
  endfacet
  facet normal 0 1 0
    outer loop
      vertex 0.27636 6.35 38.1
      vertex 25.4 6.35 31.75
      vertex 0.27636 6.35 31.75
    endloop
  endfacet
  facet normal 0 1 0
    outer loop
      vertex 25.4 31.75 31.75
      vertex 12.7 31.75 6.35
      vertex 12.7 31.75 31.75
    endloop
  endfacet
  facet normal 0 1 0
    outer loop
      vertex 12.7 31.75 6.35
      vertex 25.4 31.75 6.35
      vertex 6.35 31.75 6.35
    endloop
  endfacet
  facet normal 0 1 -0
    outer loop
      vertex 25.4 31.75 6.35
      vertex 12.7 31.75 6.35
      vertex 25.4 31.75 31.75
    endloop
  endfacet
  facet normal 0 1 -0
    outer loop
      vertex 6.35 31.75 6.35
      vertex 0 31.75 31.75
      vertex 6.35 31.75 31.75
    endloop
  endfacet
  facet normal 0 1 0
    outer loop
      vertex 6.35 31.75 6.35
      vertex 0 31.75 6.35
      vertex 0 31.75 31.75
    endloop
  endfacet
  facet normal 0 1 0
    outer loop
      vertex 0 31.75 6.35
      vertex 6.35 31.75 6.35
      vertex 25.4 31.75 6.35
    endloop
  endfacet
  facet normal 0 0 0
    outer loop
      vertex 25.4 31.75 31.75
      vertex 12.7 31.75 31.75
      vertex 6.35 31.75 31.75
    endloop
  endfacet
  facet normal 0 0 0
    outer loop
      vertex 6.35 31.75 31.75
      vertex 0 31.75 31.75
      vertex 25.4 31.75 31.75
    endloop
  endfacet
  facet normal 0 0 1
    outer loop
      vertex -6.35 54.1114 38.1
      vertex 0 57.15 38.1
      vertex -0.454596 58.9944 38.1
    endloop
  endfacet
  facet normal 0 0 1
    outer loop
      vertex 47.6979 0 38.1
      vertex 50.8 6.26298 38.1
      vertex 50.8 6.35 38.1
    endloop
  endfacet
  facet normal 0 0 1
    outer loop
      vertex 50.8 6.26298 38.1
      vertex 47.6979 0 38.1
      vertex 49.3927 -1.3296 38.1
    endloop
  endfacet
  facet normal 0 0 1
    outer loop
      vertex 49.3927 -1.3296 38.1
      vertex 47.6979 0 38.1
      vertex 47.8293 -0.250518 38.1
    endloop
  endfacet
  facet normal 0 0 1
    outer loop
      vertex 50.8 6.35 38.1
      vertex 34.7885 0 38.1
      vertex 47.6979 0 38.1
    endloop
  endfacet
  facet normal 0 0 1
    outer loop
      vertex 34.7885 0 38.1
      vertex 32.2284 -1.55856 38.1
      vertex 34.0045 -0.884967 38.1
    endloop
  endfacet
  facet normal 0 0 1
    outer loop
      vertex 34.7885 0 38.1
      vertex 30.3427 -1.3296 38.1
      vertex 32.2284 -1.55856 38.1
    endloop
  endfacet
  facet normal 0 0 1
    outer loop
      vertex 28.6479 0 38.1
      vertex 34.7885 0 38.1
      vertex 50.8 6.35 38.1
    endloop
  endfacet
  facet normal 0 0 1
    outer loop
      vertex 34.7885 0 38.1
      vertex 28.6479 0 38.1
      vertex 30.3427 -1.3296 38.1
    endloop
  endfacet
  facet normal 0 0 1
    outer loop
      vertex 30.3427 -1.3296 38.1
      vertex 28.6479 0 38.1
      vertex 28.7793 -0.250518 38.1
    endloop
  endfacet
  facet normal -0 0 1
    outer loop
      vertex 0.27636 6.35 38.1
      vertex 28.6479 0 38.1
      vertex 50.8 6.35 38.1
    endloop
  endfacet
  facet normal 0 0 1
    outer loop
      vertex 15.7385 0 38.1
      vertex 13.1784 -1.55856 38.1
      vertex 14.9545 -0.884967 38.1
    endloop
  endfacet
  facet normal 0 0 1
    outer loop
      vertex 15.7385 0 38.1
      vertex 11.2927 -1.3296 38.1
      vertex 13.1784 -1.55856 38.1
    endloop
  endfacet
  facet normal -0 0 1
    outer loop
      vertex 9.59787 0 38.1
      vertex 11.2927 -1.3296 38.1
      vertex 15.7385 0 38.1
    endloop
  endfacet
  facet normal 0 0 1
    outer loop
      vertex 28.6479 0 38.1
      vertex 0.27636 6.35 38.1
      vertex 15.7385 0 38.1
    endloop
  endfacet
  facet normal 0 0 1
    outer loop
      vertex 11.2927 -1.3296 38.1
      vertex 9.59787 0 38.1
      vertex 9.72935 -0.250518 38.1
    endloop
  endfacet
  facet normal 0 0 1
    outer loop
      vertex 15.7385 0 38.1
      vertex 0.27636 6.35 38.1
      vertex 9.59787 0 38.1
    endloop
  endfacet
  facet normal 0 0 1
    outer loop
      vertex 0.27636 6.35 38.1
      vertex 0.27636 0 38.1
      vertex 9.59787 0 38.1
    endloop
  endfacet
  facet normal 0 0 1
    outer loop
      vertex 0 6.721 38.1
      vertex 0.27636 6.35 38.1
      vertex 0.011734 6.71423 38.1
    endloop
  endfacet
  facet normal -0 0 1
    outer loop
      vertex -6.35 6.58475 38.1
      vertex 0.27636 6.35 38.1
      vertex 0 6.721 38.1
    endloop
  endfacet
  facet normal 0 0 1
    outer loop
      vertex 0.27636 6.35 38.1
      vertex -6.35 6.58475 38.1
      vertex 0.27636 0 38.1
    endloop
  endfacet
  facet normal 0 0 1
    outer loop
      vertex 0 57.15 38.1
      vertex -6.35 35.0614 38.1
      vertex 0 6.721 38.1
    endloop
  endfacet
  facet normal -0 0 1
    outer loop
      vertex -6.35 22.0886 38.1
      vertex 0 6.721 38.1
      vertex -6.35 35.0614 38.1
    endloop
  endfacet
  facet normal 0 0 1
    outer loop
      vertex -6.35 54.1114 38.1
      vertex -0.454596 58.9944 38.1
      vertex -1.71424 60.4162 38.1
    endloop
  endfacet
  facet normal 0 0 1
    outer loop
      vertex -6.35 54.1114 38.1
      vertex -1.71424 60.4162 38.1
      vertex -3.49037 61.0898 38.1
    endloop
  endfacet
  facet normal -0 0 1
    outer loop
      vertex -6.35 16.0114 38.1
      vertex 0 6.721 38.1
      vertex -6.35 22.0886 38.1
    endloop
  endfacet
  facet normal 0 0 1
    outer loop
      vertex -6.35 54.1114 38.1
      vertex -3.49037 61.0898 38.1
      vertex -5.37609 60.8608 38.1
    endloop
  endfacet
  facet normal 0 0 1
    outer loop
      vertex -6.35 6.58475 38.1
      vertex 0 6.721 38.1
      vertex -6.35 16.0114 38.1
    endloop
  endfacet
  facet normal 0 0 1
    outer loop
      vertex 0 57.15 38.1
      vertex -6.35 54.1114 38.1
      vertex -6.35 41.1386 38.1
    endloop
  endfacet
  facet normal -0 0 1
    outer loop
      vertex -6.9394 59.7818 38.1
      vertex -6.35 54.1114 38.1
      vertex -5.37609 60.8608 38.1
    endloop
  endfacet
  facet normal -0 0 1
    outer loop
      vertex -7.82218 58.0998 38.1
      vertex -6.35 54.1114 38.1
      vertex -6.9394 59.7818 38.1
    endloop
  endfacet
  facet normal -0 0 1
    outer loop
      vertex -7.82218 56.2002 38.1
      vertex -6.35 54.1114 38.1
      vertex -7.82218 58.0998 38.1
    endloop
  endfacet
  facet normal 0 0 1
    outer loop
      vertex -6.35 54.1114 38.1
      vertex -7.82218 56.2002 38.1
      vertex -6.9394 54.5182 38.1
    endloop
  endfacet
  facet normal 0 0 1
    outer loop
      vertex 50.8 6.26298 38.1
      vertex 54.7687 2.38125 38.1
      vertex 54.3142 4.22562 38.1
    endloop
  endfacet
  facet normal 0 0 1
    outer loop
      vertex 50.8 6.26298 38.1
      vertex 54.3142 4.22562 38.1
      vertex 53.0545 5.64747 38.1
    endloop
  endfacet
  facet normal 0 0 1
    outer loop
      vertex 54.7687 2.38125 38.1
      vertex 50.8 6.26298 38.1
      vertex 54.3142 0.53688 38.1
    endloop
  endfacet
  facet normal -0 0 1
    outer loop
      vertex 50.8 6.26298 38.1
      vertex 53.0545 5.64747 38.1
      vertex 51.2784 6.32106 38.1
    endloop
  endfacet
  facet normal 0 0 1
    outer loop
      vertex 54.3142 0.53688 38.1
      vertex 50.8 6.26298 38.1
      vertex 53.0545 -0.884967 38.1
    endloop
  endfacet
  facet normal 0 0 1
    outer loop
      vertex 53.0545 -0.884967 38.1
      vertex 50.8 6.26298 38.1
      vertex 51.2784 -1.55856 38.1
    endloop
  endfacet
  facet normal 0 0 1
    outer loop
      vertex 51.2784 -1.55856 38.1
      vertex 50.8 6.26298 38.1
      vertex 49.3927 -1.3296 38.1
    endloop
  endfacet
  facet normal 0 0 1
    outer loop
      vertex -7.82218 19.9998 38.1
      vertex -6.35 22.0886 38.1
      vertex -6.9394 21.6818 38.1
    endloop
  endfacet
  facet normal 0 0 1
    outer loop
      vertex -6.35 22.0886 38.1
      vertex -7.82218 19.9998 38.1
      vertex -6.35 16.0114 38.1
    endloop
  endfacet
  facet normal -0 0 1
    outer loop
      vertex -7.82218 18.1002 38.1
      vertex -6.35 16.0114 38.1
      vertex -7.82218 19.9998 38.1
    endloop
  endfacet
  facet normal 0 0 1
    outer loop
      vertex -6.35 16.0114 38.1
      vertex -7.82218 18.1002 38.1
      vertex -6.9394 16.4182 38.1
    endloop
  endfacet
  facet normal 0 0 1
    outer loop
      vertex -7.82218 39.0498 38.1
      vertex -6.35 41.1386 38.1
      vertex -6.9394 40.7318 38.1
    endloop
  endfacet
  facet normal 0 0 1
    outer loop
      vertex -6.35 41.1386 38.1
      vertex -7.82218 39.0498 38.1
      vertex -6.35 35.0614 38.1
    endloop
  endfacet
  facet normal -0 0 1
    outer loop
      vertex -7.82218 37.1502 38.1
      vertex -6.35 35.0614 38.1
      vertex -7.82218 39.0498 38.1
    endloop
  endfacet
  facet normal 0 0 1
    outer loop
      vertex -6.35 35.0614 38.1
      vertex -7.82218 37.1502 38.1
      vertex -6.9394 35.4682 38.1
    endloop
  endfacet
  facet normal 0 0 1
    outer loop
      vertex 0 57.15 38.1
      vertex -6.35 41.1386 38.1
      vertex -6.35 35.0614 38.1
    endloop
  endfacet
  facet normal 0 -0 1
    outer loop
      vertex -3.67282 -1.56141 38.1
      vertex 0.27636 0 38.1
      vertex -6.35 6.58475 38.1
    endloop
  endfacet
  facet normal 0 0 1
    outer loop
      vertex 0.27636 0 38.1
      vertex -1.70331 -1.35441 38.1
      vertex 0.011734 -0.364226 38.1
    endloop
  endfacet
  facet normal 0 0 1
    outer loop
      vertex 0.27636 0 38.1
      vertex -3.67282 -1.56141 38.1
      vertex -1.70331 -1.35441 38.1
    endloop
  endfacet
  facet normal 0 0 1
    outer loop
      vertex -3.67282 -1.56141 38.1
      vertex -6.35 6.58475 38.1
      vertex -5.55625 -0.949446 38.1
    endloop
  endfacet
  facet normal 0 0 1
    outer loop
      vertex -7.83343 4.16518 38.1
      vertex -6.35 6.58475 38.1
      vertex -7.02794 5.97433 38.1
    endloop
  endfacet
  facet normal 0 0 1
    outer loop
      vertex -6.35 6.58475 38.1
      vertex -7.02794 0.375672 38.1
      vertex -5.55625 -0.949446 38.1
    endloop
  endfacet
  facet normal 0 0 1
    outer loop
      vertex -7.83343 2.18482 38.1
      vertex -6.35 6.58475 38.1
      vertex -7.83343 4.16518 38.1
    endloop
  endfacet
  facet normal 0 0 1
    outer loop
      vertex -6.35 6.58475 38.1
      vertex -7.83343 2.18482 38.1
      vertex -7.02794 0.375672 38.1
    endloop
  endfacet
  facet normal 1 -0 0
    outer loop
      vertex 50.8 6.26298 38.1
      vertex 50.8 6.35 0
      vertex 50.8 6.35 38.1
    endloop
  endfacet
  facet normal 1 0 0
    outer loop
      vertex 50.8 6.35 0
      vertex 50.8 6.26298 38.1
      vertex 50.8 6.26298 0
    endloop
  endfacet
  facet normal 0 0 -1
    outer loop
      vertex -7.82218 37.1502 0
      vertex -6.35 35.0614 0
      vertex -6.9394 35.4682 0
    endloop
  endfacet
  facet normal 0 0 -1
    outer loop
      vertex -6.35 35.0614 0
      vertex -7.82218 37.1502 0
      vertex -6.35 41.1386 0
    endloop
  endfacet
  facet normal 0 0 -1
    outer loop
      vertex -7.82218 39.0498 0
      vertex -6.35 41.1386 0
      vertex -7.82218 37.1502 0
    endloop
  endfacet
  facet normal 0 0 -1
    outer loop
      vertex -6.35 41.1386 0
      vertex -7.82218 39.0498 0
      vertex -6.9394 40.7318 0
    endloop
  endfacet
  facet normal 0 0 -1
    outer loop
      vertex -7.82218 18.1002 0
      vertex -6.35 16.0114 0
      vertex -6.9394 16.4182 0
    endloop
  endfacet
  facet normal 0 0 -1
    outer loop
      vertex -6.35 16.0114 0
      vertex -7.82218 18.1002 0
      vertex -6.35 22.0886 0
    endloop
  endfacet
  facet normal 0 0 -1
    outer loop
      vertex -7.82218 19.9998 0
      vertex -6.35 22.0886 0
      vertex -7.82218 18.1002 0
    endloop
  endfacet
  facet normal 0 0 -1
    outer loop
      vertex -6.35 22.0886 0
      vertex -7.82218 19.9998 0
      vertex -6.9394 21.6818 0
    endloop
  endfacet
  facet normal 0 0 -1
    outer loop
      vertex -7.02794 0.375672 0
      vertex -6.35 6.58475 0
      vertex -5.55625 -0.949446 0
    endloop
  endfacet
  facet normal 0 0 -1
    outer loop
      vertex -7.83343 2.18482 0
      vertex -6.35 6.58475 0
      vertex -7.02794 0.375672 0
    endloop
  endfacet
  facet normal 0 0 -1
    outer loop
      vertex -7.83343 4.16518 0
      vertex -6.35 6.58475 0
      vertex -7.83343 2.18482 0
    endloop
  endfacet
  facet normal 0 0 -1
    outer loop
      vertex -6.35 6.58475 0
      vertex -7.83343 4.16518 0
      vertex -7.02794 5.97433 0
    endloop
  endfacet
  facet normal 0 0 -1
    outer loop
      vertex 50.8 6.26298 0
      vertex 54.7687 2.38125 0
      vertex 54.3142 0.53688 0
    endloop
  endfacet
  facet normal 0 0 -1
    outer loop
      vertex 50.8 6.26298 0
      vertex 54.3142 0.53688 0
      vertex 53.0545 -0.884967 0
    endloop
  endfacet
  facet normal 0 0 -1
    outer loop
      vertex 54.7687 2.38125 0
      vertex 50.8 6.26298 0
      vertex 54.3142 4.22562 0
    endloop
  endfacet
  facet normal 0 0 -1
    outer loop
      vertex 50.8 6.26298 0
      vertex 53.0545 -0.884967 0
      vertex 51.2784 -1.55856 0
    endloop
  endfacet
  facet normal 0 0 -1
    outer loop
      vertex 54.3142 4.22562 0
      vertex 50.8 6.26298 0
      vertex 53.0545 5.64747 0
    endloop
  endfacet
  facet normal 0 0 -1
    outer loop
      vertex 53.0545 5.64747 0
      vertex 50.8 6.26298 0
      vertex 51.2784 6.32106 0
    endloop
  endfacet
  facet normal 0 0 -1
    outer loop
      vertex 47.6979 0 0
      vertex 51.2784 -1.55856 0
      vertex 49.3927 -1.3296 0
    endloop
  endfacet
  facet normal 0 0 -1
    outer loop
      vertex 51.2784 -1.55856 0
      vertex 47.6979 0 0
      vertex 50.8 6.26298 0
    endloop
  endfacet
  facet normal 0 0 -1
    outer loop
      vertex 47.6979 0 0
      vertex 49.3927 -1.3296 0
      vertex 47.8293 -0.250518 0
    endloop
  endfacet
  facet normal -0 0 -1
    outer loop
      vertex 50.8 6.26298 0
      vertex 47.6979 0 0
      vertex 50.8 6.35 0
    endloop
  endfacet
  facet normal 0 0 -1
    outer loop
      vertex 34.7885 0 0
      vertex 50.8 6.35 0
      vertex 47.6979 0 0
    endloop
  endfacet
  facet normal 0 0 -1
    outer loop
      vertex 32.2284 -1.55856 0
      vertex 34.7885 0 0
      vertex 34.0045 -0.884967 0
    endloop
  endfacet
  facet normal 0 0 -1
    outer loop
      vertex 30.3427 -1.3296 0
      vertex 34.7885 0 0
      vertex 32.2284 -1.55856 0
    endloop
  endfacet
  facet normal 0 0 -1
    outer loop
      vertex 28.6479 0 0
      vertex 34.7885 0 0
      vertex 30.3427 -1.3296 0
    endloop
  endfacet
  facet normal 0 0 -1
    outer loop
      vertex 28.6479 0 0
      vertex 30.3427 -1.3296 0
      vertex 28.7793 -0.250518 0
    endloop
  endfacet
  facet normal 0 0 -1
    outer loop
      vertex 34.7885 0 0
      vertex 28.6479 0 0
      vertex 50.8 6.35 0
    endloop
  endfacet
  facet normal 0 0 -1
    outer loop
      vertex 0.27636 6.35 0
      vertex 28.6479 0 0
      vertex 15.7385 0 0
    endloop
  endfacet
  facet normal 0 0 -1
    outer loop
      vertex 13.1784 -1.55856 0
      vertex 15.7385 0 0
      vertex 14.9545 -0.884967 0
    endloop
  endfacet
  facet normal 0 0 -1
    outer loop
      vertex 11.2927 -1.3296 0
      vertex 15.7385 0 0
      vertex 13.1784 -1.55856 0
    endloop
  endfacet
  facet normal 0 0 -1
    outer loop
      vertex 9.59787 0 0
      vertex 11.2927 -1.3296 0
      vertex 9.72935 -0.250518 0
    endloop
  endfacet
  facet normal 0 0 -1
    outer loop
      vertex 11.2927 -1.3296 0
      vertex 9.59787 0 0
      vertex 15.7385 0 0
    endloop
  endfacet
  facet normal 0 0 -1
    outer loop
      vertex 0.27636 6.35 0
      vertex 15.7385 0 0
      vertex 9.59787 0 0
    endloop
  endfacet
  facet normal 0 0 -1
    outer loop
      vertex 28.6479 0 0
      vertex 0.27636 6.35 0
      vertex 50.8 6.35 0
    endloop
  endfacet
  facet normal 0 0 -1
    outer loop
      vertex 0.27636 0 0
      vertex 0.27636 6.35 0
      vertex 9.59787 0 0
    endloop
  endfacet
  facet normal 0 0 -1
    outer loop
      vertex -1.70331 -1.35441 0
      vertex 0.27636 0 0
      vertex 0.011734 -0.364226 0
    endloop
  endfacet
  facet normal 0 0 -1
    outer loop
      vertex 0.27636 0 0
      vertex -6.35 6.58475 0
      vertex 0.27636 6.35 0
    endloop
  endfacet
  facet normal 0 0 -1
    outer loop
      vertex 0.27636 6.35 0
      vertex 0 6.721 0
      vertex 0.011734 6.71423 0
    endloop
  endfacet
  facet normal 0 0 -1
    outer loop
      vertex -6.35 35.0614 0
      vertex 0 57.15 0
      vertex 0 6.721 0
    endloop
  endfacet
  facet normal 0 0 -1
    outer loop
      vertex 0.27636 6.35 0
      vertex -6.35 6.58475 0
      vertex 0 6.721 0
    endloop
  endfacet
  facet normal 0 0 -1
    outer loop
      vertex -3.67282 -1.56141 0
      vertex 0.27636 0 0
      vertex -1.70331 -1.35441 0
    endloop
  endfacet
  facet normal 0 0 -1
    outer loop
      vertex 0 6.721 0
      vertex -6.35 22.0886 0
      vertex -6.35 35.0614 0
    endloop
  endfacet
  facet normal 0 0 -1
    outer loop
      vertex -6.35 54.1114 0
      vertex 0 57.15 0
      vertex -6.35 41.1386 0
    endloop
  endfacet
  facet normal -0 0 -1
    outer loop
      vertex 0.27636 0 0
      vertex -3.67282 -1.56141 0
      vertex -6.35 6.58475 0
    endloop
  endfacet
  facet normal -0 0 -1
    outer loop
      vertex 0 57.15 0
      vertex -6.35 54.1114 0
      vertex -0.454596 58.9944 0
    endloop
  endfacet
  facet normal 0 0 -1
    outer loop
      vertex -6.35 6.58475 0
      vertex -3.67282 -1.56141 0
      vertex -5.55625 -0.949446 0
    endloop
  endfacet
  facet normal -0 0 -1
    outer loop
      vertex 0 6.721 0
      vertex -6.35 6.58475 0
      vertex -6.35 16.0114 0
    endloop
  endfacet
  facet normal 0 0 -1
    outer loop
      vertex 0 6.721 0
      vertex -6.35 16.0114 0
      vertex -6.35 22.0886 0
    endloop
  endfacet
  facet normal 0 0 -1
    outer loop
      vertex -6.35 41.1386 0
      vertex 0 57.15 0
      vertex -6.35 35.0614 0
    endloop
  endfacet
  facet normal -0 0 -1
    outer loop
      vertex -0.454596 58.9944 0
      vertex -6.35 54.1114 0
      vertex -1.71424 60.4162 0
    endloop
  endfacet
  facet normal -0 0 -1
    outer loop
      vertex -1.71424 60.4162 0
      vertex -6.35 54.1114 0
      vertex -3.49037 61.0898 0
    endloop
  endfacet
  facet normal 0 0 -1
    outer loop
      vertex -3.49037 61.0898 0
      vertex -6.35 54.1114 0
      vertex -5.37609 60.8608 0
    endloop
  endfacet
  facet normal 0 0 -1
    outer loop
      vertex -7.82218 56.2002 0
      vertex -6.35 54.1114 0
      vertex -6.9394 54.5182 0
    endloop
  endfacet
  facet normal 0 0 -1
    outer loop
      vertex -6.35 54.1114 0
      vertex -6.9394 59.7818 0
      vertex -5.37609 60.8608 0
    endloop
  endfacet
  facet normal 0 0 -1
    outer loop
      vertex -7.82218 58.0998 0
      vertex -6.35 54.1114 0
      vertex -7.82218 56.2002 0
    endloop
  endfacet
  facet normal 0 0 -1
    outer loop
      vertex -6.35 54.1114 0
      vertex -7.82218 58.0998 0
      vertex -6.9394 59.7818 0
    endloop
  endfacet
  facet normal 0 -1 0
    outer loop
      vertex 0.27636 0 0
      vertex 9.59787 0 38.1
      vertex 0.27636 0 38.1
    endloop
  endfacet
  facet normal 0 -1 -0
    outer loop
      vertex 9.59787 0 38.1
      vertex 0.27636 0 0
      vertex 9.59787 0 0
    endloop
  endfacet
  facet normal 0 -1 0
    outer loop
      vertex 34.7885 0 0
      vertex 47.6979 0 38.1
      vertex 34.7885 0 38.1
    endloop
  endfacet
  facet normal 0 -1 -0
    outer loop
      vertex 47.6979 0 38.1
      vertex 34.7885 0 0
      vertex 47.6979 0 0
    endloop
  endfacet
  facet normal 0 -1 0
    outer loop
      vertex 15.7385 0 0
      vertex 28.6479 0 38.1
      vertex 15.7385 0 38.1
    endloop
  endfacet
  facet normal 0 -1 -0
    outer loop
      vertex 28.6479 0 38.1
      vertex 15.7385 0 0
      vertex 28.6479 0 0
    endloop
  endfacet
  facet normal -1 0 0
    outer loop
      vertex -6.35 6.58475 0
      vertex -6.35 16.0114 38.1
      vertex -6.35 16.0114 0
    endloop
  endfacet
  facet normal -1 -0 0
    outer loop
      vertex -6.35 16.0114 38.1
      vertex -6.35 6.58475 0
      vertex -6.35 6.58475 38.1
    endloop
  endfacet
  facet normal -1 0 0
    outer loop
      vertex -6.35 22.0886 0
      vertex -6.35 35.0614 38.1
      vertex -6.35 35.0614 0
    endloop
  endfacet
  facet normal -1 -0 0
    outer loop
      vertex -6.35 35.0614 38.1
      vertex -6.35 22.0886 0
      vertex -6.35 22.0886 38.1
    endloop
  endfacet
  facet normal -1 0 0
    outer loop
      vertex -6.35 41.1386 0
      vertex -6.35 54.1114 38.1
      vertex -6.35 54.1114 0
    endloop
  endfacet
  facet normal -1 -0 0
    outer loop
      vertex -6.35 54.1114 38.1
      vertex -6.35 41.1386 0
      vertex -6.35 41.1386 38.1
    endloop
  endfacet
  facet normal -1 0 0
    outer loop
      vertex -7.83343 2.18482 0
      vertex -7.83343 4.16518 38.1
      vertex -7.83343 4.16518 0
    endloop
  endfacet
  facet normal -1 -0 0
    outer loop
      vertex -7.83343 4.16518 38.1
      vertex -7.83343 2.18482 0
      vertex -7.83343 2.18482 38.1
    endloop
  endfacet
  facet normal 0.809017 0.587785 0
    outer loop
      vertex 0.27636 6.35 6.35
      vertex 0.011734 6.71423 0
      vertex 0.011734 6.71423 6.35
    endloop
  endfacet
  facet normal 0.809017 0.587785 0
    outer loop
      vertex 0.011734 6.71423 0
      vertex 0.27636 6.35 6.35
      vertex 0.27636 6.35 0
    endloop
  endfacet
  facet normal 0.809017 0.587785 0
    outer loop
      vertex 0.27636 6.35 38.1
      vertex 0.011734 6.71423 31.75
      vertex 0.011734 6.71423 38.1
    endloop
  endfacet
  facet normal 0.809017 0.587785 0
    outer loop
      vertex 0.011734 6.71423 31.75
      vertex 0.27636 6.35 38.1
      vertex 0.27636 6.35 31.75
    endloop
  endfacet
  facet normal 0.5 -0.866025 0
    outer loop
      vertex -1.70331 -1.35441 0
      vertex 0.011734 -0.364226 38.1
      vertex -1.70331 -1.35441 38.1
    endloop
  endfacet
  facet normal 0.5 -0.866025 0
    outer loop
      vertex 0.011734 -0.364226 38.1
      vertex -1.70331 -1.35441 0
      vertex 0.011734 -0.364226 0
    endloop
  endfacet
  facet normal 0.104528 -0.994522 0
    outer loop
      vertex -3.67282 -1.56141 0
      vertex -1.70331 -1.35441 38.1
      vertex -3.67282 -1.56141 38.1
    endloop
  endfacet
  facet normal 0.104528 -0.994522 0
    outer loop
      vertex -1.70331 -1.35441 38.1
      vertex -3.67282 -1.56141 0
      vertex -1.70331 -1.35441 0
    endloop
  endfacet
  facet normal -0.66913 0.743145 0
    outer loop
      vertex -6.35 6.58475 0
      vertex -7.02794 5.97433 38.1
      vertex -6.35 6.58475 38.1
    endloop
  endfacet
  facet normal -0.66913 0.743145 0
    outer loop
      vertex -7.02794 5.97433 38.1
      vertex -6.35 6.58475 0
      vertex -7.02794 5.97433 0
    endloop
  endfacet
  facet normal -0.913545 -0.406737 0
    outer loop
      vertex -7.02794 0.375672 0
      vertex -7.83343 2.18482 38.1
      vertex -7.83343 2.18482 0
    endloop
  endfacet
  facet normal -0.913545 -0.406737 0
    outer loop
      vertex -7.83343 2.18482 38.1
      vertex -7.02794 0.375672 0
      vertex -7.02794 0.375672 38.1
    endloop
  endfacet
  facet normal -0.309017 -0.951057 0
    outer loop
      vertex -5.55625 -0.949446 0
      vertex -3.67282 -1.56141 38.1
      vertex -5.55625 -0.949446 38.1
    endloop
  endfacet
  facet normal -0.309017 -0.951057 -0
    outer loop
      vertex -3.67282 -1.56141 38.1
      vertex -5.55625 -0.949446 0
      vertex -3.67282 -1.56141 0
    endloop
  endfacet
  facet normal -0.669131 -0.743145 0
    outer loop
      vertex -7.02794 0.375672 0
      vertex -5.55625 -0.949446 38.1
      vertex -7.02794 0.375672 38.1
    endloop
  endfacet
  facet normal -0.669131 -0.743145 -0
    outer loop
      vertex -5.55625 -0.949446 38.1
      vertex -7.02794 0.375672 0
      vertex -5.55625 -0.949446 0
    endloop
  endfacet
  facet normal 0.499989 0.866032 -0
    outer loop
      vertex 0.011734 6.71423 0
      vertex 0 6.721 6.35
      vertex 0.011734 6.71423 6.35
    endloop
  endfacet
  facet normal 0.499989 0.866032 0
    outer loop
      vertex 0 6.721 6.35
      vertex 0.011734 6.71423 0
      vertex 0 6.721 0
    endloop
  endfacet
  facet normal 0.499989 0.866032 -0
    outer loop
      vertex 0.011734 6.71423 31.75
      vertex 0 6.721 38.1
      vertex 0.011734 6.71423 38.1
    endloop
  endfacet
  facet normal 0.499989 0.866032 0
    outer loop
      vertex 0 6.721 38.1
      vertex 0.011734 6.71423 31.75
      vertex 0 6.721 31.75
    endloop
  endfacet
  facet normal -0.913545 0.406737 0
    outer loop
      vertex -7.83343 4.16518 0
      vertex -7.02794 5.97433 38.1
      vertex -7.02794 5.97433 0
    endloop
  endfacet
  facet normal -0.913545 0.406737 0
    outer loop
      vertex -7.02794 5.97433 38.1
      vertex -7.83343 4.16518 0
      vertex -7.83343 4.16518 38.1
    endloop
  endfacet
  facet normal 0.809017 -0.587786 0
    outer loop
      vertex 0.011734 -0.364226 38.1
      vertex 0.27636 0 0
      vertex 0.27636 0 38.1
    endloop
  endfacet
  facet normal 0.809017 -0.587786 0
    outer loop
      vertex 0.27636 0 0
      vertex 0.011734 -0.364226 38.1
      vertex 0.011734 -0.364226 0
    endloop
  endfacet
  facet normal 0.970942 0.239316 0
    outer loop
      vertex 0 57.15 38.1
      vertex -0.454596 58.9944 0
      vertex -0.454596 58.9944 38.1
    endloop
  endfacet
  facet normal 0.970942 0.239316 0
    outer loop
      vertex -0.454596 58.9944 0
      vertex 0 57.15 38.1
      vertex 0 57.15 0
    endloop
  endfacet
  facet normal -1 0 0
    outer loop
      vertex -7.82218 56.2002 0
      vertex -7.82218 58.0998 38.1
      vertex -7.82218 58.0998 0
    endloop
  endfacet
  facet normal -1 -0 0
    outer loop
      vertex -7.82218 58.0998 38.1
      vertex -7.82218 56.2002 0
      vertex -7.82218 56.2002 38.1
    endloop
  endfacet
  facet normal -0.120536 0.992709 0
    outer loop
      vertex -3.49037 61.0898 0
      vertex -5.37609 60.8608 38.1
      vertex -3.49037 61.0898 38.1
    endloop
  endfacet
  facet normal -0.120536 0.992709 0
    outer loop
      vertex -5.37609 60.8608 38.1
      vertex -3.49037 61.0898 0
      vertex -5.37609 60.8608 0
    endloop
  endfacet
  facet normal -0.885456 -0.464723 0
    outer loop
      vertex -6.9394 54.5182 0
      vertex -7.82218 56.2002 38.1
      vertex -7.82218 56.2002 0
    endloop
  endfacet
  facet normal -0.885456 -0.464723 0
    outer loop
      vertex -7.82218 56.2002 38.1
      vertex -6.9394 54.5182 0
      vertex -6.9394 54.5182 38.1
    endloop
  endfacet
  facet normal 0.354605 0.935016 -0
    outer loop
      vertex -1.71424 60.4162 0
      vertex -3.49037 61.0898 38.1
      vertex -1.71424 60.4162 38.1
    endloop
  endfacet
  facet normal 0.354605 0.935016 0
    outer loop
      vertex -3.49037 61.0898 38.1
      vertex -1.71424 60.4162 0
      vertex -3.49037 61.0898 0
    endloop
  endfacet
  facet normal 0.748511 0.663123 0
    outer loop
      vertex -0.454596 58.9944 38.1
      vertex -1.71424 60.4162 0
      vertex -1.71424 60.4162 38.1
    endloop
  endfacet
  facet normal 0.748511 0.663123 0
    outer loop
      vertex -1.71424 60.4162 0
      vertex -0.454596 58.9944 38.1
      vertex -0.454596 58.9944 0
    endloop
  endfacet
  facet normal -0.568065 0.822984 0
    outer loop
      vertex -5.37609 60.8608 0
      vertex -6.9394 59.7818 38.1
      vertex -5.37609 60.8608 38.1
    endloop
  endfacet
  facet normal -0.568065 0.822984 0
    outer loop
      vertex -6.9394 59.7818 38.1
      vertex -5.37609 60.8608 0
      vertex -6.9394 59.7818 0
    endloop
  endfacet
  facet normal -0.885456 0.464723 0
    outer loop
      vertex -7.82218 58.0998 0
      vertex -6.9394 59.7818 38.1
      vertex -6.9394 59.7818 0
    endloop
  endfacet
  facet normal -0.885456 0.464723 0
    outer loop
      vertex -6.9394 59.7818 38.1
      vertex -7.82218 58.0998 0
      vertex -7.82218 58.0998 38.1
    endloop
  endfacet
  facet normal -0.568064 -0.822985 0
    outer loop
      vertex -6.9394 54.5182 0
      vertex -6.35 54.1114 38.1
      vertex -6.9394 54.5182 38.1
    endloop
  endfacet
  facet normal -0.568064 -0.822985 -0
    outer loop
      vertex -6.35 54.1114 38.1
      vertex -6.9394 54.5182 0
      vertex -6.35 54.1114 0
    endloop
  endfacet
  facet normal -1 0 0
    outer loop
      vertex -7.82218 37.1502 0
      vertex -7.82218 39.0498 38.1
      vertex -7.82218 39.0498 0
    endloop
  endfacet
  facet normal -1 -0 0
    outer loop
      vertex -7.82218 39.0498 38.1
      vertex -7.82218 37.1502 0
      vertex -7.82218 37.1502 38.1
    endloop
  endfacet
  facet normal -0.885456 0.464723 0
    outer loop
      vertex -7.82218 39.0498 0
      vertex -6.9394 40.7318 38.1
      vertex -6.9394 40.7318 0
    endloop
  endfacet
  facet normal -0.885456 0.464723 0
    outer loop
      vertex -6.9394 40.7318 38.1
      vertex -7.82218 39.0498 0
      vertex -7.82218 39.0498 38.1
    endloop
  endfacet
  facet normal -0.568067 0.822982 0
    outer loop
      vertex -6.35 41.1386 0
      vertex -6.9394 40.7318 38.1
      vertex -6.35 41.1386 38.1
    endloop
  endfacet
  facet normal -0.568067 0.822982 0
    outer loop
      vertex -6.9394 40.7318 38.1
      vertex -6.35 41.1386 0
      vertex -6.9394 40.7318 0
    endloop
  endfacet
  facet normal -0.885456 -0.464723 0
    outer loop
      vertex -6.9394 35.4682 0
      vertex -7.82218 37.1502 38.1
      vertex -7.82218 37.1502 0
    endloop
  endfacet
  facet normal -0.885456 -0.464723 0
    outer loop
      vertex -7.82218 37.1502 38.1
      vertex -6.9394 35.4682 0
      vertex -6.9394 35.4682 38.1
    endloop
  endfacet
  facet normal -0.568064 -0.822985 0
    outer loop
      vertex -6.9394 35.4682 0
      vertex -6.35 35.0614 38.1
      vertex -6.9394 35.4682 38.1
    endloop
  endfacet
  facet normal -0.568064 -0.822985 -0
    outer loop
      vertex -6.35 35.0614 38.1
      vertex -6.9394 35.4682 0
      vertex -6.35 35.0614 0
    endloop
  endfacet
  facet normal -1 0 0
    outer loop
      vertex -7.82218 18.1002 0
      vertex -7.82218 19.9998 38.1
      vertex -7.82218 19.9998 0
    endloop
  endfacet
  facet normal -1 -0 0
    outer loop
      vertex -7.82218 19.9998 38.1
      vertex -7.82218 18.1002 0
      vertex -7.82218 18.1002 38.1
    endloop
  endfacet
  facet normal -0.568065 0.822983 0
    outer loop
      vertex -6.35 22.0886 0
      vertex -6.9394 21.6818 38.1
      vertex -6.35 22.0886 38.1
    endloop
  endfacet
  facet normal -0.568065 0.822983 0
    outer loop
      vertex -6.9394 21.6818 38.1
      vertex -6.35 22.0886 0
      vertex -6.9394 21.6818 0
    endloop
  endfacet
  facet normal -0.885456 0.464723 0
    outer loop
      vertex -7.82218 19.9998 0
      vertex -6.9394 21.6818 38.1
      vertex -6.9394 21.6818 0
    endloop
  endfacet
  facet normal -0.885456 0.464723 0
    outer loop
      vertex -6.9394 21.6818 38.1
      vertex -7.82218 19.9998 0
      vertex -7.82218 19.9998 38.1
    endloop
  endfacet
  facet normal -0.885456 -0.464723 0
    outer loop
      vertex -6.9394 16.4182 0
      vertex -7.82218 18.1002 38.1
      vertex -7.82218 18.1002 0
    endloop
  endfacet
  facet normal -0.885456 -0.464723 0
    outer loop
      vertex -7.82218 18.1002 38.1
      vertex -6.9394 16.4182 0
      vertex -6.9394 16.4182 38.1
    endloop
  endfacet
  facet normal -0.568065 -0.822983 0
    outer loop
      vertex -6.9394 16.4182 0
      vertex -6.35 16.0114 38.1
      vertex -6.9394 16.4182 38.1
    endloop
  endfacet
  facet normal -0.568065 -0.822983 -0
    outer loop
      vertex -6.35 16.0114 38.1
      vertex -6.9394 16.4182 0
      vertex -6.35 16.0114 0
    endloop
  endfacet
  facet normal 0.970942 0.239316 0
    outer loop
      vertex 54.7687 2.38125 38.1
      vertex 54.3142 4.22562 0
      vertex 54.3142 4.22562 38.1
    endloop
  endfacet
  facet normal 0.970942 0.239316 0
    outer loop
      vertex 54.3142 4.22562 0
      vertex 54.7687 2.38125 38.1
      vertex 54.7687 2.38125 0
    endloop
  endfacet
  facet normal -0.120536 0.992709 0
    outer loop
      vertex 51.2784 6.32106 0
      vertex 50.8 6.26298 38.1
      vertex 51.2784 6.32106 38.1
    endloop
  endfacet
  facet normal -0.120536 0.992709 0
    outer loop
      vertex 50.8 6.26298 38.1
      vertex 51.2784 6.32106 0
      vertex 50.8 6.26298 0
    endloop
  endfacet
  facet normal 0.354606 -0.935016 0
    outer loop
      vertex 51.2784 -1.55856 0
      vertex 53.0545 -0.884967 38.1
      vertex 51.2784 -1.55856 38.1
    endloop
  endfacet
  facet normal 0.354606 -0.935016 0
    outer loop
      vertex 53.0545 -0.884967 38.1
      vertex 51.2784 -1.55856 0
      vertex 53.0545 -0.884967 0
    endloop
  endfacet
  facet normal 0.354606 0.935016 -0
    outer loop
      vertex 53.0545 5.64747 0
      vertex 51.2784 6.32106 38.1
      vertex 53.0545 5.64747 38.1
    endloop
  endfacet
  facet normal 0.354606 0.935016 0
    outer loop
      vertex 51.2784 6.32106 38.1
      vertex 53.0545 5.64747 0
      vertex 51.2784 6.32106 0
    endloop
  endfacet
  facet normal 0.748511 0.663123 0
    outer loop
      vertex 54.3142 4.22562 38.1
      vertex 53.0545 5.64747 0
      vertex 53.0545 5.64747 38.1
    endloop
  endfacet
  facet normal 0.748511 0.663123 0
    outer loop
      vertex 53.0545 5.64747 0
      vertex 54.3142 4.22562 38.1
      vertex 54.3142 4.22562 0
    endloop
  endfacet
  facet normal -0.120537 -0.992709 0
    outer loop
      vertex 49.3927 -1.3296 0
      vertex 51.2784 -1.55856 38.1
      vertex 49.3927 -1.3296 38.1
    endloop
  endfacet
  facet normal -0.120537 -0.992709 -0
    outer loop
      vertex 51.2784 -1.55856 38.1
      vertex 49.3927 -1.3296 0
      vertex 51.2784 -1.55856 0
    endloop
  endfacet
  facet normal -0.885457 -0.464721 0
    outer loop
      vertex 47.8293 -0.250518 0
      vertex 47.6979 0 38.1
      vertex 47.6979 0 0
    endloop
  endfacet
  facet normal -0.885457 -0.464721 0
    outer loop
      vertex 47.6979 0 38.1
      vertex 47.8293 -0.250518 0
      vertex 47.8293 -0.250518 38.1
    endloop
  endfacet
  facet normal 0.74851 -0.663123 0
    outer loop
      vertex 53.0545 -0.884967 38.1
      vertex 54.3142 0.53688 0
      vertex 54.3142 0.53688 38.1
    endloop
  endfacet
  facet normal 0.74851 -0.663123 0
    outer loop
      vertex 54.3142 0.53688 0
      vertex 53.0545 -0.884967 38.1
      vertex 53.0545 -0.884967 0
    endloop
  endfacet
  facet normal 0.970942 -0.239316 0
    outer loop
      vertex 54.3142 0.53688 38.1
      vertex 54.7687 2.38125 0
      vertex 54.7687 2.38125 38.1
    endloop
  endfacet
  facet normal 0.970942 -0.239316 0
    outer loop
      vertex 54.7687 2.38125 0
      vertex 54.3142 0.53688 38.1
      vertex 54.3142 0.53688 0
    endloop
  endfacet
  facet normal -0.568064 -0.822984 0
    outer loop
      vertex 47.8293 -0.250518 0
      vertex 49.3927 -1.3296 38.1
      vertex 47.8293 -0.250518 38.1
    endloop
  endfacet
  facet normal -0.568064 -0.822984 -0
    outer loop
      vertex 49.3927 -1.3296 38.1
      vertex 47.8293 -0.250518 0
      vertex 49.3927 -1.3296 0
    endloop
  endfacet
  facet normal 0.354605 -0.935016 0
    outer loop
      vertex 32.2284 -1.55856 0
      vertex 34.0045 -0.884967 38.1
      vertex 32.2284 -1.55856 38.1
    endloop
  endfacet
  facet normal 0.354605 -0.935016 0
    outer loop
      vertex 34.0045 -0.884967 38.1
      vertex 32.2284 -1.55856 0
      vertex 34.0045 -0.884967 0
    endloop
  endfacet
  facet normal -0.885457 -0.464721 0
    outer loop
      vertex 28.7793 -0.250518 0
      vertex 28.6479 0 38.1
      vertex 28.6479 0 0
    endloop
  endfacet
  facet normal -0.885457 -0.464721 0
    outer loop
      vertex 28.6479 0 38.1
      vertex 28.7793 -0.250518 0
      vertex 28.7793 -0.250518 38.1
    endloop
  endfacet
  facet normal -0.120537 -0.992709 0
    outer loop
      vertex 30.3427 -1.3296 0
      vertex 32.2284 -1.55856 38.1
      vertex 30.3427 -1.3296 38.1
    endloop
  endfacet
  facet normal -0.120537 -0.992709 -0
    outer loop
      vertex 32.2284 -1.55856 38.1
      vertex 30.3427 -1.3296 0
      vertex 32.2284 -1.55856 0
    endloop
  endfacet
  facet normal 0.748509 -0.663124 0
    outer loop
      vertex 34.0045 -0.884967 38.1
      vertex 34.7885 0 0
      vertex 34.7885 0 38.1
    endloop
  endfacet
  facet normal 0.748509 -0.663124 0
    outer loop
      vertex 34.7885 0 0
      vertex 34.0045 -0.884967 38.1
      vertex 34.0045 -0.884967 0
    endloop
  endfacet
  facet normal -0.568065 -0.822984 0
    outer loop
      vertex 28.7793 -0.250518 0
      vertex 30.3427 -1.3296 38.1
      vertex 28.7793 -0.250518 38.1
    endloop
  endfacet
  facet normal -0.568065 -0.822984 -0
    outer loop
      vertex 30.3427 -1.3296 38.1
      vertex 28.7793 -0.250518 0
      vertex 30.3427 -1.3296 0
    endloop
  endfacet
  facet normal -0.885456 -0.464724 0
    outer loop
      vertex 9.72935 -0.250518 0
      vertex 9.59787 0 38.1
      vertex 9.59787 0 0
    endloop
  endfacet
  facet normal -0.885456 -0.464724 0
    outer loop
      vertex 9.59787 0 38.1
      vertex 9.72935 -0.250518 0
      vertex 9.72935 -0.250518 38.1
    endloop
  endfacet
  facet normal 0.354605 -0.935016 0
    outer loop
      vertex 13.1784 -1.55856 0
      vertex 14.9545 -0.884967 38.1
      vertex 13.1784 -1.55856 38.1
    endloop
  endfacet
  facet normal 0.354605 -0.935016 0
    outer loop
      vertex 14.9545 -0.884967 38.1
      vertex 13.1784 -1.55856 0
      vertex 14.9545 -0.884967 0
    endloop
  endfacet
  facet normal -0.568065 -0.822984 0
    outer loop
      vertex 9.72935 -0.250518 0
      vertex 11.2927 -1.3296 38.1
      vertex 9.72935 -0.250518 38.1
    endloop
  endfacet
  facet normal -0.568065 -0.822984 -0
    outer loop
      vertex 11.2927 -1.3296 38.1
      vertex 9.72935 -0.250518 0
      vertex 11.2927 -1.3296 0
    endloop
  endfacet
  facet normal 0.748511 -0.663123 0
    outer loop
      vertex 14.9545 -0.884967 38.1
      vertex 15.7385 0 0
      vertex 15.7385 0 38.1
    endloop
  endfacet
  facet normal 0.748511 -0.663123 0
    outer loop
      vertex 15.7385 0 0
      vertex 14.9545 -0.884967 38.1
      vertex 14.9545 -0.884967 0
    endloop
  endfacet
  facet normal -0.120537 -0.992709 0
    outer loop
      vertex 11.2927 -1.3296 0
      vertex 13.1784 -1.55856 38.1
      vertex 11.2927 -1.3296 38.1
    endloop
  endfacet
  facet normal -0.120537 -0.992709 -0
    outer loop
      vertex 13.1784 -1.55856 38.1
      vertex 11.2927 -1.3296 0
      vertex 13.1784 -1.55856 0
    endloop
  endfacet
  facet normal -0.951057 -0.309017 0
    outer loop
      vertex 15.175 18 6.35
      vertex 14.5686 19.8662 31.75
      vertex 14.5686 19.8662 6.35
    endloop
  endfacet
  facet normal -0.951057 -0.309017 0
    outer loop
      vertex 14.5686 19.8662 31.75
      vertex 15.175 18 6.35
      vertex 15.175 18 31.75
    endloop
  endfacet
  facet normal 0 -1 0
    outer loop
      vertex 11.0189 21.0196 6.35
      vertex 12.9811 21.0196 31.75
      vertex 11.0189 21.0196 31.75
    endloop
  endfacet
  facet normal 0 -1 -0
    outer loop
      vertex 12.9811 21.0196 31.75
      vertex 11.0189 21.0196 6.35
      vertex 12.9811 21.0196 6.35
    endloop
  endfacet
  facet normal -0.587785 -0.809017 0
    outer loop
      vertex 12.9811 21.0196 6.35
      vertex 14.5686 19.8662 31.75
      vertex 12.9811 21.0196 31.75
    endloop
  endfacet
  facet normal -0.587785 -0.809017 -0
    outer loop
      vertex 14.5686 19.8662 31.75
      vertex 12.9811 21.0196 6.35
      vertex 14.5686 19.8662 6.35
    endloop
  endfacet
  facet normal -0.587785 0.809017 0
    outer loop
      vertex 14.5686 16.1338 6.35
      vertex 12.9811 14.9804 31.75
      vertex 14.5686 16.1338 31.75
    endloop
  endfacet
  facet normal -0.587785 0.809017 0
    outer loop
      vertex 12.9811 14.9804 31.75
      vertex 14.5686 16.1338 6.35
      vertex 12.9811 14.9804 6.35
    endloop
  endfacet
  facet normal 0.587785 0.809017 -0
    outer loop
      vertex 11.0189 14.9804 6.35
      vertex 9.43137 16.1338 31.75
      vertex 11.0189 14.9804 31.75
    endloop
  endfacet
  facet normal 0.587785 0.809017 0
    outer loop
      vertex 9.43137 16.1338 31.75
      vertex 11.0189 14.9804 6.35
      vertex 9.43137 16.1338 6.35
    endloop
  endfacet
  facet normal 0.587785 -0.809017 0
    outer loop
      vertex 9.43137 19.8662 6.35
      vertex 11.0189 21.0196 31.75
      vertex 9.43137 19.8662 31.75
    endloop
  endfacet
  facet normal 0.587785 -0.809017 0
    outer loop
      vertex 11.0189 21.0196 31.75
      vertex 9.43137 19.8662 6.35
      vertex 11.0189 21.0196 6.35
    endloop
  endfacet
  facet normal 0.951057 0.309017 0
    outer loop
      vertex 9.43137 16.1338 31.75
      vertex 8.825 18 6.35
      vertex 8.825 18 31.75
    endloop
  endfacet
  facet normal 0.951057 0.309017 0
    outer loop
      vertex 8.825 18 6.35
      vertex 9.43137 16.1338 31.75
      vertex 9.43137 16.1338 6.35
    endloop
  endfacet
  facet normal 0.951057 -0.309017 0
    outer loop
      vertex 8.825 18 31.75
      vertex 9.43137 19.8662 6.35
      vertex 9.43137 19.8662 31.75
    endloop
  endfacet
  facet normal 0.951057 -0.309017 0
    outer loop
      vertex 9.43137 19.8662 6.35
      vertex 8.825 18 31.75
      vertex 8.825 18 6.35
    endloop
  endfacet
  facet normal -0.951057 0.309017 0
    outer loop
      vertex 14.5686 16.1338 6.35
      vertex 15.175 18 31.75
      vertex 15.175 18 6.35
    endloop
  endfacet
  facet normal -0.951057 0.309017 0
    outer loop
      vertex 15.175 18 31.75
      vertex 14.5686 16.1338 6.35
      vertex 14.5686 16.1338 31.75
    endloop
  endfacet
  facet normal 0 1 -0
    outer loop
      vertex 12.9811 14.9804 6.35
      vertex 11.0189 14.9804 31.75
      vertex 12.9811 14.9804 31.75
    endloop
  endfacet
  facet normal 0 1 0
    outer loop
      vertex 11.0189 14.9804 31.75
      vertex 12.9811 14.9804 6.35
      vertex 11.0189 14.9804 6.35
    endloop
  endfacet
endsolid OpenSCAD_Model
