solid OpenSCAD_Model
  facet normal 1 0 0
    outer loop
      vertex 0 28.575 23.8125
      vertex 0 15.875 21.4312
      vertex 0 28.575 0
    endloop
  endfacet
  facet normal 1 -0 0
    outer loop
      vertex 0 3.3605 23.8125
      vertex 0 15.875 21.4312
      vertex 0 28.575 23.8125
    endloop
  endfacet
  facet normal 1 0 0
    outer loop
      vertex 0 15.875 21.4312
      vertex 0 3.3605 23.8125
      vertex 0 3.3605 21.4312
    endloop
  endfacet
  facet normal 1 -0 0
    outer loop
      vertex 0 15.875 2.38125
      vertex 0 28.575 0
      vertex 0 15.875 21.4312
    endloop
  endfacet
  facet normal 1 0 0
    outer loop
      vertex 0 3.3605 0
      vertex 0 15.875 2.38125
      vertex 0 3.3605 2.38125
    endloop
  endfacet
  facet normal 1 0 0
    outer loop
      vertex 0 15.875 2.38125
      vertex 0 3.3605 0
      vertex 0 28.575 0
    endloop
  endfacet
  facet normal 0 0 1
    outer loop
      vertex 3.175 15.875 21.4312
      vertex 4.7625 15.875 21.4312
      vertex 4.7625 28.575 21.4312
    endloop
  endfacet
  facet normal 0 0 1
    outer loop
      vertex 4.7625 15.875 21.4312
      vertex 3.175 15.875 21.4312
      vertex 4.71569 9.93311 21.4312
    endloop
  endfacet
  facet normal 0 0 1
    outer loop
      vertex 3.175 15.875 21.4312
      vertex 4.7625 28.575 21.4312
      vertex 3.175 28.575 21.4312
    endloop
  endfacet
  facet normal 0 0 1
    outer loop
      vertex 4.7625 15.875 21.4312
      vertex 7.17504 13.7901 21.4312
      vertex 7.17504 14.7849 21.4312
    endloop
  endfacet
  facet normal 0 0 1
    outer loop
      vertex 7.17504 13.7901 21.4312
      vertex 5.50944 10.5098 21.4312
      vertex 6.49056 10.5098 21.4312
    endloop
  endfacet
  facet normal 0 0 1
    outer loop
      vertex 4.7625 15.875 21.4312
      vertex 7.17504 14.7849 21.4312
      vertex 7.42245 15.7485 21.4312
    endloop
  endfacet
  facet normal -0 0 1
    outer loop
      vertex 4.7625 15.875 21.4312
      vertex 7.42245 15.7485 21.4312
      vertex 7.492 15.875 21.4312
    endloop
  endfacet
  facet normal 0 0 1
    outer loop
      vertex 7.17504 13.7901 21.4312
      vertex 4.7625 15.875 21.4312
      vertex 5.50944 10.5098 21.4312
    endloop
  endfacet
  facet normal 0 0 1
    outer loop
      vertex 5.50944 10.5098 21.4312
      vertex 4.7625 15.875 21.4312
      vertex 4.71569 9.93311 21.4312
    endloop
  endfacet
  facet normal 0 0 1
    outer loop
      vertex 6.49056 10.5098 21.4312
      vertex 7.90171 11.9547 21.4312
      vertex 7.42245 12.8265 21.4312
    endloop
  endfacet
  facet normal 0 0 1
    outer loop
      vertex 7.90171 11.9547 21.4312
      vertex 7.28431 9.93311 21.4312
      vertex 7.5875 9 21.4312
    endloop
  endfacet
  facet normal 0 0 1
    outer loop
      vertex 6.49056 10.5098 21.4312
      vertex 7.42245 12.8265 21.4312
      vertex 7.17504 13.7901 21.4312
    endloop
  endfacet
  facet normal 0 0 1
    outer loop
      vertex 7.90171 11.9547 21.4312
      vertex 6.49056 10.5098 21.4312
      vertex 7.28431 9.93311 21.4312
    endloop
  endfacet
  facet normal -0 0 1
    outer loop
      vertex 12.3389 10.513 21.4312
      vertex 12.7 7.9375 21.4312
      vertex 12.7 10.6829 21.4312
    endloop
  endfacet
  facet normal -0 0 1
    outer loop
      vertex 11.3617 10.3266 21.4312
      vertex 12.7 7.9375 21.4312
      vertex 12.3389 10.513 21.4312
    endloop
  endfacet
  facet normal 0 0 1
    outer loop
      vertex 10.3688 10.389 21.4312
      vertex 12.7 7.9375 21.4312
      vertex 11.3617 10.3266 21.4312
    endloop
  endfacet
  facet normal -0 0 1
    outer loop
      vertex 7.28431 8.06689 21.4312
      vertex 12.7 7.9375 21.4312
      vertex 10.3688 10.389 21.4312
    endloop
  endfacet
  facet normal 0 0 1
    outer loop
      vertex 12.7 7.9375 21.4312
      vertex 7.28431 8.06689 21.4312
      vertex 12.7 6.35 21.4312
    endloop
  endfacet
  facet normal 0 0 1
    outer loop
      vertex 7.5875 9 21.4312
      vertex 10.3688 10.389 21.4312
      vertex 9.42269 10.6965 21.4312
    endloop
  endfacet
  facet normal 0 0 1
    outer loop
      vertex 7.5875 9 21.4312
      vertex 9.42269 10.6965 21.4312
      vertex 8.58272 11.2295 21.4312
    endloop
  endfacet
  facet normal 0 0 1
    outer loop
      vertex 7.5875 9 21.4312
      vertex 8.58272 11.2295 21.4312
      vertex 7.90171 11.9547 21.4312
    endloop
  endfacet
  facet normal 0 0 1
    outer loop
      vertex 10.3688 10.389 21.4312
      vertex 7.5875 9 21.4312
      vertex 7.28431 8.06689 21.4312
    endloop
  endfacet
  facet normal 0 0 1
    outer loop
      vertex 12.7 6.35 21.4312
      vertex 7.28431 8.06689 21.4312
      vertex 12.7 3.175 21.4312
    endloop
  endfacet
  facet normal -0 0 1
    outer loop
      vertex 6.49056 7.4902 21.4312
      vertex 12.7 3.175 21.4312
      vertex 7.28431 8.06689 21.4312
    endloop
  endfacet
  facet normal 0 0 1
    outer loop
      vertex 0.13818 3.175 21.4312
      vertex 6.49056 7.4902 21.4312
      vertex 5.50944 7.4902 21.4312
    endloop
  endfacet
  facet normal -0 0 1
    outer loop
      vertex 0 15.875 21.4312
      vertex 4.71569 9.93311 21.4312
      vertex 3.175 15.875 21.4312
    endloop
  endfacet
  facet normal 0 0 1
    outer loop
      vertex 6.49056 7.4902 21.4312
      vertex 0.13818 3.175 21.4312
      vertex 12.7 3.175 21.4312
    endloop
  endfacet
  facet normal 0 0 1
    outer loop
      vertex 4.71569 8.06689 21.4312
      vertex 0.13818 3.175 21.4312
      vertex 5.50944 7.4902 21.4312
    endloop
  endfacet
  facet normal 0 0 1
    outer loop
      vertex 0 3.3605 21.4312
      vertex 4.71569 8.06689 21.4312
      vertex 4.4125 9 21.4312
    endloop
  endfacet
  facet normal 0 0 1
    outer loop
      vertex 4.71569 9.93311 21.4312
      vertex 0 15.875 21.4312
      vertex 4.4125 9 21.4312
    endloop
  endfacet
  facet normal 0 0 1
    outer loop
      vertex 4.71569 8.06689 21.4312
      vertex 0.005867 3.35711 21.4312
      vertex 0.13818 3.175 21.4312
    endloop
  endfacet
  facet normal 0 0 1
    outer loop
      vertex 4.4125 9 21.4312
      vertex 0 15.875 21.4312
      vertex 0 3.3605 21.4312
    endloop
  endfacet
  facet normal 0 0 1
    outer loop
      vertex 4.71569 8.06689 21.4312
      vertex 0 3.3605 21.4312
      vertex 0.005867 3.35711 21.4312
    endloop
  endfacet
  facet normal -0 0 1
    outer loop
      vertex 12.7 7.9375 21.4312
      vertex 25.4 6.35 21.4312
      vertex 25.4 7.9375 21.4312
    endloop
  endfacet
  facet normal 0 0 1
    outer loop
      vertex 25.4 6.35 21.4312
      vertex 12.7 7.9375 21.4312
      vertex 12.7 6.35 21.4312
    endloop
  endfacet
  facet normal 1 -0 0
    outer loop
      vertex 12.7 3.175 21.4312
      vertex 12.7 6.35 2.38125
      vertex 12.7 6.35 21.4312
    endloop
  endfacet
  facet normal 1 0 0
    outer loop
      vertex 12.7 6.35 2.38125
      vertex 12.7 3.175 21.4312
      vertex 12.7 3.175 2.38125
    endloop
  endfacet
  facet normal 1 -0 0
    outer loop
      vertex 12.7 7.9375 21.4312
      vertex 12.7 10.6829 2.38125
      vertex 12.7 10.6829 21.4312
    endloop
  endfacet
  facet normal 1 0 0
    outer loop
      vertex 12.7 10.6829 2.38125
      vertex 12.7 7.9375 21.4312
      vertex 12.7 7.9375 2.38125
    endloop
  endfacet
  facet normal 0 1 -0
    outer loop
      vertex 3.175 15.875 2.38125
      vertex 0 15.875 21.4312
      vertex 3.175 15.875 21.4312
    endloop
  endfacet
  facet normal 0 1 0
    outer loop
      vertex 0 15.875 21.4312
      vertex 3.175 15.875 2.38125
      vertex 0 15.875 2.38125
    endloop
  endfacet
  facet normal 0 1 -0
    outer loop
      vertex 7.492 15.875 2.38125
      vertex 4.7625 15.875 21.4312
      vertex 7.492 15.875 21.4312
    endloop
  endfacet
  facet normal 0 1 0
    outer loop
      vertex 4.7625 15.875 21.4312
      vertex 7.492 15.875 2.38125
      vertex 4.7625 15.875 2.38125
    endloop
  endfacet
  facet normal 0 0 -1
    outer loop
      vertex 7.28431 8.06689 2.38125
      vertex 12.7 6.35 2.38125
      vertex 12.7 3.175 2.38125
    endloop
  endfacet
  facet normal 0 0 -1
    outer loop
      vertex 12.7 6.35 2.38125
      vertex 7.28431 8.06689 2.38125
      vertex 12.7 7.9375 2.38125
    endloop
  endfacet
  facet normal 0 0 -1
    outer loop
      vertex 12.7 7.9375 2.38125
      vertex 12.3389 10.513 2.38125
      vertex 12.7 10.6829 2.38125
    endloop
  endfacet
  facet normal 0 0 -1
    outer loop
      vertex 12.7 7.9375 2.38125
      vertex 11.3617 10.3266 2.38125
      vertex 12.3389 10.513 2.38125
    endloop
  endfacet
  facet normal 0 -0 -1
    outer loop
      vertex 10.3688 10.389 2.38125
      vertex 12.7 7.9375 2.38125
      vertex 7.28431 8.06689 2.38125
    endloop
  endfacet
  facet normal 0 0 -1
    outer loop
      vertex 12.7 7.9375 2.38125
      vertex 10.3688 10.389 2.38125
      vertex 11.3617 10.3266 2.38125
    endloop
  endfacet
  facet normal 0 -0 -1
    outer loop
      vertex 7.5875 9 2.38125
      vertex 10.3688 10.389 2.38125
      vertex 7.28431 8.06689 2.38125
    endloop
  endfacet
  facet normal 0 0 -1
    outer loop
      vertex 7.28431 9.93311 2.38125
      vertex 9.42269 10.6965 2.38125
      vertex 7.5875 9 2.38125
    endloop
  endfacet
  facet normal -0 0 -1
    outer loop
      vertex 9.42269 10.6965 2.38125
      vertex 7.28431 9.93311 2.38125
      vertex 8.58272 11.2295 2.38125
    endloop
  endfacet
  facet normal -0 0 -1
    outer loop
      vertex 10.3688 10.389 2.38125
      vertex 7.5875 9 2.38125
      vertex 9.42269 10.6965 2.38125
    endloop
  endfacet
  facet normal 0 0 -1
    outer loop
      vertex 12.7 3.175 2.38125
      vertex 6.49056 7.4902 2.38125
      vertex 7.28431 8.06689 2.38125
    endloop
  endfacet
  facet normal 0 0 -1
    outer loop
      vertex 0.13818 3.175 2.38125
      vertex 6.49056 7.4902 2.38125
      vertex 12.7 3.175 2.38125
    endloop
  endfacet
  facet normal -0 0 -1
    outer loop
      vertex 6.49056 7.4902 2.38125
      vertex 0.13818 3.175 2.38125
      vertex 5.50944 7.4902 2.38125
    endloop
  endfacet
  facet normal 0 0 -1
    outer loop
      vertex 0.13818 3.175 2.38125
      vertex 4.71569 8.06689 2.38125
      vertex 5.50944 7.4902 2.38125
    endloop
  endfacet
  facet normal 0 0 -1
    outer loop
      vertex 0.005867 3.35711 2.38125
      vertex 4.71569 8.06689 2.38125
      vertex 0.13818 3.175 2.38125
    endloop
  endfacet
  facet normal 0 0 -1
    outer loop
      vertex 0 3.3605 2.38125
      vertex 4.71569 8.06689 2.38125
      vertex 0.005867 3.35711 2.38125
    endloop
  endfacet
  facet normal -0 0 -1
    outer loop
      vertex 4.71569 8.06689 2.38125
      vertex 0 3.3605 2.38125
      vertex 4.4125 9 2.38125
    endloop
  endfacet
  facet normal 0 0 -1
    outer loop
      vertex 0 15.875 2.38125
      vertex 4.4125 9 2.38125
      vertex 0 3.3605 2.38125
    endloop
  endfacet
  facet normal 0 0 -1
    outer loop
      vertex 4.4125 9 2.38125
      vertex 0 15.875 2.38125
      vertex 3.175 15.875 2.38125
    endloop
  endfacet
  facet normal 0 0 -1
    outer loop
      vertex 12.7 6.35 2.38125
      vertex 25.4 7.9375 2.38125
      vertex 25.4 6.35 2.38125
    endloop
  endfacet
  facet normal -0 0 -1
    outer loop
      vertex 25.4 7.9375 2.38125
      vertex 12.7 6.35 2.38125
      vertex 12.7 7.9375 2.38125
    endloop
  endfacet
  facet normal -0 0 -1
    outer loop
      vertex 8.58272 11.2295 2.38125
      vertex 7.28431 9.93311 2.38125
      vertex 7.90171 11.9547 2.38125
    endloop
  endfacet
  facet normal 0 0 -1
    outer loop
      vertex 6.49056 10.5098 2.38125
      vertex 7.90171 11.9547 2.38125
      vertex 7.28431 9.93311 2.38125
    endloop
  endfacet
  facet normal -0 0 -1
    outer loop
      vertex 7.90171 11.9547 2.38125
      vertex 6.49056 10.5098 2.38125
      vertex 7.42245 12.8265 2.38125
    endloop
  endfacet
  facet normal -0 0 -1
    outer loop
      vertex 7.42245 12.8265 2.38125
      vertex 5.50944 10.5098 2.38125
      vertex 7.17504 13.7901 2.38125
    endloop
  endfacet
  facet normal 0 0 -1
    outer loop
      vertex 5.50944 10.5098 2.38125
      vertex 7.42245 12.8265 2.38125
      vertex 6.49056 10.5098 2.38125
    endloop
  endfacet
  facet normal 0 0 -1
    outer loop
      vertex 4.7625 15.875 2.38125
      vertex 7.17504 13.7901 2.38125
      vertex 5.50944 10.5098 2.38125
    endloop
  endfacet
  facet normal 0 0 -1
    outer loop
      vertex 7.17504 13.7901 2.38125
      vertex 4.7625 15.875 2.38125
      vertex 7.17504 14.7849 2.38125
    endloop
  endfacet
  facet normal 0 0 -1
    outer loop
      vertex 7.42245 15.7485 2.38125
      vertex 4.7625 15.875 2.38125
      vertex 7.492 15.875 2.38125
    endloop
  endfacet
  facet normal 0 0 -1
    outer loop
      vertex 7.17504 14.7849 2.38125
      vertex 4.7625 15.875 2.38125
      vertex 7.42245 15.7485 2.38125
    endloop
  endfacet
  facet normal 0 0 -1
    outer loop
      vertex 3.175 15.875 2.38125
      vertex 5.50944 10.5098 2.38125
      vertex 4.71569 9.93311 2.38125
    endloop
  endfacet
  facet normal 0 0 -1
    outer loop
      vertex 5.50944 10.5098 2.38125
      vertex 3.175 15.875 2.38125
      vertex 4.7625 15.875 2.38125
    endloop
  endfacet
  facet normal 0 0 -1
    outer loop
      vertex 3.175 15.875 2.38125
      vertex 4.71569 9.93311 2.38125
      vertex 4.4125 9 2.38125
    endloop
  endfacet
  facet normal 0 0 -1
    outer loop
      vertex 4.7625 15.875 2.38125
      vertex 3.175 15.875 2.38125
      vertex 4.7625 28.575 2.38125
    endloop
  endfacet
  facet normal -0 0 -1
    outer loop
      vertex 4.7625 28.575 2.38125
      vertex 3.175 15.875 2.38125
      vertex 3.175 28.575 2.38125
    endloop
  endfacet
  facet normal 0 -1 0
    outer loop
      vertex 0.13818 3.175 2.38125
      vertex 12.7 3.175 21.4312
      vertex 0.13818 3.175 21.4312
    endloop
  endfacet
  facet normal 0 -1 -0
    outer loop
      vertex 12.7 3.175 21.4312
      vertex 0.13818 3.175 2.38125
      vertex 12.7 3.175 2.38125
    endloop
  endfacet
  facet normal 0.968583 0.24869 0
    outer loop
      vertex 7.42245 12.8265 21.4312
      vertex 7.17504 13.7901 2.38125
      vertex 7.17504 13.7901 21.4312
    endloop
  endfacet
  facet normal 0.968583 0.24869 0
    outer loop
      vertex 7.17504 13.7901 2.38125
      vertex 7.42245 12.8265 21.4312
      vertex 7.42245 12.8265 2.38125
    endloop
  endfacet
  facet normal -0.425781 0.904826 0
    outer loop
      vertex 12.7 10.6829 2.38125
      vertex 12.3389 10.513 21.4312
      vertex 12.7 10.6829 21.4312
    endloop
  endfacet
  facet normal -0.425781 0.904826 0
    outer loop
      vertex 12.3389 10.513 21.4312
      vertex 12.7 10.6829 2.38125
      vertex 12.3389 10.513 2.38125
    endloop
  endfacet
  facet normal 1 -0 0
    outer loop
      vertex 7.17504 13.7901 21.4312
      vertex 7.17504 14.7849 2.38125
      vertex 7.17504 14.7849 21.4312
    endloop
  endfacet
  facet normal 1 0 0
    outer loop
      vertex 7.17504 14.7849 2.38125
      vertex 7.17504 13.7901 21.4312
      vertex 7.17504 13.7901 2.38125
    endloop
  endfacet
  facet normal 0.876307 -0.481754 0
    outer loop
      vertex 7.42245 15.7485 21.4312
      vertex 7.492 15.875 2.38125
      vertex 7.492 15.875 21.4312
    endloop
  endfacet
  facet normal 0.876307 -0.481754 0
    outer loop
      vertex 7.492 15.875 2.38125
      vertex 7.42245 15.7485 21.4312
      vertex 7.42245 15.7485 2.38125
    endloop
  endfacet
  facet normal 0.968583 -0.24869 0
    outer loop
      vertex 7.17504 14.7849 21.4312
      vertex 7.42245 15.7485 2.38125
      vertex 7.42245 15.7485 21.4312
    endloop
  endfacet
  facet normal 0.968583 -0.24869 0
    outer loop
      vertex 7.42245 15.7485 2.38125
      vertex 7.17504 14.7849 21.4312
      vertex 7.17504 14.7849 2.38125
    endloop
  endfacet
  facet normal -0.187381 0.982287 0
    outer loop
      vertex 12.3389 10.513 2.38125
      vertex 11.3617 10.3266 21.4312
      vertex 12.3389 10.513 21.4312
    endloop
  endfacet
  facet normal -0.187381 0.982287 0
    outer loop
      vertex 11.3617 10.3266 21.4312
      vertex 12.3389 10.513 2.38125
      vertex 11.3617 10.3266 2.38125
    endloop
  endfacet
  facet normal 0.309017 0.951057 -0
    outer loop
      vertex 10.3688 10.389 2.38125
      vertex 9.42269 10.6965 21.4312
      vertex 10.3688 10.389 21.4312
    endloop
  endfacet
  facet normal 0.309017 0.951057 0
    outer loop
      vertex 9.42269 10.6965 21.4312
      vertex 10.3688 10.389 2.38125
      vertex 9.42269 10.6965 2.38125
    endloop
  endfacet
  facet normal 0.728968 0.684547 0
    outer loop
      vertex 8.58272 11.2295 21.4312
      vertex 7.90171 11.9547 2.38125
      vertex 7.90171 11.9547 21.4312
    endloop
  endfacet
  facet normal 0.728968 0.684547 0
    outer loop
      vertex 7.90171 11.9547 2.38125
      vertex 8.58272 11.2295 21.4312
      vertex 8.58272 11.2295 2.38125
    endloop
  endfacet
  facet normal 0.876307 0.481754 0
    outer loop
      vertex 7.90171 11.9547 21.4312
      vertex 7.42245 12.8265 2.38125
      vertex 7.42245 12.8265 21.4312
    endloop
  endfacet
  facet normal 0.876307 0.481754 0
    outer loop
      vertex 7.42245 12.8265 2.38125
      vertex 7.90171 11.9547 21.4312
      vertex 7.90171 11.9547 2.38125
    endloop
  endfacet
  facet normal 0.535827 0.844328 -0
    outer loop
      vertex 9.42269 10.6965 2.38125
      vertex 8.58272 11.2295 21.4312
      vertex 9.42269 10.6965 21.4312
    endloop
  endfacet
  facet normal 0.535827 0.844328 0
    outer loop
      vertex 8.58272 11.2295 21.4312
      vertex 9.42269 10.6965 2.38125
      vertex 8.58272 11.2295 2.38125
    endloop
  endfacet
  facet normal 0.062791 0.998027 -0
    outer loop
      vertex 11.3617 10.3266 2.38125
      vertex 10.3688 10.389 21.4312
      vertex 11.3617 10.3266 21.4312
    endloop
  endfacet
  facet normal 0.062791 0.998027 0
    outer loop
      vertex 10.3688 10.389 21.4312
      vertex 11.3617 10.3266 2.38125
      vertex 10.3688 10.389 2.38125
    endloop
  endfacet
  facet normal -1 0 0
    outer loop
      vertex 3.175 15.875 2.38125
      vertex 3.175 28.575 21.4312
      vertex 3.175 28.575 2.38125
    endloop
  endfacet
  facet normal -1 -0 0
    outer loop
      vertex 3.175 28.575 21.4312
      vertex 3.175 15.875 2.38125
      vertex 3.175 15.875 21.4312
    endloop
  endfacet
  facet normal 1 -0 0
    outer loop
      vertex 25.4 6.35 21.4312
      vertex 25.4 7.9375 2.38125
      vertex 25.4 7.9375 21.4312
    endloop
  endfacet
  facet normal 1 0 0
    outer loop
      vertex 25.4 7.9375 2.38125
      vertex 25.4 6.35 21.4312
      vertex 25.4 6.35 2.38125
    endloop
  endfacet
  facet normal 0 -1 0
    outer loop
      vertex 12.7 6.35 2.38125
      vertex 25.4 6.35 21.4312
      vertex 12.7 6.35 21.4312
    endloop
  endfacet
  facet normal 0 -1 -0
    outer loop
      vertex 25.4 6.35 21.4312
      vertex 12.7 6.35 2.38125
      vertex 25.4 6.35 2.38125
    endloop
  endfacet
  facet normal 0 1 -0
    outer loop
      vertex 25.4 7.9375 2.38125
      vertex 12.7 7.9375 21.4312
      vertex 25.4 7.9375 21.4312
    endloop
  endfacet
  facet normal 0 1 0
    outer loop
      vertex 12.7 7.9375 21.4312
      vertex 25.4 7.9375 2.38125
      vertex 12.7 7.9375 2.38125
    endloop
  endfacet
  facet normal 1 -0 0
    outer loop
      vertex 4.7625 15.875 21.4312
      vertex 4.7625 28.575 2.38125
      vertex 4.7625 28.575 21.4312
    endloop
  endfacet
  facet normal 1 0 0
    outer loop
      vertex 4.7625 28.575 2.38125
      vertex 4.7625 15.875 21.4312
      vertex 4.7625 15.875 2.38125
    endloop
  endfacet
  facet normal 0 1 -0
    outer loop
      vertex 4.7625 28.575 2.38125
      vertex 3.175 28.575 21.4312
      vertex 4.7625 28.575 21.4312
    endloop
  endfacet
  facet normal 0 1 0
    outer loop
      vertex 3.175 28.575 21.4312
      vertex 4.7625 28.575 2.38125
      vertex 3.175 28.575 2.38125
    endloop
  endfacet
  facet normal 0 0 1
    outer loop
      vertex -3.175 27.0557 23.8125
      vertex 0 28.575 23.8125
      vertex -0.227298 29.4972 23.8125
    endloop
  endfacet
  facet normal 0 0 1
    outer loop
      vertex 23.8489 0 23.8125
      vertex 25.4 3.13149 23.8125
      vertex 25.4 3.175 23.8125
    endloop
  endfacet
  facet normal 0 0 1
    outer loop
      vertex 25.4 3.13149 23.8125
      vertex 23.8489 0 23.8125
      vertex 24.6963 -0.664798 23.8125
    endloop
  endfacet
  facet normal 0 0 1
    outer loop
      vertex 24.6963 -0.664798 23.8125
      vertex 23.8489 0 23.8125
      vertex 23.9147 -0.125259 23.8125
    endloop
  endfacet
  facet normal 0 0 1
    outer loop
      vertex 25.4 3.175 23.8125
      vertex 17.3943 0 23.8125
      vertex 23.8489 0 23.8125
    endloop
  endfacet
  facet normal 0 0 1
    outer loop
      vertex 17.3943 0 23.8125
      vertex 16.1142 -0.779282 23.8125
      vertex 17.0023 -0.442483 23.8125
    endloop
  endfacet
  facet normal 0 0 1
    outer loop
      vertex 17.3943 0 23.8125
      vertex 15.1713 -0.664798 23.8125
      vertex 16.1142 -0.779282 23.8125
    endloop
  endfacet
  facet normal 0 0 1
    outer loop
      vertex 14.3239 0 23.8125
      vertex 17.3943 0 23.8125
      vertex 25.4 3.175 23.8125
    endloop
  endfacet
  facet normal 0 0 1
    outer loop
      vertex 17.3943 0 23.8125
      vertex 14.3239 0 23.8125
      vertex 15.1713 -0.664798 23.8125
    endloop
  endfacet
  facet normal 0 0 1
    outer loop
      vertex 15.1713 -0.664798 23.8125
      vertex 14.3239 0 23.8125
      vertex 14.3897 -0.125259 23.8125
    endloop
  endfacet
  facet normal -0 0 1
    outer loop
      vertex 0.13818 3.175 23.8125
      vertex 14.3239 0 23.8125
      vertex 25.4 3.175 23.8125
    endloop
  endfacet
  facet normal 0 0 1
    outer loop
      vertex 7.86926 0 23.8125
      vertex 6.58919 -0.779282 23.8125
      vertex 7.47725 -0.442483 23.8125
    endloop
  endfacet
  facet normal 0 0 1
    outer loop
      vertex 7.86926 0 23.8125
      vertex 5.64633 -0.664798 23.8125
      vertex 6.58919 -0.779282 23.8125
    endloop
  endfacet
  facet normal -0 0 1
    outer loop
      vertex 4.79893 0 23.8125
      vertex 5.64633 -0.664798 23.8125
      vertex 7.86926 0 23.8125
    endloop
  endfacet
  facet normal 0 0 1
    outer loop
      vertex 14.3239 0 23.8125
      vertex 0.13818 3.175 23.8125
      vertex 7.86926 0 23.8125
    endloop
  endfacet
  facet normal 0 0 1
    outer loop
      vertex 5.64633 -0.664798 23.8125
      vertex 4.79893 0 23.8125
      vertex 4.86467 -0.125259 23.8125
    endloop
  endfacet
  facet normal 0 0 1
    outer loop
      vertex 7.86926 0 23.8125
      vertex 0.13818 3.175 23.8125
      vertex 4.79893 0 23.8125
    endloop
  endfacet
  facet normal 0 0 1
    outer loop
      vertex 0.13818 3.175 23.8125
      vertex 0.13818 0 23.8125
      vertex 4.79893 0 23.8125
    endloop
  endfacet
  facet normal 0 0 1
    outer loop
      vertex 0 3.3605 23.8125
      vertex 0.13818 3.175 23.8125
      vertex 0.005867 3.35711 23.8125
    endloop
  endfacet
  facet normal -0 0 1
    outer loop
      vertex -3.175 3.29237 23.8125
      vertex 0.13818 3.175 23.8125
      vertex 0 3.3605 23.8125
    endloop
  endfacet
  facet normal 0 0 1
    outer loop
      vertex 0.13818 3.175 23.8125
      vertex -3.175 3.29237 23.8125
      vertex 0.13818 0 23.8125
    endloop
  endfacet
  facet normal 0 0 1
    outer loop
      vertex 0 28.575 23.8125
      vertex -3.175 17.5307 23.8125
      vertex 0 3.3605 23.8125
    endloop
  endfacet
  facet normal -0 0 1
    outer loop
      vertex -3.175 11.0443 23.8125
      vertex 0 3.3605 23.8125
      vertex -3.175 17.5307 23.8125
    endloop
  endfacet
  facet normal 0 0 1
    outer loop
      vertex -3.175 27.0557 23.8125
      vertex -0.227298 29.4972 23.8125
      vertex -0.857121 30.2081 23.8125
    endloop
  endfacet
  facet normal 0 0 1
    outer loop
      vertex -3.175 27.0557 23.8125
      vertex -0.857121 30.2081 23.8125
      vertex -1.74518 30.5449 23.8125
    endloop
  endfacet
  facet normal -0 0 1
    outer loop
      vertex -3.175 8.0057 23.8125
      vertex 0 3.3605 23.8125
      vertex -3.175 11.0443 23.8125
    endloop
  endfacet
  facet normal 0 0 1
    outer loop
      vertex -3.175 27.0557 23.8125
      vertex -1.74518 30.5449 23.8125
      vertex -2.68804 30.4304 23.8125
    endloop
  endfacet
  facet normal 0 0 1
    outer loop
      vertex -3.175 3.29237 23.8125
      vertex 0 3.3605 23.8125
      vertex -3.175 8.0057 23.8125
    endloop
  endfacet
  facet normal 0 0 1
    outer loop
      vertex 0 28.575 23.8125
      vertex -3.175 27.0557 23.8125
      vertex -3.175 20.5693 23.8125
    endloop
  endfacet
  facet normal -0 0 1
    outer loop
      vertex -3.4697 29.8909 23.8125
      vertex -3.175 27.0557 23.8125
      vertex -2.68804 30.4304 23.8125
    endloop
  endfacet
  facet normal -0 0 1
    outer loop
      vertex -3.91109 29.0499 23.8125
      vertex -3.175 27.0557 23.8125
      vertex -3.4697 29.8909 23.8125
    endloop
  endfacet
  facet normal -0 0 1
    outer loop
      vertex -3.91109 28.1001 23.8125
      vertex -3.175 27.0557 23.8125
      vertex -3.91109 29.0499 23.8125
    endloop
  endfacet
  facet normal 0 0 1
    outer loop
      vertex -3.175 27.0557 23.8125
      vertex -3.91109 28.1001 23.8125
      vertex -3.4697 27.2591 23.8125
    endloop
  endfacet
  facet normal 0 0 1
    outer loop
      vertex 25.4 3.13149 23.8125
      vertex 27.3844 1.19062 23.8125
      vertex 27.1571 2.11281 23.8125
    endloop
  endfacet
  facet normal 0 0 1
    outer loop
      vertex 25.4 3.13149 23.8125
      vertex 27.1571 2.11281 23.8125
      vertex 26.5273 2.82373 23.8125
    endloop
  endfacet
  facet normal 0 0 1
    outer loop
      vertex 27.3844 1.19062 23.8125
      vertex 25.4 3.13149 23.8125
      vertex 27.1571 0.26844 23.8125
    endloop
  endfacet
  facet normal -0 0 1
    outer loop
      vertex 25.4 3.13149 23.8125
      vertex 26.5273 2.82373 23.8125
      vertex 25.6392 3.16053 23.8125
    endloop
  endfacet
  facet normal 0 0 1
    outer loop
      vertex 27.1571 0.26844 23.8125
      vertex 25.4 3.13149 23.8125
      vertex 26.5273 -0.442483 23.8125
    endloop
  endfacet
  facet normal 0 0 1
    outer loop
      vertex 26.5273 -0.442483 23.8125
      vertex 25.4 3.13149 23.8125
      vertex 25.6392 -0.779282 23.8125
    endloop
  endfacet
  facet normal 0 0 1
    outer loop
      vertex 25.6392 -0.779282 23.8125
      vertex 25.4 3.13149 23.8125
      vertex 24.6963 -0.664798 23.8125
    endloop
  endfacet
  facet normal 0 0 1
    outer loop
      vertex -3.91109 9.99989 23.8125
      vertex -3.175 11.0443 23.8125
      vertex -3.4697 10.8409 23.8125
    endloop
  endfacet
  facet normal 0 0 1
    outer loop
      vertex -3.175 11.0443 23.8125
      vertex -3.91109 9.99989 23.8125
      vertex -3.175 8.0057 23.8125
    endloop
  endfacet
  facet normal -0 0 1
    outer loop
      vertex -3.91109 9.05011 23.8125
      vertex -3.175 8.0057 23.8125
      vertex -3.91109 9.99989 23.8125
    endloop
  endfacet
  facet normal 0 0 1
    outer loop
      vertex -3.175 8.0057 23.8125
      vertex -3.91109 9.05011 23.8125
      vertex -3.4697 8.20912 23.8125
    endloop
  endfacet
  facet normal 0 0 1
    outer loop
      vertex -3.91109 19.5249 23.8125
      vertex -3.175 20.5693 23.8125
      vertex -3.4697 20.3659 23.8125
    endloop
  endfacet
  facet normal 0 0 1
    outer loop
      vertex -3.175 20.5693 23.8125
      vertex -3.91109 19.5249 23.8125
      vertex -3.175 17.5307 23.8125
    endloop
  endfacet
  facet normal -0 0 1
    outer loop
      vertex -3.91109 18.5751 23.8125
      vertex -3.175 17.5307 23.8125
      vertex -3.91109 19.5249 23.8125
    endloop
  endfacet
  facet normal 0 0 1
    outer loop
      vertex -3.175 17.5307 23.8125
      vertex -3.91109 18.5751 23.8125
      vertex -3.4697 17.7341 23.8125
    endloop
  endfacet
  facet normal 0 0 1
    outer loop
      vertex 0 28.575 23.8125
      vertex -3.175 20.5693 23.8125
      vertex -3.175 17.5307 23.8125
    endloop
  endfacet
  facet normal 0 -0 1
    outer loop
      vertex -1.83641 -0.780705 23.8125
      vertex 0.13818 0 23.8125
      vertex -3.175 3.29237 23.8125
    endloop
  endfacet
  facet normal 0 0 1
    outer loop
      vertex 0.13818 0 23.8125
      vertex -0.851653 -0.677203 23.8125
      vertex 0.005867 -0.182113 23.8125
    endloop
  endfacet
  facet normal 0 0 1
    outer loop
      vertex 0.13818 0 23.8125
      vertex -1.83641 -0.780705 23.8125
      vertex -0.851653 -0.677203 23.8125
    endloop
  endfacet
  facet normal 0 0 1
    outer loop
      vertex -1.83641 -0.780705 23.8125
      vertex -3.175 3.29237 23.8125
      vertex -2.77812 -0.474723 23.8125
    endloop
  endfacet
  facet normal 0 0 1
    outer loop
      vertex -3.91671 2.08259 23.8125
      vertex -3.175 3.29237 23.8125
      vertex -3.51397 2.98716 23.8125
    endloop
  endfacet
  facet normal 0 0 1
    outer loop
      vertex -3.175 3.29237 23.8125
      vertex -3.51397 0.187836 23.8125
      vertex -2.77812 -0.474723 23.8125
    endloop
  endfacet
  facet normal 0 0 1
    outer loop
      vertex -3.91671 1.09241 23.8125
      vertex -3.175 3.29237 23.8125
      vertex -3.91671 2.08259 23.8125
    endloop
  endfacet
  facet normal 0 0 1
    outer loop
      vertex -3.175 3.29237 23.8125
      vertex -3.91671 1.09241 23.8125
      vertex -3.51397 0.187836 23.8125
    endloop
  endfacet
  facet normal 1 -0 0
    outer loop
      vertex 25.4 3.13149 23.8125
      vertex 25.4 3.175 0
      vertex 25.4 3.175 23.8125
    endloop
  endfacet
  facet normal 1 0 0
    outer loop
      vertex 25.4 3.175 0
      vertex 25.4 3.13149 23.8125
      vertex 25.4 3.13149 0
    endloop
  endfacet
  facet normal 0 1 -0
    outer loop
      vertex 25.4 3.175 0
      vertex 0.13818 3.175 23.8125
      vertex 25.4 3.175 23.8125
    endloop
  endfacet
  facet normal 0 1 0
    outer loop
      vertex 0.13818 3.175 23.8125
      vertex 25.4 3.175 0
      vertex 0.13818 3.175 0
    endloop
  endfacet
  facet normal 0 0 -1
    outer loop
      vertex -3.91109 18.5751 0
      vertex -3.175 17.5307 0
      vertex -3.4697 17.7341 0
    endloop
  endfacet
  facet normal 0 0 -1
    outer loop
      vertex -3.175 17.5307 0
      vertex -3.91109 18.5751 0
      vertex -3.175 20.5693 0
    endloop
  endfacet
  facet normal 0 0 -1
    outer loop
      vertex -3.91109 19.5249 0
      vertex -3.175 20.5693 0
      vertex -3.91109 18.5751 0
    endloop
  endfacet
  facet normal 0 0 -1
    outer loop
      vertex -3.175 20.5693 0
      vertex -3.91109 19.5249 0
      vertex -3.4697 20.3659 0
    endloop
  endfacet
  facet normal 0 0 -1
    outer loop
      vertex -3.91109 9.05011 0
      vertex -3.175 8.0057 0
      vertex -3.4697 8.20912 0
    endloop
  endfacet
  facet normal 0 0 -1
    outer loop
      vertex -3.175 8.0057 0
      vertex -3.91109 9.05011 0
      vertex -3.175 11.0443 0
    endloop
  endfacet
  facet normal 0 0 -1
    outer loop
      vertex -3.91109 9.99989 0
      vertex -3.175 11.0443 0
      vertex -3.91109 9.05011 0
    endloop
  endfacet
  facet normal 0 0 -1
    outer loop
      vertex -3.175 11.0443 0
      vertex -3.91109 9.99989 0
      vertex -3.4697 10.8409 0
    endloop
  endfacet
  facet normal 0 0 -1
    outer loop
      vertex -3.51397 0.187836 0
      vertex -3.175 3.29237 0
      vertex -2.77812 -0.474723 0
    endloop
  endfacet
  facet normal 0 0 -1
    outer loop
      vertex -3.91671 1.09241 0
      vertex -3.175 3.29237 0
      vertex -3.51397 0.187836 0
    endloop
  endfacet
  facet normal 0 0 -1
    outer loop
      vertex -3.91671 2.08259 0
      vertex -3.175 3.29237 0
      vertex -3.91671 1.09241 0
    endloop
  endfacet
  facet normal 0 0 -1
    outer loop
      vertex -3.175 3.29237 0
      vertex -3.91671 2.08259 0
      vertex -3.51397 2.98716 0
    endloop
  endfacet
  facet normal 0 0 -1
    outer loop
      vertex 25.4 3.13149 0
      vertex 27.3844 1.19062 0
      vertex 27.1571 0.26844 0
    endloop
  endfacet
  facet normal 0 0 -1
    outer loop
      vertex 25.4 3.13149 0
      vertex 27.1571 0.26844 0
      vertex 26.5273 -0.442483 0
    endloop
  endfacet
  facet normal 0 0 -1
    outer loop
      vertex 27.3844 1.19062 0
      vertex 25.4 3.13149 0
      vertex 27.1571 2.11281 0
    endloop
  endfacet
  facet normal 0 0 -1
    outer loop
      vertex 25.4 3.13149 0
      vertex 26.5273 -0.442483 0
      vertex 25.6392 -0.779282 0
    endloop
  endfacet
  facet normal 0 0 -1
    outer loop
      vertex 27.1571 2.11281 0
      vertex 25.4 3.13149 0
      vertex 26.5273 2.82373 0
    endloop
  endfacet
  facet normal 0 0 -1
    outer loop
      vertex 26.5273 2.82373 0
      vertex 25.4 3.13149 0
      vertex 25.6392 3.16053 0
    endloop
  endfacet
  facet normal 0 0 -1
    outer loop
      vertex 23.8489 0 0
      vertex 25.6392 -0.779282 0
      vertex 24.6963 -0.664798 0
    endloop
  endfacet
  facet normal 0 0 -1
    outer loop
      vertex 25.6392 -0.779282 0
      vertex 23.8489 0 0
      vertex 25.4 3.13149 0
    endloop
  endfacet
  facet normal 0 0 -1
    outer loop
      vertex 23.8489 0 0
      vertex 24.6963 -0.664798 0
      vertex 23.9147 -0.125259 0
    endloop
  endfacet
  facet normal -0 0 -1
    outer loop
      vertex 25.4 3.13149 0
      vertex 23.8489 0 0
      vertex 25.4 3.175 0
    endloop
  endfacet
  facet normal 0 0 -1
    outer loop
      vertex 17.3943 0 0
      vertex 25.4 3.175 0
      vertex 23.8489 0 0
    endloop
  endfacet
  facet normal 0 0 -1
    outer loop
      vertex 16.1142 -0.779282 0
      vertex 17.3943 0 0
      vertex 17.0023 -0.442483 0
    endloop
  endfacet
  facet normal 0 0 -1
    outer loop
      vertex 15.1713 -0.664798 0
      vertex 17.3943 0 0
      vertex 16.1142 -0.779282 0
    endloop
  endfacet
  facet normal 0 0 -1
    outer loop
      vertex 14.3239 0 0
      vertex 17.3943 0 0
      vertex 15.1713 -0.664798 0
    endloop
  endfacet
  facet normal 0 0 -1
    outer loop
      vertex 14.3239 0 0
      vertex 15.1713 -0.664798 0
      vertex 14.3897 -0.125259 0
    endloop
  endfacet
  facet normal 0 0 -1
    outer loop
      vertex 17.3943 0 0
      vertex 14.3239 0 0
      vertex 25.4 3.175 0
    endloop
  endfacet
  facet normal 0 0 -1
    outer loop
      vertex 0.13818 3.175 0
      vertex 14.3239 0 0
      vertex 7.86926 0 0
    endloop
  endfacet
  facet normal 0 0 -1
    outer loop
      vertex 6.58919 -0.779282 0
      vertex 7.86926 0 0
      vertex 7.47725 -0.442483 0
    endloop
  endfacet
  facet normal 0 0 -1
    outer loop
      vertex 5.64633 -0.664798 0
      vertex 7.86926 0 0
      vertex 6.58919 -0.779282 0
    endloop
  endfacet
  facet normal 0 0 -1
    outer loop
      vertex 4.79893 0 0
      vertex 5.64633 -0.664798 0
      vertex 4.86467 -0.125259 0
    endloop
  endfacet
  facet normal 0 0 -1
    outer loop
      vertex 5.64633 -0.664798 0
      vertex 4.79893 0 0
      vertex 7.86926 0 0
    endloop
  endfacet
  facet normal 0 0 -1
    outer loop
      vertex 0.13818 3.175 0
      vertex 7.86926 0 0
      vertex 4.79893 0 0
    endloop
  endfacet
  facet normal 0 0 -1
    outer loop
      vertex 14.3239 0 0
      vertex 0.13818 3.175 0
      vertex 25.4 3.175 0
    endloop
  endfacet
  facet normal 0 0 -1
    outer loop
      vertex 0.13818 0 0
      vertex 0.13818 3.175 0
      vertex 4.79893 0 0
    endloop
  endfacet
  facet normal 0 0 -1
    outer loop
      vertex -0.851653 -0.677203 0
      vertex 0.13818 0 0
      vertex 0.005867 -0.182113 0
    endloop
  endfacet
  facet normal 0 0 -1
    outer loop
      vertex 0.13818 0 0
      vertex -3.175 3.29237 0
      vertex 0.13818 3.175 0
    endloop
  endfacet
  facet normal 0 0 -1
    outer loop
      vertex 0.13818 3.175 0
      vertex 0 3.3605 0
      vertex 0.005867 3.35711 0
    endloop
  endfacet
  facet normal 0 0 -1
    outer loop
      vertex -3.175 17.5307 0
      vertex 0 28.575 0
      vertex 0 3.3605 0
    endloop
  endfacet
  facet normal 0 0 -1
    outer loop
      vertex 0.13818 3.175 0
      vertex -3.175 3.29237 0
      vertex 0 3.3605 0
    endloop
  endfacet
  facet normal 0 0 -1
    outer loop
      vertex -1.83641 -0.780705 0
      vertex 0.13818 0 0
      vertex -0.851653 -0.677203 0
    endloop
  endfacet
  facet normal 0 0 -1
    outer loop
      vertex 0 3.3605 0
      vertex -3.175 11.0443 0
      vertex -3.175 17.5307 0
    endloop
  endfacet
  facet normal 0 0 -1
    outer loop
      vertex -3.175 27.0557 0
      vertex 0 28.575 0
      vertex -3.175 20.5693 0
    endloop
  endfacet
  facet normal -0 0 -1
    outer loop
      vertex 0.13818 0 0
      vertex -1.83641 -0.780705 0
      vertex -3.175 3.29237 0
    endloop
  endfacet
  facet normal -0 0 -1
    outer loop
      vertex 0 28.575 0
      vertex -3.175 27.0557 0
      vertex -0.227298 29.4972 0
    endloop
  endfacet
  facet normal 0 0 -1
    outer loop
      vertex -3.175 3.29237 0
      vertex -1.83641 -0.780705 0
      vertex -2.77812 -0.474723 0
    endloop
  endfacet
  facet normal -0 0 -1
    outer loop
      vertex 0 3.3605 0
      vertex -3.175 3.29237 0
      vertex -3.175 8.0057 0
    endloop
  endfacet
  facet normal 0 0 -1
    outer loop
      vertex 0 3.3605 0
      vertex -3.175 8.0057 0
      vertex -3.175 11.0443 0
    endloop
  endfacet
  facet normal 0 0 -1
    outer loop
      vertex -3.175 20.5693 0
      vertex 0 28.575 0
      vertex -3.175 17.5307 0
    endloop
  endfacet
  facet normal -0 0 -1
    outer loop
      vertex -0.227298 29.4972 0
      vertex -3.175 27.0557 0
      vertex -0.857121 30.2081 0
    endloop
  endfacet
  facet normal -0 0 -1
    outer loop
      vertex -0.857121 30.2081 0
      vertex -3.175 27.0557 0
      vertex -1.74518 30.5449 0
    endloop
  endfacet
  facet normal 0 0 -1
    outer loop
      vertex -1.74518 30.5449 0
      vertex -3.175 27.0557 0
      vertex -2.68804 30.4304 0
    endloop
  endfacet
  facet normal 0 0 -1
    outer loop
      vertex -3.91109 28.1001 0
      vertex -3.175 27.0557 0
      vertex -3.4697 27.2591 0
    endloop
  endfacet
  facet normal 0 0 -1
    outer loop
      vertex -3.175 27.0557 0
      vertex -3.4697 29.8909 0
      vertex -2.68804 30.4304 0
    endloop
  endfacet
  facet normal 0 0 -1
    outer loop
      vertex -3.91109 29.0499 0
      vertex -3.175 27.0557 0
      vertex -3.91109 28.1001 0
    endloop
  endfacet
  facet normal 0 0 -1
    outer loop
      vertex -3.175 27.0557 0
      vertex -3.91109 29.0499 0
      vertex -3.4697 29.8909 0
    endloop
  endfacet
  facet normal 0 -1 0
    outer loop
      vertex 0.13818 0 0
      vertex 4.79893 0 23.8125
      vertex 0.13818 0 23.8125
    endloop
  endfacet
  facet normal 0 -1 -0
    outer loop
      vertex 4.79893 0 23.8125
      vertex 0.13818 0 0
      vertex 4.79893 0 0
    endloop
  endfacet
  facet normal 0 -1 0
    outer loop
      vertex 7.86926 0 0
      vertex 14.3239 0 23.8125
      vertex 7.86926 0 23.8125
    endloop
  endfacet
  facet normal 0 -1 -0
    outer loop
      vertex 14.3239 0 23.8125
      vertex 7.86926 0 0
      vertex 14.3239 0 0
    endloop
  endfacet
  facet normal 0 -1 0
    outer loop
      vertex 17.3943 0 0
      vertex 23.8489 0 23.8125
      vertex 17.3943 0 23.8125
    endloop
  endfacet
  facet normal 0 -1 -0
    outer loop
      vertex 23.8489 0 23.8125
      vertex 17.3943 0 0
      vertex 23.8489 0 0
    endloop
  endfacet
  facet normal -1 0 0
    outer loop
      vertex -3.175 3.29237 0
      vertex -3.175 8.0057 23.8125
      vertex -3.175 8.0057 0
    endloop
  endfacet
  facet normal -1 -0 0
    outer loop
      vertex -3.175 8.0057 23.8125
      vertex -3.175 3.29237 0
      vertex -3.175 3.29237 23.8125
    endloop
  endfacet
  facet normal -1 0 0
    outer loop
      vertex -3.175 11.0443 0
      vertex -3.175 17.5307 23.8125
      vertex -3.175 17.5307 0
    endloop
  endfacet
  facet normal -1 -0 0
    outer loop
      vertex -3.175 17.5307 23.8125
      vertex -3.175 11.0443 0
      vertex -3.175 11.0443 23.8125
    endloop
  endfacet
  facet normal -1 0 0
    outer loop
      vertex -3.175 20.5693 0
      vertex -3.175 27.0557 23.8125
      vertex -3.175 27.0557 0
    endloop
  endfacet
  facet normal -1 -0 0
    outer loop
      vertex -3.175 27.0557 23.8125
      vertex -3.175 20.5693 0
      vertex -3.175 20.5693 23.8125
    endloop
  endfacet
  facet normal -1 0 0
    outer loop
      vertex -3.91671 1.09241 0
      vertex -3.91671 2.08259 23.8125
      vertex -3.91671 2.08259 0
    endloop
  endfacet
  facet normal -1 -0 0
    outer loop
      vertex -3.91671 2.08259 23.8125
      vertex -3.91671 1.09241 0
      vertex -3.91671 1.09241 23.8125
    endloop
  endfacet
  facet normal 0.809017 0.587785 0
    outer loop
      vertex 0.005867 3.35711 23.8125
      vertex 0.13818 3.175 21.4312
      vertex 0.005867 3.35711 21.4312
    endloop
  endfacet
  facet normal 0.752577 0.658505 0
    outer loop
      vertex 0.13818 3.175 21.4312
      vertex 0.13818 3.175 23.8125
      vertex 0.13818 3.175 2.38125
    endloop
  endfacet
  facet normal 0.809017 0.587785 -1.20253e-08
    outer loop
      vertex 0.13818 3.175 23.8125
      vertex 0.13818 3.175 21.4312
      vertex 0.005867 3.35711 23.8125
    endloop
  endfacet
  facet normal 0.809017 0.587785 0
    outer loop
      vertex 0.13818 3.175 2.38125
      vertex 0.005867 3.35711 0
      vertex 0.005867 3.35711 2.38125
    endloop
  endfacet
  facet normal 0.809017 0.587785 1.20253e-08
    outer loop
      vertex 0.13818 3.175 2.38125
      vertex 0.13818 3.175 0
      vertex 0.005867 3.35711 0
    endloop
  endfacet
  facet normal 0.752577 0.658505 -0
    outer loop
      vertex 0.13818 3.175 0
      vertex 0.13818 3.175 2.38125
      vertex 0.13818 3.175 23.8125
    endloop
  endfacet
  facet normal 0.5 -0.866025 0
    outer loop
      vertex -0.851653 -0.677203 0
      vertex 0.005867 -0.182113 23.8125
      vertex -0.851653 -0.677203 23.8125
    endloop
  endfacet
  facet normal 0.5 -0.866025 0
    outer loop
      vertex 0.005867 -0.182113 23.8125
      vertex -0.851653 -0.677203 0
      vertex 0.005867 -0.182113 0
    endloop
  endfacet
  facet normal 0.104528 -0.994522 0
    outer loop
      vertex -1.83641 -0.780705 0
      vertex -0.851653 -0.677203 23.8125
      vertex -1.83641 -0.780705 23.8125
    endloop
  endfacet
  facet normal 0.104528 -0.994522 0
    outer loop
      vertex -0.851653 -0.677203 23.8125
      vertex -1.83641 -0.780705 0
      vertex -0.851653 -0.677203 0
    endloop
  endfacet
  facet normal 0.499989 0.866032 -0
    outer loop
      vertex 0.005867 3.35711 0
      vertex 0 3.3605 2.38125
      vertex 0.005867 3.35711 2.38125
    endloop
  endfacet
  facet normal 0.499989 0.866032 0
    outer loop
      vertex 0 3.3605 2.38125
      vertex 0.005867 3.35711 0
      vertex 0 3.3605 0
    endloop
  endfacet
  facet normal 0.499989 0.866032 -0
    outer loop
      vertex 0.005867 3.35711 21.4312
      vertex 0 3.3605 23.8125
      vertex 0.005867 3.35711 23.8125
    endloop
  endfacet
  facet normal 0.499989 0.866032 0
    outer loop
      vertex 0 3.3605 23.8125
      vertex 0.005867 3.35711 21.4312
      vertex 0 3.3605 21.4312
    endloop
  endfacet
  facet normal -0.66913 0.743145 0
    outer loop
      vertex -3.175 3.29237 0
      vertex -3.51397 2.98716 23.8125
      vertex -3.175 3.29237 23.8125
    endloop
  endfacet
  facet normal -0.66913 0.743145 0
    outer loop
      vertex -3.51397 2.98716 23.8125
      vertex -3.175 3.29237 0
      vertex -3.51397 2.98716 0
    endloop
  endfacet
  facet normal -0.913545 -0.406737 0
    outer loop
      vertex -3.51397 0.187836 0
      vertex -3.91671 1.09241 23.8125
      vertex -3.91671 1.09241 0
    endloop
  endfacet
  facet normal -0.913545 -0.406737 0
    outer loop
      vertex -3.91671 1.09241 23.8125
      vertex -3.51397 0.187836 0
      vertex -3.51397 0.187836 23.8125
    endloop
  endfacet
  facet normal -0.309017 -0.951057 0
    outer loop
      vertex -2.77812 -0.474723 0
      vertex -1.83641 -0.780705 23.8125
      vertex -2.77812 -0.474723 23.8125
    endloop
  endfacet
  facet normal -0.309017 -0.951057 -0
    outer loop
      vertex -1.83641 -0.780705 23.8125
      vertex -2.77812 -0.474723 0
      vertex -1.83641 -0.780705 0
    endloop
  endfacet
  facet normal -0.913545 0.406737 0
    outer loop
      vertex -3.91671 2.08259 0
      vertex -3.51397 2.98716 23.8125
      vertex -3.51397 2.98716 0
    endloop
  endfacet
  facet normal -0.913545 0.406737 0
    outer loop
      vertex -3.51397 2.98716 23.8125
      vertex -3.91671 2.08259 0
      vertex -3.91671 2.08259 23.8125
    endloop
  endfacet
  facet normal 0.809017 -0.587786 0
    outer loop
      vertex 0.005867 -0.182113 23.8125
      vertex 0.13818 0 0
      vertex 0.13818 0 23.8125
    endloop
  endfacet
  facet normal 0.809017 -0.587786 0
    outer loop
      vertex 0.13818 0 0
      vertex 0.005867 -0.182113 23.8125
      vertex 0.005867 -0.182113 0
    endloop
  endfacet
  facet normal -0.669131 -0.743145 0
    outer loop
      vertex -3.51397 0.187836 0
      vertex -2.77812 -0.474723 23.8125
      vertex -3.51397 0.187836 23.8125
    endloop
  endfacet
  facet normal -0.669131 -0.743145 -0
    outer loop
      vertex -2.77812 -0.474723 23.8125
      vertex -3.51397 0.187836 0
      vertex -2.77812 -0.474723 0
    endloop
  endfacet
  facet normal 0.970942 0.239316 0
    outer loop
      vertex 0 28.575 23.8125
      vertex -0.227298 29.4972 0
      vertex -0.227298 29.4972 23.8125
    endloop
  endfacet
  facet normal 0.970942 0.239316 0
    outer loop
      vertex -0.227298 29.4972 0
      vertex 0 28.575 23.8125
      vertex 0 28.575 0
    endloop
  endfacet
  facet normal -1 0 0
    outer loop
      vertex -3.91109 28.1001 0
      vertex -3.91109 29.0499 23.8125
      vertex -3.91109 29.0499 0
    endloop
  endfacet
  facet normal -1 -0 0
    outer loop
      vertex -3.91109 29.0499 23.8125
      vertex -3.91109 28.1001 0
      vertex -3.91109 28.1001 23.8125
    endloop
  endfacet
  facet normal -0.120536 0.992709 0
    outer loop
      vertex -1.74518 30.5449 0
      vertex -2.68804 30.4304 23.8125
      vertex -1.74518 30.5449 23.8125
    endloop
  endfacet
  facet normal -0.120536 0.992709 0
    outer loop
      vertex -2.68804 30.4304 23.8125
      vertex -1.74518 30.5449 0
      vertex -2.68804 30.4304 0
    endloop
  endfacet
  facet normal -0.885456 -0.464723 0
    outer loop
      vertex -3.4697 27.2591 0
      vertex -3.91109 28.1001 23.8125
      vertex -3.91109 28.1001 0
    endloop
  endfacet
  facet normal -0.885456 -0.464723 0
    outer loop
      vertex -3.91109 28.1001 23.8125
      vertex -3.4697 27.2591 0
      vertex -3.4697 27.2591 23.8125
    endloop
  endfacet
  facet normal 0.354605 0.935016 -0
    outer loop
      vertex -0.857121 30.2081 0
      vertex -1.74518 30.5449 23.8125
      vertex -0.857121 30.2081 23.8125
    endloop
  endfacet
  facet normal 0.354605 0.935016 0
    outer loop
      vertex -1.74518 30.5449 23.8125
      vertex -0.857121 30.2081 0
      vertex -1.74518 30.5449 0
    endloop
  endfacet
  facet normal 0.748511 0.663123 0
    outer loop
      vertex -0.227298 29.4972 23.8125
      vertex -0.857121 30.2081 0
      vertex -0.857121 30.2081 23.8125
    endloop
  endfacet
  facet normal 0.748511 0.663123 0
    outer loop
      vertex -0.857121 30.2081 0
      vertex -0.227298 29.4972 23.8125
      vertex -0.227298 29.4972 0
    endloop
  endfacet
  facet normal -0.568065 0.822984 0
    outer loop
      vertex -2.68804 30.4304 0
      vertex -3.4697 29.8909 23.8125
      vertex -2.68804 30.4304 23.8125
    endloop
  endfacet
  facet normal -0.568065 0.822984 0
    outer loop
      vertex -3.4697 29.8909 23.8125
      vertex -2.68804 30.4304 0
      vertex -3.4697 29.8909 0
    endloop
  endfacet
  facet normal -0.885456 0.464723 0
    outer loop
      vertex -3.91109 29.0499 0
      vertex -3.4697 29.8909 23.8125
      vertex -3.4697 29.8909 0
    endloop
  endfacet
  facet normal -0.885456 0.464723 0
    outer loop
      vertex -3.4697 29.8909 23.8125
      vertex -3.91109 29.0499 0
      vertex -3.91109 29.0499 23.8125
    endloop
  endfacet
  facet normal -0.568064 -0.822985 0
    outer loop
      vertex -3.4697 27.2591 0
      vertex -3.175 27.0557 23.8125
      vertex -3.4697 27.2591 23.8125
    endloop
  endfacet
  facet normal -0.568064 -0.822985 -0
    outer loop
      vertex -3.175 27.0557 23.8125
      vertex -3.4697 27.2591 0
      vertex -3.175 27.0557 0
    endloop
  endfacet
  facet normal -1 0 0
    outer loop
      vertex -3.91109 18.5751 0
      vertex -3.91109 19.5249 23.8125
      vertex -3.91109 19.5249 0
    endloop
  endfacet
  facet normal -1 -0 0
    outer loop
      vertex -3.91109 19.5249 23.8125
      vertex -3.91109 18.5751 0
      vertex -3.91109 18.5751 23.8125
    endloop
  endfacet
  facet normal -0.885456 -0.464723 0
    outer loop
      vertex -3.4697 17.7341 0
      vertex -3.91109 18.5751 23.8125
      vertex -3.91109 18.5751 0
    endloop
  endfacet
  facet normal -0.885456 -0.464723 0
    outer loop
      vertex -3.91109 18.5751 23.8125
      vertex -3.4697 17.7341 0
      vertex -3.4697 17.7341 23.8125
    endloop
  endfacet
  facet normal -0.568067 0.822982 0
    outer loop
      vertex -3.175 20.5693 0
      vertex -3.4697 20.3659 23.8125
      vertex -3.175 20.5693 23.8125
    endloop
  endfacet
  facet normal -0.568067 0.822982 0
    outer loop
      vertex -3.4697 20.3659 23.8125
      vertex -3.175 20.5693 0
      vertex -3.4697 20.3659 0
    endloop
  endfacet
  facet normal -0.885456 0.464723 0
    outer loop
      vertex -3.91109 19.5249 0
      vertex -3.4697 20.3659 23.8125
      vertex -3.4697 20.3659 0
    endloop
  endfacet
  facet normal -0.885456 0.464723 0
    outer loop
      vertex -3.4697 20.3659 23.8125
      vertex -3.91109 19.5249 0
      vertex -3.91109 19.5249 23.8125
    endloop
  endfacet
  facet normal -0.568064 -0.822985 0
    outer loop
      vertex -3.4697 17.7341 0
      vertex -3.175 17.5307 23.8125
      vertex -3.4697 17.7341 23.8125
    endloop
  endfacet
  facet normal -0.568064 -0.822985 -0
    outer loop
      vertex -3.175 17.5307 23.8125
      vertex -3.4697 17.7341 0
      vertex -3.175 17.5307 0
    endloop
  endfacet
  facet normal -1 0 0
    outer loop
      vertex -3.91109 9.05011 0
      vertex -3.91109 9.99989 23.8125
      vertex -3.91109 9.99989 0
    endloop
  endfacet
  facet normal -1 -0 0
    outer loop
      vertex -3.91109 9.99989 23.8125
      vertex -3.91109 9.05011 0
      vertex -3.91109 9.05011 23.8125
    endloop
  endfacet
  facet normal -0.885456 0.464723 0
    outer loop
      vertex -3.91109 9.99989 0
      vertex -3.4697 10.8409 23.8125
      vertex -3.4697 10.8409 0
    endloop
  endfacet
  facet normal -0.885456 0.464723 0
    outer loop
      vertex -3.4697 10.8409 23.8125
      vertex -3.91109 9.99989 0
      vertex -3.91109 9.99989 23.8125
    endloop
  endfacet
  facet normal -0.568065 0.822983 0
    outer loop
      vertex -3.175 11.0443 0
      vertex -3.4697 10.8409 23.8125
      vertex -3.175 11.0443 23.8125
    endloop
  endfacet
  facet normal -0.568065 0.822983 0
    outer loop
      vertex -3.4697 10.8409 23.8125
      vertex -3.175 11.0443 0
      vertex -3.4697 10.8409 0
    endloop
  endfacet
  facet normal -0.885456 -0.464723 0
    outer loop
      vertex -3.4697 8.20912 0
      vertex -3.91109 9.05011 23.8125
      vertex -3.91109 9.05011 0
    endloop
  endfacet
  facet normal -0.885456 -0.464723 0
    outer loop
      vertex -3.91109 9.05011 23.8125
      vertex -3.4697 8.20912 0
      vertex -3.4697 8.20912 23.8125
    endloop
  endfacet
  facet normal -0.568065 -0.822983 0
    outer loop
      vertex -3.4697 8.20912 0
      vertex -3.175 8.0057 23.8125
      vertex -3.4697 8.20912 23.8125
    endloop
  endfacet
  facet normal -0.568065 -0.822983 -0
    outer loop
      vertex -3.175 8.0057 23.8125
      vertex -3.4697 8.20912 0
      vertex -3.175 8.0057 0
    endloop
  endfacet
  facet normal 0.970942 0.239316 0
    outer loop
      vertex 27.3844 1.19062 23.8125
      vertex 27.1571 2.11281 0
      vertex 27.1571 2.11281 23.8125
    endloop
  endfacet
  facet normal 0.970942 0.239316 0
    outer loop
      vertex 27.1571 2.11281 0
      vertex 27.3844 1.19062 23.8125
      vertex 27.3844 1.19062 0
    endloop
  endfacet
  facet normal -0.120536 0.992709 0
    outer loop
      vertex 25.6392 3.16053 0
      vertex 25.4 3.13149 23.8125
      vertex 25.6392 3.16053 23.8125
    endloop
  endfacet
  facet normal -0.120536 0.992709 0
    outer loop
      vertex 25.4 3.13149 23.8125
      vertex 25.6392 3.16053 0
      vertex 25.4 3.13149 0
    endloop
  endfacet
  facet normal 0.354606 -0.935016 0
    outer loop
      vertex 25.6392 -0.779282 0
      vertex 26.5273 -0.442483 23.8125
      vertex 25.6392 -0.779282 23.8125
    endloop
  endfacet
  facet normal 0.354606 -0.935016 0
    outer loop
      vertex 26.5273 -0.442483 23.8125
      vertex 25.6392 -0.779282 0
      vertex 26.5273 -0.442483 0
    endloop
  endfacet
  facet normal -0.885457 -0.464721 0
    outer loop
      vertex 23.9147 -0.125259 0
      vertex 23.8489 0 23.8125
      vertex 23.8489 0 0
    endloop
  endfacet
  facet normal -0.885457 -0.464721 0
    outer loop
      vertex 23.8489 0 23.8125
      vertex 23.9147 -0.125259 0
      vertex 23.9147 -0.125259 23.8125
    endloop
  endfacet
  facet normal 0.354606 0.935016 -0
    outer loop
      vertex 26.5273 2.82373 0
      vertex 25.6392 3.16053 23.8125
      vertex 26.5273 2.82373 23.8125
    endloop
  endfacet
  facet normal 0.354606 0.935016 0
    outer loop
      vertex 25.6392 3.16053 23.8125
      vertex 26.5273 2.82373 0
      vertex 25.6392 3.16053 0
    endloop
  endfacet
  facet normal 0.748511 0.663123 0
    outer loop
      vertex 27.1571 2.11281 23.8125
      vertex 26.5273 2.82373 0
      vertex 26.5273 2.82373 23.8125
    endloop
  endfacet
  facet normal 0.748511 0.663123 0
    outer loop
      vertex 26.5273 2.82373 0
      vertex 27.1571 2.11281 23.8125
      vertex 27.1571 2.11281 0
    endloop
  endfacet
  facet normal -0.120537 -0.992709 0
    outer loop
      vertex 24.6963 -0.664798 0
      vertex 25.6392 -0.779282 23.8125
      vertex 24.6963 -0.664798 23.8125
    endloop
  endfacet
  facet normal -0.120537 -0.992709 -0
    outer loop
      vertex 25.6392 -0.779282 23.8125
      vertex 24.6963 -0.664798 0
      vertex 25.6392 -0.779282 0
    endloop
  endfacet
  facet normal -0.568064 -0.822984 0
    outer loop
      vertex 23.9147 -0.125259 0
      vertex 24.6963 -0.664798 23.8125
      vertex 23.9147 -0.125259 23.8125
    endloop
  endfacet
  facet normal -0.568064 -0.822984 -0
    outer loop
      vertex 24.6963 -0.664798 23.8125
      vertex 23.9147 -0.125259 0
      vertex 24.6963 -0.664798 0
    endloop
  endfacet
  facet normal 0.74851 -0.663123 0
    outer loop
      vertex 26.5273 -0.442483 23.8125
      vertex 27.1571 0.26844 0
      vertex 27.1571 0.26844 23.8125
    endloop
  endfacet
  facet normal 0.74851 -0.663123 0
    outer loop
      vertex 27.1571 0.26844 0
      vertex 26.5273 -0.442483 23.8125
      vertex 26.5273 -0.442483 0
    endloop
  endfacet
  facet normal 0.970942 -0.239316 0
    outer loop
      vertex 27.1571 0.26844 23.8125
      vertex 27.3844 1.19062 0
      vertex 27.3844 1.19062 23.8125
    endloop
  endfacet
  facet normal 0.970942 -0.239316 0
    outer loop
      vertex 27.3844 1.19062 0
      vertex 27.1571 0.26844 23.8125
      vertex 27.1571 0.26844 0
    endloop
  endfacet
  facet normal 0.354605 -0.935016 0
    outer loop
      vertex 16.1142 -0.779282 0
      vertex 17.0023 -0.442483 23.8125
      vertex 16.1142 -0.779282 23.8125
    endloop
  endfacet
  facet normal 0.354605 -0.935016 0
    outer loop
      vertex 17.0023 -0.442483 23.8125
      vertex 16.1142 -0.779282 0
      vertex 17.0023 -0.442483 0
    endloop
  endfacet
  facet normal -0.885457 -0.464721 0
    outer loop
      vertex 14.3897 -0.125259 0
      vertex 14.3239 0 23.8125
      vertex 14.3239 0 0
    endloop
  endfacet
  facet normal -0.885457 -0.464721 0
    outer loop
      vertex 14.3239 0 23.8125
      vertex 14.3897 -0.125259 0
      vertex 14.3897 -0.125259 23.8125
    endloop
  endfacet
  facet normal -0.120537 -0.992709 0
    outer loop
      vertex 15.1713 -0.664798 0
      vertex 16.1142 -0.779282 23.8125
      vertex 15.1713 -0.664798 23.8125
    endloop
  endfacet
  facet normal -0.120537 -0.992709 -0
    outer loop
      vertex 16.1142 -0.779282 23.8125
      vertex 15.1713 -0.664798 0
      vertex 16.1142 -0.779282 0
    endloop
  endfacet
  facet normal 0.748509 -0.663124 0
    outer loop
      vertex 17.0023 -0.442483 23.8125
      vertex 17.3943 0 0
      vertex 17.3943 0 23.8125
    endloop
  endfacet
  facet normal 0.748509 -0.663124 0
    outer loop
      vertex 17.3943 0 0
      vertex 17.0023 -0.442483 23.8125
      vertex 17.0023 -0.442483 0
    endloop
  endfacet
  facet normal -0.568065 -0.822984 0
    outer loop
      vertex 14.3897 -0.125259 0
      vertex 15.1713 -0.664798 23.8125
      vertex 14.3897 -0.125259 23.8125
    endloop
  endfacet
  facet normal -0.568065 -0.822984 -0
    outer loop
      vertex 15.1713 -0.664798 23.8125
      vertex 14.3897 -0.125259 0
      vertex 15.1713 -0.664798 0
    endloop
  endfacet
  facet normal -0.885456 -0.464724 0
    outer loop
      vertex 4.86467 -0.125259 0
      vertex 4.79893 0 23.8125
      vertex 4.79893 0 0
    endloop
  endfacet
  facet normal -0.885456 -0.464724 0
    outer loop
      vertex 4.79893 0 23.8125
      vertex 4.86467 -0.125259 0
      vertex 4.86467 -0.125259 23.8125
    endloop
  endfacet
  facet normal 0.354605 -0.935016 0
    outer loop
      vertex 6.58919 -0.779282 0
      vertex 7.47725 -0.442483 23.8125
      vertex 6.58919 -0.779282 23.8125
    endloop
  endfacet
  facet normal 0.354605 -0.935016 0
    outer loop
      vertex 7.47725 -0.442483 23.8125
      vertex 6.58919 -0.779282 0
      vertex 7.47725 -0.442483 0
    endloop
  endfacet
  facet normal -0.568065 -0.822984 0
    outer loop
      vertex 4.86467 -0.125259 0
      vertex 5.64633 -0.664798 23.8125
      vertex 4.86467 -0.125259 23.8125
    endloop
  endfacet
  facet normal -0.568065 -0.822984 -0
    outer loop
      vertex 5.64633 -0.664798 23.8125
      vertex 4.86467 -0.125259 0
      vertex 5.64633 -0.664798 0
    endloop
  endfacet
  facet normal 0.748511 -0.663123 0
    outer loop
      vertex 7.47725 -0.442483 23.8125
      vertex 7.86926 0 0
      vertex 7.86926 0 23.8125
    endloop
  endfacet
  facet normal 0.748511 -0.663123 0
    outer loop
      vertex 7.86926 0 0
      vertex 7.47725 -0.442483 23.8125
      vertex 7.47725 -0.442483 0
    endloop
  endfacet
  facet normal -0.120537 -0.992709 0
    outer loop
      vertex 5.64633 -0.664798 0
      vertex 6.58919 -0.779282 23.8125
      vertex 5.64633 -0.664798 23.8125
    endloop
  endfacet
  facet normal -0.120537 -0.992709 -0
    outer loop
      vertex 6.58919 -0.779282 23.8125
      vertex 5.64633 -0.664798 0
      vertex 6.58919 -0.779282 0
    endloop
  endfacet
  facet normal -0.951057 -0.309017 0
    outer loop
      vertex 7.5875 9 2.38125
      vertex 7.28431 9.93311 21.4312
      vertex 7.28431 9.93311 2.38125
    endloop
  endfacet
  facet normal -0.951057 -0.309017 0
    outer loop
      vertex 7.28431 9.93311 21.4312
      vertex 7.5875 9 2.38125
      vertex 7.5875 9 21.4312
    endloop
  endfacet
  facet normal 0 -1 0
    outer loop
      vertex 5.50944 10.5098 2.38125
      vertex 6.49056 10.5098 21.4312
      vertex 5.50944 10.5098 21.4312
    endloop
  endfacet
  facet normal 0 -1 -0
    outer loop
      vertex 6.49056 10.5098 21.4312
      vertex 5.50944 10.5098 2.38125
      vertex 6.49056 10.5098 2.38125
    endloop
  endfacet
  facet normal -0.587785 -0.809017 0
    outer loop
      vertex 6.49056 10.5098 2.38125
      vertex 7.28431 9.93311 21.4312
      vertex 6.49056 10.5098 21.4312
    endloop
  endfacet
  facet normal -0.587785 -0.809017 -0
    outer loop
      vertex 7.28431 9.93311 21.4312
      vertex 6.49056 10.5098 2.38125
      vertex 7.28431 9.93311 2.38125
    endloop
  endfacet
  facet normal -0.587785 0.809017 0
    outer loop
      vertex 7.28431 8.06689 2.38125
      vertex 6.49056 7.4902 21.4312
      vertex 7.28431 8.06689 21.4312
    endloop
  endfacet
  facet normal -0.587785 0.809017 0
    outer loop
      vertex 6.49056 7.4902 21.4312
      vertex 7.28431 8.06689 2.38125
      vertex 6.49056 7.4902 2.38125
    endloop
  endfacet
  facet normal 0.587785 0.809017 -0
    outer loop
      vertex 5.50944 7.4902 2.38125
      vertex 4.71569 8.06689 21.4312
      vertex 5.50944 7.4902 21.4312
    endloop
  endfacet
  facet normal 0.587785 0.809017 0
    outer loop
      vertex 4.71569 8.06689 21.4312
      vertex 5.50944 7.4902 2.38125
      vertex 4.71569 8.06689 2.38125
    endloop
  endfacet
  facet normal 0.951057 -0.309017 0
    outer loop
      vertex 4.4125 9 21.4312
      vertex 4.71569 9.93311 2.38125
      vertex 4.71569 9.93311 21.4312
    endloop
  endfacet
  facet normal 0.951057 -0.309017 0
    outer loop
      vertex 4.71569 9.93311 2.38125
      vertex 4.4125 9 21.4312
      vertex 4.4125 9 2.38125
    endloop
  endfacet
  facet normal 0.951057 0.309017 0
    outer loop
      vertex 4.71569 8.06689 21.4312
      vertex 4.4125 9 2.38125
      vertex 4.4125 9 21.4312
    endloop
  endfacet
  facet normal 0.951057 0.309017 0
    outer loop
      vertex 4.4125 9 2.38125
      vertex 4.71569 8.06689 21.4312
      vertex 4.71569 8.06689 2.38125
    endloop
  endfacet
  facet normal 0.587785 -0.809017 0
    outer loop
      vertex 4.71569 9.93311 2.38125
      vertex 5.50944 10.5098 21.4312
      vertex 4.71569 9.93311 21.4312
    endloop
  endfacet
  facet normal 0.587785 -0.809017 0
    outer loop
      vertex 5.50944 10.5098 21.4312
      vertex 4.71569 9.93311 2.38125
      vertex 5.50944 10.5098 2.38125
    endloop
  endfacet
  facet normal -0.951057 0.309017 0
    outer loop
      vertex 7.28431 8.06689 2.38125
      vertex 7.5875 9 21.4312
      vertex 7.5875 9 2.38125
    endloop
  endfacet
  facet normal -0.951057 0.309017 0
    outer loop
      vertex 7.5875 9 21.4312
      vertex 7.28431 8.06689 2.38125
      vertex 7.28431 8.06689 21.4312
    endloop
  endfacet
  facet normal 0 1 -0
    outer loop
      vertex 6.49056 7.4902 2.38125
      vertex 5.50944 7.4902 21.4312
      vertex 6.49056 7.4902 21.4312
    endloop
  endfacet
  facet normal 0 1 0
    outer loop
      vertex 5.50944 7.4902 21.4312
      vertex 6.49056 7.4902 2.38125
      vertex 5.50944 7.4902 2.38125
    endloop
  endfacet
endsolid OpenSCAD_Model
