solid OpenSCAD_Model
  facet normal 0.951057 0.309017 0
    outer loop
      vertex 10.3187 7.14375 24.175
      vertex 9.71238 9.00997 3.175
      vertex 9.71238 9.00997 24.175
    endloop
  endfacet
  facet normal 0.951057 0.309017 0
    outer loop
      vertex 9.71238 9.00997 3.175
      vertex 10.3187 7.14375 24.175
      vertex 10.3187 7.14375 3.175
    endloop
  endfacet
  facet normal 0 1 -0
    outer loop
      vertex 8.12488 10.1634 3.175
      vertex 6.16262 10.1634 24.175
      vertex 8.12488 10.1634 24.175
    endloop
  endfacet
  facet normal 0 1 0
    outer loop
      vertex 6.16262 10.1634 24.175
      vertex 8.12488 10.1634 3.175
      vertex 6.16262 10.1634 3.175
    endloop
  endfacet
  facet normal 0.587785 0.809017 -0
    outer loop
      vertex 9.71238 9.00997 3.175
      vertex 8.12488 10.1634 24.175
      vertex 9.71238 9.00997 24.175
    endloop
  endfacet
  facet normal 0.587785 0.809017 0
    outer loop
      vertex 8.12488 10.1634 24.175
      vertex 9.71238 9.00997 3.175
      vertex 8.12488 10.1634 3.175
    endloop
  endfacet
  facet normal 0 0 1
    outer loop
      vertex 9.26042 7.14375 24.175
      vertex 10.3187 7.14375 24.175
      vertex 9.71238 9.00997 24.175
    endloop
  endfacet
  facet normal 0 0 1
    outer loop
      vertex 10.3187 7.14375 24.175
      vertex 9.26042 7.14375 24.175
      vertex 9.71238 5.27753 24.175
    endloop
  endfacet
  facet normal 0 0 1
    outer loop
      vertex 9.71238 9.00997 24.175
      vertex 8.46347 8.79863 24.175
      vertex 9.26042 7.14375 24.175
    endloop
  endfacet
  facet normal 0 0 1
    outer loop
      vertex 8.12488 10.1634 24.175
      vertex 8.46347 8.79863 24.175
      vertex 9.71238 9.00997 24.175
    endloop
  endfacet
  facet normal 0 0 1
    outer loop
      vertex 8.12488 10.1634 24.175
      vertex 6.67275 9.20735 24.175
      vertex 8.46347 8.79863 24.175
    endloop
  endfacet
  facet normal -0 0 1
    outer loop
      vertex 6.16262 10.1634 24.175
      vertex 6.67275 9.20735 24.175
      vertex 8.12488 10.1634 24.175
    endloop
  endfacet
  facet normal 0 0 1
    outer loop
      vertex 4.57512 9.00997 24.175
      vertex 6.67275 9.20735 24.175
      vertex 6.16262 10.1634 24.175
    endloop
  endfacet
  facet normal 0 0 1
    outer loop
      vertex 3.96875 7.14375 24.175
      vertex 5.2367 8.06214 24.175
      vertex 4.57512 9.00997 24.175
    endloop
  endfacet
  facet normal 0 0 1
    outer loop
      vertex 6.67275 9.20735 24.175
      vertex 4.57512 9.00997 24.175
      vertex 5.2367 8.06214 24.175
    endloop
  endfacet
  facet normal -0 0 1
    outer loop
      vertex 8.46347 5.48887 24.175
      vertex 9.71238 5.27753 24.175
      vertex 9.26042 7.14375 24.175
    endloop
  endfacet
  facet normal 0 0 1
    outer loop
      vertex 8.46347 5.48887 24.175
      vertex 8.12488 4.12415 24.175
      vertex 9.71238 5.27753 24.175
    endloop
  endfacet
  facet normal -0 0 1
    outer loop
      vertex 6.67275 5.08015 24.175
      vertex 8.12488 4.12415 24.175
      vertex 8.46347 5.48887 24.175
    endloop
  endfacet
  facet normal 0 0 1
    outer loop
      vertex 6.67275 5.08015 24.175
      vertex 6.16262 4.12415 24.175
      vertex 8.12488 4.12415 24.175
    endloop
  endfacet
  facet normal -0 0 1
    outer loop
      vertex 4.57512 5.27753 24.175
      vertex 6.67275 5.08015 24.175
      vertex 5.2367 6.22536 24.175
    endloop
  endfacet
  facet normal 0 0 1
    outer loop
      vertex 6.67275 5.08015 24.175
      vertex 4.57512 5.27753 24.175
      vertex 6.16262 4.12415 24.175
    endloop
  endfacet
  facet normal 0 0 1
    outer loop
      vertex 5.2367 8.06214 24.175
      vertex 3.96875 7.14375 24.175
      vertex 5.2367 6.22536 24.175
    endloop
  endfacet
  facet normal 0 0 1
    outer loop
      vertex 5.2367 6.22536 24.175
      vertex 3.96875 7.14375 24.175
      vertex 4.57512 5.27753 24.175
    endloop
  endfacet
  facet normal -0.587785 0.809017 0
    outer loop
      vertex 6.16262 10.1634 3.175
      vertex 5.55625 9.7228 24.175
      vertex 6.16262 10.1634 24.175
    endloop
  endfacet
  facet normal -0.587785 0.809017 0
    outer loop
      vertex 5.55625 9.7228 24.175
      vertex 6.16262 10.1634 3.175
      vertex 5.55625 9.7228 3.175
    endloop
  endfacet
  facet normal 0 0 1
    outer loop
      vertex 6.16262 10.1634 24.175
      vertex 5.55625 9.7228 24.175
      vertex 4.57512 9.00997 24.175
    endloop
  endfacet
  facet normal 0.951057 -0.309017 0
    outer loop
      vertex 9.80294 5.55625 24.175
      vertex 10.3187 7.14375 3.175
      vertex 10.3187 7.14375 24.175
    endloop
  endfacet
  facet normal 0.951057 -0.309017 0
    outer loop
      vertex 10.3187 7.14375 3.175
      vertex 9.80294 5.55625 24.175
      vertex 9.80294 5.55625 3.175
    endloop
  endfacet
  facet normal 0 0 1
    outer loop
      vertex 10.3187 7.14375 24.175
      vertex 9.71238 5.27753 24.175
      vertex 9.80294 5.55625 24.175
    endloop
  endfacet
  facet normal 0 0 -1
    outer loop
      vertex 9.26042 7.14375 3.175
      vertex 10.3187 7.14375 3.175
      vertex 9.80294 5.55625 3.175
    endloop
  endfacet
  facet normal 0 0 -1
    outer loop
      vertex 10.3187 7.14375 3.175
      vertex 9.26042 7.14375 3.175
      vertex 9.71238 9.00997 3.175
    endloop
  endfacet
  facet normal 0 -0 -1
    outer loop
      vertex 9.26042 7.14375 3.175
      vertex 9.80294 5.55625 3.175
      vertex 8.49592 5.55625 3.175
    endloop
  endfacet
  facet normal 0 0 -1
    outer loop
      vertex 8.46347 8.79863 3.175
      vertex 9.71238 9.00997 3.175
      vertex 9.26042 7.14375 3.175
    endloop
  endfacet
  facet normal 0 0 -1
    outer loop
      vertex 8.46347 8.79863 3.175
      vertex 8.12488 10.1634 3.175
      vertex 9.71238 9.00997 3.175
    endloop
  endfacet
  facet normal 0 0 -1
    outer loop
      vertex 6.67275 9.20735 3.175
      vertex 8.12488 10.1634 3.175
      vertex 8.46347 8.79863 3.175
    endloop
  endfacet
  facet normal 0 0 -1
    outer loop
      vertex 6.67275 9.20735 3.175
      vertex 6.16262 10.1634 3.175
      vertex 8.12488 10.1634 3.175
    endloop
  endfacet
  facet normal 0 0 -1
    outer loop
      vertex 5.55625 9.7228 3.175
      vertex 6.67275 9.20735 3.175
      vertex 5.55625 8.31697 3.175
    endloop
  endfacet
  facet normal 0 0 -1
    outer loop
      vertex 6.67275 9.20735 3.175
      vertex 5.55625 9.7228 3.175
      vertex 6.16262 10.1634 3.175
    endloop
  endfacet
  facet normal 0 0 -1
    outer loop
      vertex 6.07574 5.55625 3.175
      vertex 5.55625 5.55625 3.175
      vertex 5.55625 5.97053 3.175
    endloop
  endfacet
  facet normal -0.900969 -0.433884 0
    outer loop
      vertex 9.26042 7.14375 3.175
      vertex 8.46347 8.79863 24.175
      vertex 8.46347 8.79863 3.175
    endloop
  endfacet
  facet normal -0.900969 -0.433884 0
    outer loop
      vertex 8.46347 8.79863 24.175
      vertex 9.26042 7.14375 3.175
      vertex 9.26042 7.14375 24.175
    endloop
  endfacet
  facet normal -0.222521 -0.974928 0
    outer loop
      vertex 6.67275 9.20735 3.175
      vertex 8.46347 8.79863 24.175
      vertex 6.67275 9.20735 24.175
    endloop
  endfacet
  facet normal -0.222521 -0.974928 -0
    outer loop
      vertex 8.46347 8.79863 24.175
      vertex 6.67275 9.20735 3.175
      vertex 8.46347 8.79863 3.175
    endloop
  endfacet
  facet normal 0.62349 -0.781831 0
    outer loop
      vertex 5.55625 8.31697 3.175
      vertex 6.67275 9.20735 24.175
      vertex 5.55625 8.31697 24.175
    endloop
  endfacet
  facet normal 0.62349 -0.781831 0
    outer loop
      vertex 6.67275 9.20735 24.175
      vertex 5.55625 8.31697 3.175
      vertex 6.67275 9.20735 3.175
    endloop
  endfacet
  facet normal 0 0 1
    outer loop
      vertex 5.2367 8.06214 24.175
      vertex 5.55625 8.31697 24.175
      vertex 6.67275 9.20735 24.175
    endloop
  endfacet
  facet normal -0.900969 0.433884 0
    outer loop
      vertex 8.49592 5.55625 3.175
      vertex 9.26042 7.14375 24.175
      vertex 9.26042 7.14375 3.175
    endloop
  endfacet
  facet normal -0.900969 0.433884 0
    outer loop
      vertex 9.26042 7.14375 24.175
      vertex 8.49592 5.55625 3.175
      vertex 8.49592 5.55625 24.175
    endloop
  endfacet
  facet normal -0 0 1
    outer loop
      vertex 8.49592 5.55625 24.175
      vertex 8.46347 5.48887 24.175
      vertex 9.26042 7.14375 24.175
    endloop
  endfacet
  facet normal 0.62349 0.781831 -0
    outer loop
      vertex 6.07574 5.55625 3.175
      vertex 5.55625 5.97053 24.175
      vertex 6.07574 5.55625 24.175
    endloop
  endfacet
  facet normal 0.62349 0.781831 0
    outer loop
      vertex 5.55625 5.97053 24.175
      vertex 6.07574 5.55625 3.175
      vertex 5.55625 5.97053 3.175
    endloop
  endfacet
  facet normal 0 0 -1
    outer loop
      vertex 5.55625 5.97053 24.175
      vertex 5.2367 6.22536 24.175
      vertex 6.67275 5.08015 24.175
    endloop
  endfacet
  facet normal 0 0 -1
    outer loop
      vertex 5.55625 5.97053 24.175
      vertex 6.67275 5.08015 24.175
      vertex 6.07574 5.55625 24.175
    endloop
  endfacet
  facet normal 0.900969 0.433884 0
    outer loop
      vertex 1.7 -0.299999 27.35
      vertex 1.55553 0 0
      vertex 1.55553 0 27.35
    endloop
  endfacet
  facet normal 0.900969 0.433884 0
    outer loop
      vertex 1.55553 0 0
      vertex 1.7 -0.299999 27.35
      vertex 1.7 -0.299999 0
    endloop
  endfacet
  facet normal -1 0 0
    outer loop
      vertex -2.10194 -1.16777 0
      vertex -2.10194 0.567767 27.35
      vertex -2.10194 0.567767 0
    endloop
  endfacet
  facet normal -1 -0 0
    outer loop
      vertex -2.10194 0.567767 27.35
      vertex -2.10194 -1.16777 0
      vertex -2.10194 -1.16777 27.35
    endloop
  endfacet
  facet normal 0.222521 0.974928 -0
    outer loop
      vertex 0 1.4798 0
      vertex -0.745042 1.64986 27.35
      vertex 0 1.4798 27.35
    endloop
  endfacet
  facet normal 0.222521 0.974928 0
    outer loop
      vertex -0.745042 1.64986 27.35
      vertex 0 1.4798 0
      vertex -0.745042 1.64986 0
    endloop
  endfacet
  facet normal -0 0 -1
    outer loop
      vertex 1.7 -0.299999 0
      vertex 0.94698 -1.86366 0
      vertex 1.55553 0 0
    endloop
  endfacet
  facet normal -0 0 -1
    outer loop
      vertex 12 -0.299999 0
      vertex 11.247 -1.86366 0
      vertex 11.8555 0 0
    endloop
  endfacet
  facet normal 0 0 -1
    outer loop
      vertex 20 1.54828 0
      vertex 22 -0.299999 0
      vertex 21.247 -1.86366 0
    endloop
  endfacet
  facet normal 0 0 -1
    outer loop
      vertex 22 -0.299999 0
      vertex 20 1.54828 0
      vertex 21.247 1.26366 0
    endloop
  endfacet
  facet normal 0 0 -1
    outer loop
      vertex 20 1.54828 0
      vertex 19.8282 1.5875 0
      vertex 20 1.5875 0
    endloop
  endfacet
  facet normal 0 0 -1
    outer loop
      vertex 18.1981 0 0
      vertex 20 1.54828 0
      vertex 21.247 -1.86366 0
    endloop
  endfacet
  facet normal 0 0 -1
    outer loop
      vertex 18.1981 0 0
      vertex 21.247 -1.86366 0
      vertex 19.555 -2.24986 0
    endloop
  endfacet
  facet normal 0 -0 -1
    outer loop
      vertex 19.4768 1.5875 0
      vertex 20 1.54828 0
      vertex 18.1981 0 0
    endloop
  endfacet
  facet normal 0 0 -1
    outer loop
      vertex 19.8282 1.5875 0
      vertex 19.4768 1.5875 0
      vertex 19.555 1.64986 0
    endloop
  endfacet
  facet normal 0 0 -1
    outer loop
      vertex 18.1981 0 0
      vertex 19.555 -2.24986 0
      vertex 18.1981 -1.16777 0
    endloop
  endfacet
  facet normal 0 0 -1
    outer loop
      vertex 20 1.54828 0
      vertex 19.4768 1.5875 0
      vertex 19.8282 1.5875 0
    endloop
  endfacet
  facet normal 0 0 -1
    outer loop
      vertex 11.8555 0 0
      vertex 19.4768 1.5875 0
      vertex 18.1981 0 0
    endloop
  endfacet
  facet normal 0 0 -1
    outer loop
      vertex 11.8555 0 0
      vertex 9.82816 1.5875 0
      vertex 19.4768 1.5875 0
    endloop
  endfacet
  facet normal 0 0 -1
    outer loop
      vertex 8.19806 0 0
      vertex 11.8555 0 0
      vertex 11.247 -1.86366 0
    endloop
  endfacet
  facet normal 0 0 -1
    outer loop
      vertex 8.19806 0 0
      vertex 11.247 -1.86366 0
      vertex 9.55496 -2.24986 0
    endloop
  endfacet
  facet normal 0 0 -1
    outer loop
      vertex 11.8555 0 0
      vertex 8.19806 0 0
      vertex 9.82816 1.5875 0
    endloop
  endfacet
  facet normal 0 0 -1
    outer loop
      vertex 9.82816 1.5875 0
      vertex 9.47677 1.5875 0
      vertex 9.55496 1.64986 0
    endloop
  endfacet
  facet normal 0 0 -1
    outer loop
      vertex 8.19806 0 0
      vertex 9.55496 -2.24986 0
      vertex 8.19806 -1.16777 0
    endloop
  endfacet
  facet normal -0 0 -1
    outer loop
      vertex 9.82816 1.5875 0
      vertex 8.19806 0 0
      vertex 9.47677 1.5875 0
    endloop
  endfacet
  facet normal 0 0 -1
    outer loop
      vertex 8.19806 0 0
      vertex 1.5875 1.5875 0
      vertex 9.47677 1.5875 0
    endloop
  endfacet
  facet normal 0 0 -1
    outer loop
      vertex 0 1.4798 0
      vertex 1.5875 1.5875 0
      vertex 1.55553 0 0
    endloop
  endfacet
  facet normal 0 0 -1
    outer loop
      vertex 1.55553 0 0
      vertex 1.5875 1.5875 0
      vertex 8.19806 0 0
    endloop
  endfacet
  facet normal 0 0 -1
    outer loop
      vertex -0.745042 -2.24986 0
      vertex 1.55553 0 0
      vertex 0.94698 -1.86366 0
    endloop
  endfacet
  facet normal 0 0 -1
    outer loop
      vertex 1.5875 9.76639 0
      vertex 0.94698 11.5637 0
      vertex 1.7 10 0
    endloop
  endfacet
  facet normal -0 0 -1
    outer loop
      vertex 1.5875 1.5875 0
      vertex 0 1.4798 0
      vertex 0 8.22019 0
    endloop
  endfacet
  facet normal 0 0 -1
    outer loop
      vertex 1.5875 1.5875 0
      vertex 0 8.22019 0
      vertex 1.5875 9.76639 0
    endloop
  endfacet
  facet normal -0 0 -1
    outer loop
      vertex 1.55553 0 0
      vertex -0.745042 -2.24986 0
      vertex 0 1.4798 0
    endloop
  endfacet
  facet normal 0 0 -1
    outer loop
      vertex -2.10194 -1.16777 0
      vertex 0 1.4798 0
      vertex -0.745042 -2.24986 0
    endloop
  endfacet
  facet normal 0 0 -1
    outer loop
      vertex -2.10194 0.567767 0
      vertex 0 1.4798 0
      vertex -2.10194 -1.16777 0
    endloop
  endfacet
  facet normal -0 0 -1
    outer loop
      vertex 0 1.4798 0
      vertex -2.10194 0.567767 0
      vertex -0.745042 1.64986 0
    endloop
  endfacet
  facet normal -0 0 -1
    outer loop
      vertex 1.5875 9.76639 0
      vertex 0 8.22019 0
      vertex 0.94698 11.5637 0
    endloop
  endfacet
  facet normal 0 0 -1
    outer loop
      vertex -2.10194 9.13223 0
      vertex 0 8.22019 0
      vertex -0.745042 8.05014 0
    endloop
  endfacet
  facet normal 0 0 -1
    outer loop
      vertex 0 8.22019 0
      vertex -0.745042 11.9499 0
      vertex 0.94698 11.5637 0
    endloop
  endfacet
  facet normal 0 0 -1
    outer loop
      vertex -2.10194 10.8678 0
      vertex 0 8.22019 0
      vertex -2.10194 9.13223 0
    endloop
  endfacet
  facet normal 0 0 -1
    outer loop
      vertex 0 8.22019 0
      vertex -2.10194 10.8678 0
      vertex -0.745042 11.9499 0
    endloop
  endfacet
  facet normal -0 0 1
    outer loop
      vertex 0 8.22019 27.35
      vertex 1.5875 1.5875 27.35
      vertex 1.5875 9.76639 27.35
    endloop
  endfacet
  facet normal 0 0 1
    outer loop
      vertex 0 8.22019 27.35
      vertex 1.5875 9.76639 27.35
      vertex 0.94698 11.5637 27.35
    endloop
  endfacet
  facet normal 0 0 1
    outer loop
      vertex 0.94698 11.5637 27.35
      vertex 1.5875 9.76639 27.35
      vertex 1.7 10 27.35
    endloop
  endfacet
  facet normal -0 0 1
    outer loop
      vertex 1.5875 1.5875 27.35
      vertex 8.19806 0 27.35
      vertex 9.47677 1.5875 27.35
    endloop
  endfacet
  facet normal 0 0 1
    outer loop
      vertex 8.19806 0 27.35
      vertex 1.5875 1.5875 27.35
      vertex 1.55553 0 27.35
    endloop
  endfacet
  facet normal 0 0 1
    outer loop
      vertex 19.4768 1.5875 27.35
      vertex 11.8555 0 27.35
      vertex 18.1981 0 27.35
    endloop
  endfacet
  facet normal -0 0 1
    outer loop
      vertex 9.82816 1.5875 27.35
      vertex 11.8555 0 27.35
      vertex 19.4768 1.5875 27.35
    endloop
  endfacet
  facet normal 0 0 1
    outer loop
      vertex 8.19806 0 27.35
      vertex 11.8555 0 27.35
      vertex 9.82816 1.5875 27.35
    endloop
  endfacet
  facet normal 0 0 1
    outer loop
      vertex 9.47677 1.5875 27.35
      vertex 9.82816 1.5875 27.35
      vertex 9.55496 1.64986 27.35
    endloop
  endfacet
  facet normal 0 0 1
    outer loop
      vertex 8.19806 0 27.35
      vertex 9.82816 1.5875 27.35
      vertex 9.47677 1.5875 27.35
    endloop
  endfacet
  facet normal 0 0 1
    outer loop
      vertex 11.8555 0 27.35
      vertex 8.19806 0 27.35
      vertex 11.247 -1.86366 27.35
    endloop
  endfacet
  facet normal 0 0 1
    outer loop
      vertex 11.247 -1.86366 27.35
      vertex 8.19806 0 27.35
      vertex 9.55496 -2.24986 27.35
    endloop
  endfacet
  facet normal 0 0 1
    outer loop
      vertex 9.55496 -2.24986 27.35
      vertex 8.19806 0 27.35
      vertex 8.19806 -1.16777 27.35
    endloop
  endfacet
  facet normal 0 0 1
    outer loop
      vertex 12 -0.299999 27.35
      vertex 11.8555 0 27.35
      vertex 11.247 -1.86366 27.35
    endloop
  endfacet
  facet normal 0 0 1
    outer loop
      vertex 20 1.5875 27.35
      vertex 19.8282 1.5875 27.35
      vertex 20 1.54828 27.35
    endloop
  endfacet
  facet normal 0 0 1
    outer loop
      vertex 20 1.54828 27.35
      vertex 22 -0.299999 27.35
      vertex 21.247 1.26366 27.35
    endloop
  endfacet
  facet normal 0 0 1
    outer loop
      vertex 22 -0.299999 27.35
      vertex 20 1.54828 27.35
      vertex 21.247 -1.86366 27.35
    endloop
  endfacet
  facet normal -0 0 1
    outer loop
      vertex 19.4768 1.5875 27.35
      vertex 20 1.54828 27.35
      vertex 19.8282 1.5875 27.35
    endloop
  endfacet
  facet normal 0 0 1
    outer loop
      vertex 19.4768 1.5875 27.35
      vertex 19.8282 1.5875 27.35
      vertex 19.555 1.64986 27.35
    endloop
  endfacet
  facet normal 0 0 1
    outer loop
      vertex 20 1.54828 27.35
      vertex 19.4768 1.5875 27.35
      vertex 18.1981 0 27.35
    endloop
  endfacet
  facet normal 0 0 1
    outer loop
      vertex 20 1.54828 27.35
      vertex 18.1981 0 27.35
      vertex 21.247 -1.86366 27.35
    endloop
  endfacet
  facet normal 0 0 1
    outer loop
      vertex 21.247 -1.86366 27.35
      vertex 18.1981 0 27.35
      vertex 19.555 -2.24986 27.35
    endloop
  endfacet
  facet normal 0 0 1
    outer loop
      vertex 19.555 -2.24986 27.35
      vertex 18.1981 0 27.35
      vertex 18.1981 -1.16777 27.35
    endloop
  endfacet
  facet normal 0 0 1
    outer loop
      vertex 1.55553 0 27.35
      vertex 0.94698 -1.86366 27.35
      vertex 1.7 -0.299999 27.35
    endloop
  endfacet
  facet normal 0 0 1
    outer loop
      vertex 0 1.4798 27.35
      vertex 1.5875 1.5875 27.35
      vertex 0 8.22019 27.35
    endloop
  endfacet
  facet normal 0 0 1
    outer loop
      vertex 1.5875 1.5875 27.35
      vertex 0 1.4798 27.35
      vertex 1.55553 0 27.35
    endloop
  endfacet
  facet normal 0 0 1
    outer loop
      vertex -0.745042 11.9499 27.35
      vertex 0 8.22019 27.35
      vertex 0.94698 11.5637 27.35
    endloop
  endfacet
  facet normal -0 0 1
    outer loop
      vertex -2.10194 10.8678 27.35
      vertex 0 8.22019 27.35
      vertex -0.745042 11.9499 27.35
    endloop
  endfacet
  facet normal -0 0 1
    outer loop
      vertex -2.10194 9.13223 27.35
      vertex 0 8.22019 27.35
      vertex -2.10194 10.8678 27.35
    endloop
  endfacet
  facet normal 0 0 1
    outer loop
      vertex 0 8.22019 27.35
      vertex -2.10194 9.13223 27.35
      vertex -0.745042 8.05014 27.35
    endloop
  endfacet
  facet normal 0 0 1
    outer loop
      vertex -0.745042 -2.24986 27.35
      vertex 1.55553 0 27.35
      vertex 0 1.4798 27.35
    endloop
  endfacet
  facet normal 0 0 1
    outer loop
      vertex -2.10194 0.567767 27.35
      vertex 0 1.4798 27.35
      vertex -0.745042 1.64986 27.35
    endloop
  endfacet
  facet normal 0 0 1
    outer loop
      vertex 1.55553 0 27.35
      vertex -0.745042 -2.24986 27.35
      vertex 0.94698 -1.86366 27.35
    endloop
  endfacet
  facet normal 0 0 1
    outer loop
      vertex -2.10194 -1.16777 27.35
      vertex 0 1.4798 27.35
      vertex -2.10194 0.567767 27.35
    endloop
  endfacet
  facet normal 0 0 1
    outer loop
      vertex 0 1.4798 27.35
      vertex -2.10194 -1.16777 27.35
      vertex -0.745042 -2.24986 27.35
    endloop
  endfacet
  facet normal -0.62349 0.781831 0
    outer loop
      vertex -0.745042 1.64986 0
      vertex -2.10194 0.567767 27.35
      vertex -0.745042 1.64986 27.35
    endloop
  endfacet
  facet normal -0.62349 0.781831 0
    outer loop
      vertex -2.10194 0.567767 27.35
      vertex -0.745042 1.64986 0
      vertex -2.10194 0.567767 0
    endloop
  endfacet
  facet normal 0.900969 -0.433884 0
    outer loop
      vertex 0.94698 -1.86366 27.35
      vertex 1.7 -0.299999 0
      vertex 1.7 -0.299999 27.35
    endloop
  endfacet
  facet normal 0.900969 -0.433884 0
    outer loop
      vertex 1.7 -0.299999 0
      vertex 0.94698 -1.86366 27.35
      vertex 0.94698 -1.86366 0
    endloop
  endfacet
  facet normal -0.62349 -0.781831 0
    outer loop
      vertex -2.10194 -1.16777 0
      vertex -0.745042 -2.24986 27.35
      vertex -2.10194 -1.16777 27.35
    endloop
  endfacet
  facet normal -0.62349 -0.781831 -0
    outer loop
      vertex -0.745042 -2.24986 27.35
      vertex -2.10194 -1.16777 0
      vertex -0.745042 -2.24986 0
    endloop
  endfacet
  facet normal 0.222521 -0.974928 0
    outer loop
      vertex -0.745042 -2.24986 0
      vertex 0.94698 -1.86366 27.35
      vertex -0.745042 -2.24986 27.35
    endloop
  endfacet
  facet normal 0.222521 -0.974928 0
    outer loop
      vertex 0.94698 -1.86366 27.35
      vertex -0.745042 -2.24986 0
      vertex 0.94698 -1.86366 0
    endloop
  endfacet
  facet normal 0.900969 0.433884 0
    outer loop
      vertex 12 -0.299999 27.35
      vertex 11.8555 0 0
      vertex 11.8555 0 27.35
    endloop
  endfacet
  facet normal 0.900969 0.433884 0
    outer loop
      vertex 11.8555 0 0
      vertex 12 -0.299999 27.35
      vertex 12 -0.299999 0
    endloop
  endfacet
  facet normal -1 0 0
    outer loop
      vertex 8.19806 -1.16777 0
      vertex 8.19806 0 27.35
      vertex 8.19806 0 0
    endloop
  endfacet
  facet normal -1 -0 0
    outer loop
      vertex 8.19806 0 27.35
      vertex 8.19806 -1.16777 0
      vertex 8.19806 -1.16777 27.35
    endloop
  endfacet
  facet normal 0.222521 0.974928 -3.50754e-09
    outer loop
      vertex 9.82816 1.5875 27.35
      vertex 9.5875 1.64243 24.175
      vertex 9.55496 1.64986 27.35
    endloop
  endfacet
  facet normal 0.222521 0.974928 0
    outer loop
      vertex 9.82816 1.5875 27.35
      vertex 9.5875 1.64243 3.175
      vertex 9.5875 1.64243 24.175
    endloop
  endfacet
  facet normal 0.222521 0.974928 -0
    outer loop
      vertex 9.82816 1.5875 0
      vertex 9.5875 1.64243 3.175
      vertex 9.82816 1.5875 27.35
    endloop
  endfacet
  facet normal 0.222521 0.974928 3.50754e-09
    outer loop
      vertex 9.55496 1.64986 0
      vertex 9.5875 1.64243 3.175
      vertex 9.82816 1.5875 0
    endloop
  endfacet
  facet normal 0.222522 0.974928 0
    outer loop
      vertex 9.5875 1.64243 3.175
      vertex 9.55496 1.64986 0
      vertex 9.55496 1.64986 3.175
    endloop
  endfacet
  facet normal 0.222522 0.974928 0
    outer loop
      vertex 9.55496 1.64986 27.35
      vertex 9.5875 1.64243 24.175
      vertex 9.55496 1.64986 24.175
    endloop
  endfacet
  facet normal -0.623491 0.781831 0
    outer loop
      vertex 9.55496 1.64986 0
      vertex 9.47677 1.5875 3.175
      vertex 9.55496 1.64986 3.175
    endloop
  endfacet
  facet normal -0.623491 0.781831 0
    outer loop
      vertex 9.47677 1.5875 3.175
      vertex 9.55496 1.64986 0
      vertex 9.47677 1.5875 0
    endloop
  endfacet
  facet normal -0.623491 0.781831 0
    outer loop
      vertex 9.55496 1.64986 24.175
      vertex 9.47677 1.5875 27.35
      vertex 9.55496 1.64986 27.35
    endloop
  endfacet
  facet normal -0.623491 0.781831 0
    outer loop
      vertex 9.47677 1.5875 27.35
      vertex 9.55496 1.64986 24.175
      vertex 9.47677 1.5875 24.175
    endloop
  endfacet
  facet normal 0.900969 -0.433884 0
    outer loop
      vertex 11.247 -1.86366 27.35
      vertex 12 -0.299999 0
      vertex 12 -0.299999 27.35
    endloop
  endfacet
  facet normal 0.900969 -0.433884 0
    outer loop
      vertex 12 -0.299999 0
      vertex 11.247 -1.86366 27.35
      vertex 11.247 -1.86366 0
    endloop
  endfacet
  facet normal -0.62349 -0.781831 0
    outer loop
      vertex 8.19806 -1.16777 0
      vertex 9.55496 -2.24986 27.35
      vertex 8.19806 -1.16777 27.35
    endloop
  endfacet
  facet normal -0.62349 -0.781831 -0
    outer loop
      vertex 9.55496 -2.24986 27.35
      vertex 8.19806 -1.16777 0
      vertex 9.55496 -2.24986 0
    endloop
  endfacet
  facet normal 0.222521 -0.974928 0
    outer loop
      vertex 9.55496 -2.24986 0
      vertex 11.247 -1.86366 27.35
      vertex 9.55496 -2.24986 27.35
    endloop
  endfacet
  facet normal 0.222521 -0.974928 0
    outer loop
      vertex 11.247 -1.86366 27.35
      vertex 9.55496 -2.24986 0
      vertex 11.247 -1.86366 0
    endloop
  endfacet
  facet normal 0.900969 0.433884 0
    outer loop
      vertex 1.7 10 27.35
      vertex 0.94698 11.5637 0
      vertex 0.94698 11.5637 27.35
    endloop
  endfacet
  facet normal 0.900969 0.433884 0
    outer loop
      vertex 0.94698 11.5637 0
      vertex 1.7 10 27.35
      vertex 1.7 10 0
    endloop
  endfacet
  facet normal -1 0 0
    outer loop
      vertex -2.10194 9.13223 0
      vertex -2.10194 10.8678 27.35
      vertex -2.10194 10.8678 0
    endloop
  endfacet
  facet normal -1 -0 0
    outer loop
      vertex -2.10194 10.8678 27.35
      vertex -2.10194 9.13223 0
      vertex -2.10194 9.13223 27.35
    endloop
  endfacet
  facet normal 0.222521 0.974928 -0
    outer loop
      vertex 0.94698 11.5637 0
      vertex -0.745042 11.9499 27.35
      vertex 0.94698 11.5637 27.35
    endloop
  endfacet
  facet normal 0.222521 0.974928 0
    outer loop
      vertex -0.745042 11.9499 27.35
      vertex 0.94698 11.5637 0
      vertex -0.745042 11.9499 0
    endloop
  endfacet
  facet normal -0.62349 0.781831 0
    outer loop
      vertex -0.745042 11.9499 0
      vertex -2.10194 10.8678 27.35
      vertex -0.745042 11.9499 27.35
    endloop
  endfacet
  facet normal -0.62349 0.781831 0
    outer loop
      vertex -2.10194 10.8678 27.35
      vertex -0.745042 11.9499 0
      vertex -2.10194 10.8678 0
    endloop
  endfacet
  facet normal 0.900969 -0.433884 0
    outer loop
      vertex 1.5875 9.76639 27.35
      vertex 1.7 10 0
      vertex 1.7 10 27.35
    endloop
  endfacet
  facet normal 0.900969 -0.433884 0
    outer loop
      vertex 1.7 10 0
      vertex 1.5875 9.76639 27.35
      vertex 1.5875 9.76639 0
    endloop
  endfacet
  facet normal 0.222522 -0.974928 0
    outer loop
      vertex -0.745042 8.05014 0
      vertex 0 8.22019 27.35
      vertex -0.745042 8.05014 27.35
    endloop
  endfacet
  facet normal 0.222522 -0.974928 0
    outer loop
      vertex 0 8.22019 27.35
      vertex -0.745042 8.05014 0
      vertex 0 8.22019 0
    endloop
  endfacet
  facet normal -0.62349 -0.781831 0
    outer loop
      vertex -2.10194 9.13223 0
      vertex -0.745042 8.05014 27.35
      vertex -2.10194 9.13223 27.35
    endloop
  endfacet
  facet normal -0.62349 -0.781831 -0
    outer loop
      vertex -0.745042 8.05014 27.35
      vertex -2.10194 9.13223 0
      vertex -0.745042 8.05014 0
    endloop
  endfacet
  facet normal 0.900969 0.433884 0
    outer loop
      vertex 22 -0.299999 27.35
      vertex 21.247 1.26366 0
      vertex 21.247 1.26366 27.35
    endloop
  endfacet
  facet normal 0.900969 0.433884 0
    outer loop
      vertex 21.247 1.26366 0
      vertex 22 -0.299999 27.35
      vertex 22 -0.299999 0
    endloop
  endfacet
  facet normal -1 0 0
    outer loop
      vertex 18.1981 -1.16777 0
      vertex 18.1981 0 27.35
      vertex 18.1981 0 0
    endloop
  endfacet
  facet normal -1 -0 0
    outer loop
      vertex 18.1981 0 27.35
      vertex 18.1981 -1.16777 0
      vertex 18.1981 -1.16777 27.35
    endloop
  endfacet
  facet normal 0.222521 0.974928 -0
    outer loop
      vertex 21.247 1.26366 0
      vertex 20 1.54828 27.35
      vertex 21.247 1.26366 27.35
    endloop
  endfacet
  facet normal 0.222521 0.974928 0
    outer loop
      vertex 20 1.54828 27.35
      vertex 21.247 1.26366 0
      vertex 20 1.54828 0
    endloop
  endfacet
  facet normal 0.222521 0.974928 -0
    outer loop
      vertex 19.8282 1.5875 0
      vertex 19.555 1.64986 27.35
      vertex 19.8282 1.5875 27.35
    endloop
  endfacet
  facet normal 0.222521 0.974928 0
    outer loop
      vertex 19.555 1.64986 27.35
      vertex 19.8282 1.5875 0
      vertex 19.555 1.64986 0
    endloop
  endfacet
  facet normal -0.623481 0.781838 0
    outer loop
      vertex 19.555 1.64986 0
      vertex 19.4768 1.5875 27.35
      vertex 19.555 1.64986 27.35
    endloop
  endfacet
  facet normal -0.623481 0.781838 0
    outer loop
      vertex 19.4768 1.5875 27.35
      vertex 19.555 1.64986 0
      vertex 19.4768 1.5875 0
    endloop
  endfacet
  facet normal 0.900969 -0.433884 0
    outer loop
      vertex 21.247 -1.86366 27.35
      vertex 22 -0.299999 0
      vertex 22 -0.299999 27.35
    endloop
  endfacet
  facet normal 0.900969 -0.433884 0
    outer loop
      vertex 22 -0.299999 0
      vertex 21.247 -1.86366 27.35
      vertex 21.247 -1.86366 0
    endloop
  endfacet
  facet normal -0.62349 -0.781831 0
    outer loop
      vertex 18.1981 -1.16777 0
      vertex 19.555 -2.24986 27.35
      vertex 18.1981 -1.16777 27.35
    endloop
  endfacet
  facet normal -0.62349 -0.781831 -0
    outer loop
      vertex 19.555 -2.24986 27.35
      vertex 18.1981 -1.16777 0
      vertex 19.555 -2.24986 0
    endloop
  endfacet
  facet normal 0.222521 -0.974928 0
    outer loop
      vertex 19.555 -2.24986 0
      vertex 21.247 -1.86366 27.35
      vertex 19.555 -2.24986 27.35
    endloop
  endfacet
  facet normal 0.222521 -0.974928 0
    outer loop
      vertex 21.247 -1.86366 27.35
      vertex 19.555 -2.24986 0
      vertex 21.247 -1.86366 0
    endloop
  endfacet
  facet normal -1 0 0
    outer loop
      vertex 0 1.4798 0
      vertex 0 8.22019 27.35
      vertex 0 8.22019 0
    endloop
  endfacet
  facet normal -1 -0 0
    outer loop
      vertex 0 8.22019 27.35
      vertex 0 1.4798 0
      vertex 0 1.4798 27.35
    endloop
  endfacet
  facet normal 1 -0 0
    outer loop
      vertex 20 1.54828 27.35
      vertex 20 1.5875 0
      vertex 20 1.5875 27.35
    endloop
  endfacet
  facet normal 1 0 0
    outer loop
      vertex 20 1.5875 0
      vertex 20 1.54828 27.35
      vertex 20 1.54828 0
    endloop
  endfacet
  facet normal 0 -1 0
    outer loop
      vertex 11.8555 0 0
      vertex 18.1981 0 27.35
      vertex 11.8555 0 27.35
    endloop
  endfacet
  facet normal 0 -1 -0
    outer loop
      vertex 18.1981 0 27.35
      vertex 11.8555 0 0
      vertex 18.1981 0 0
    endloop
  endfacet
  facet normal 0 -1 0
    outer loop
      vertex 1.55553 0 0
      vertex 8.19806 0 27.35
      vertex 1.55553 0 27.35
    endloop
  endfacet
  facet normal 0 -1 -0
    outer loop
      vertex 8.19806 0 27.35
      vertex 1.55553 0 0
      vertex 8.19806 0 0
    endloop
  endfacet
  facet normal 0 1 -0
    outer loop
      vertex 20 1.5875 0
      vertex 19.8282 1.5875 27.35
      vertex 20 1.5875 27.35
    endloop
  endfacet
  facet normal 0 1 0
    outer loop
      vertex 19.8282 1.5875 27.35
      vertex 20 1.5875 0
      vertex 19.8282 1.5875 0
    endloop
  endfacet
  facet normal 0 1 -0
    outer loop
      vertex 19.4768 1.5875 0
      vertex 9.82816 1.5875 27.35
      vertex 19.4768 1.5875 27.35
    endloop
  endfacet
  facet normal 0 1 0
    outer loop
      vertex 9.82816 1.5875 27.35
      vertex 19.4768 1.5875 0
      vertex 9.82816 1.5875 0
    endloop
  endfacet
  facet normal 0 1 -0
    outer loop
      vertex 9.47677 1.5875 0
      vertex 8 1.5875 3.175
      vertex 9.47677 1.5875 3.175
    endloop
  endfacet
  facet normal 0 1 0
    outer loop
      vertex 8 1.5875 3.175
      vertex 9.47677 1.5875 0
      vertex 5.55625 1.5875 3.175
    endloop
  endfacet
  facet normal 0 1 0
    outer loop
      vertex 1.5875 1.5875 0
      vertex 5.55625 1.5875 3.175
      vertex 9.47677 1.5875 0
    endloop
  endfacet
  facet normal 0 1 -0
    outer loop
      vertex 8 1.5875 3.175
      vertex 5.55625 1.5875 24.175
      vertex 8 1.5875 24.175
    endloop
  endfacet
  facet normal 0 1 0
    outer loop
      vertex 5.55625 1.5875 24.175
      vertex 8 1.5875 3.175
      vertex 5.55625 1.5875 3.175
    endloop
  endfacet
  facet normal 0 1 0
    outer loop
      vertex 8 1.5875 24.175
      vertex 9.47677 1.5875 27.35
      vertex 9.47677 1.5875 24.175
    endloop
  endfacet
  facet normal 0 1 0
    outer loop
      vertex 5.55625 1.5875 24.175
      vertex 9.47677 1.5875 27.35
      vertex 8 1.5875 24.175
    endloop
  endfacet
  facet normal 0 1 0
    outer loop
      vertex 9.47677 1.5875 27.35
      vertex 5.55625 1.5875 24.175
      vertex 1.5875 1.5875 27.35
    endloop
  endfacet
  facet normal 0 1 -0
    outer loop
      vertex 3.96875 1.5875 24.175
      vertex 1.5875 1.5875 27.35
      vertex 5.55625 1.5875 24.175
    endloop
  endfacet
  facet normal 0 1 -0
    outer loop
      vertex 3.96875 1.5875 3.175
      vertex 1.5875 1.5875 27.35
      vertex 3.96875 1.5875 24.175
    endloop
  endfacet
  facet normal 0 1 0
    outer loop
      vertex 3.96875 1.5875 3.175
      vertex 1.5875 1.5875 0
      vertex 1.5875 1.5875 27.35
    endloop
  endfacet
  facet normal 0 1 0
    outer loop
      vertex 5.55625 1.5875 3.175
      vertex 1.5875 1.5875 0
      vertex 3.96875 1.5875 3.175
    endloop
  endfacet
  facet normal -0 0 1
    outer loop
      vertex 3.96875 10 24.175
      vertex 5.55625 9.7228 24.175
      vertex 5.55625 10 24.175
    endloop
  endfacet
  facet normal -0 0 1
    outer loop
      vertex 3.96875 9.5875 24.175
      vertex 4.57512 9.00997 24.175
      vertex 3.96875 10 24.175
    endloop
  endfacet
  facet normal 0 0 1
    outer loop
      vertex 5.55625 9.7228 24.175
      vertex 3.96875 10 24.175
      vertex 4.57512 9.00997 24.175
    endloop
  endfacet
  facet normal -0 0 1
    outer loop
      vertex 6.16262 4.12415 24.175
      vertex 8 3.96875 24.175
      vertex 8.12488 4.12415 24.175
    endloop
  endfacet
  facet normal 0 0 1
    outer loop
      vertex 6.16262 4.12415 24.175
      vertex 5.55625 3.96875 24.175
      vertex 8 3.96875 24.175
    endloop
  endfacet
  facet normal 0 0 1
    outer loop
      vertex 4.57512 5.27753 24.175
      vertex 5.55625 3.96875 24.175
      vertex 6.16262 4.12415 24.175
    endloop
  endfacet
  facet normal 0 0 1
    outer loop
      vertex 3.96875 3.96875 24.175
      vertex 5.55625 3.96875 24.175
      vertex 4.57512 5.27753 24.175
    endloop
  endfacet
  facet normal -0 0 1
    outer loop
      vertex 3.96875 5.55625 24.175
      vertex 4.57512 5.27753 24.175
      vertex 3.96875 7.14375 24.175
    endloop
  endfacet
  facet normal 0 0 1
    outer loop
      vertex 3.96875 8 24.175
      vertex 4.57512 9.00997 24.175
      vertex 3.96875 9.5875 24.175
    endloop
  endfacet
  facet normal 0 0 1
    outer loop
      vertex 4.57512 9.00997 24.175
      vertex 3.96875 8 24.175
      vertex 3.96875 7.14375 24.175
    endloop
  endfacet
  facet normal 0 0 1
    outer loop
      vertex 3.96875 5.55625 24.175
      vertex 3.96875 7.14375 24.175
      vertex 3.96875 8 24.175
    endloop
  endfacet
  facet normal 0 0 1
    outer loop
      vertex 3.96875 3.96875 24.175
      vertex 4.57512 5.27753 24.175
      vertex 3.96875 5.55625 24.175
    endloop
  endfacet
  facet normal 0 0 1
    outer loop
      vertex 5.55625 3.96875 24.175
      vertex 3.96875 3.96875 24.175
      vertex 5.55625 1.5875 24.175
    endloop
  endfacet
  facet normal 0 0 1
    outer loop
      vertex 5.55625 1.5875 24.175
      vertex 3.96875 3.96875 24.175
      vertex 3.96875 1.5875 24.175
    endloop
  endfacet
  facet normal -0 0 1
    outer loop
      vertex 9.80294 5.55625 24.175
      vertex 20 3.96875 24.175
      vertex 20 5.55625 24.175
    endloop
  endfacet
  facet normal 0 0 1
    outer loop
      vertex 9.5875 3.96875 24.175
      vertex 9.80294 5.55625 24.175
      vertex 9.71238 5.27753 24.175
    endloop
  endfacet
  facet normal 0 0 1
    outer loop
      vertex 9.80294 5.55625 24.175
      vertex 9.5875 3.96875 24.175
      vertex 20 3.96875 24.175
    endloop
  endfacet
  facet normal 0 0 1
    outer loop
      vertex 9.5875 3.96875 24.175
      vertex 9.55496 1.64986 24.175
      vertex 9.5875 1.64243 24.175
    endloop
  endfacet
  facet normal -0 0 1
    outer loop
      vertex 8 3.96875 24.175
      vertex 9.55496 1.64986 24.175
      vertex 9.5875 3.96875 24.175
    endloop
  endfacet
  facet normal -0 0 1
    outer loop
      vertex 8.12488 4.12415 24.175
      vertex 9.5875 3.96875 24.175
      vertex 9.71238 5.27753 24.175
    endloop
  endfacet
  facet normal 0 0 1
    outer loop
      vertex 8 3.96875 24.175
      vertex 9.5875 3.96875 24.175
      vertex 8.12488 4.12415 24.175
    endloop
  endfacet
  facet normal 0 0 1
    outer loop
      vertex 8 1.5875 24.175
      vertex 9.55496 1.64986 24.175
      vertex 8 3.96875 24.175
    endloop
  endfacet
  facet normal 0 0 1
    outer loop
      vertex 9.55496 1.64986 24.175
      vertex 8 1.5875 24.175
      vertex 9.47677 1.5875 24.175
    endloop
  endfacet
  facet normal -0 0 1
    outer loop
      vertex 1.5875 5.55625 24.175
      vertex 3.96875 3.96875 24.175
      vertex 3.96875 5.55625 24.175
    endloop
  endfacet
  facet normal 0 0 1
    outer loop
      vertex 3.96875 3.96875 24.175
      vertex 1.5875 5.55625 24.175
      vertex 1.5875 3.96875 24.175
    endloop
  endfacet
  facet normal -0 0 1
    outer loop
      vertex 1.5875 9.5875 24.175
      vertex 3.96875 8 24.175
      vertex 3.96875 9.5875 24.175
    endloop
  endfacet
  facet normal 0 0 1
    outer loop
      vertex 3.96875 8 24.175
      vertex 1.5875 9.5875 24.175
      vertex 1.5875 8 24.175
    endloop
  endfacet
  facet normal 0 0 1
    outer loop
      vertex 8.49592 5.55625 24.175
      vertex 6.67275 5.08015 24.175
      vertex 8.46347 5.48887 24.175
    endloop
  endfacet
  facet normal 0 -0 1
    outer loop
      vertex 6.67275 5.08015 24.175
      vertex 8.49592 5.55625 24.175
      vertex 6.07574 5.55625 24.175
    endloop
  endfacet
  facet normal -0 0 1
    outer loop
      vertex 5.2367 8.06214 24.175
      vertex 5.55625 5.97053 24.175
      vertex 5.55625 8.31697 24.175
    endloop
  endfacet
  facet normal 0 0 1
    outer loop
      vertex 5.55625 5.97053 24.175
      vertex 5.2367 8.06214 24.175
      vertex 5.2367 6.22536 24.175
    endloop
  endfacet
  facet normal 1 -0 0
    outer loop
      vertex 20 3.96875 24.175
      vertex 20 5.55625 3.175
      vertex 20 5.55625 24.175
    endloop
  endfacet
  facet normal 1 0 0
    outer loop
      vertex 20 5.55625 3.175
      vertex 20 3.96875 24.175
      vertex 20 3.96875 3.175
    endloop
  endfacet
  facet normal 0 1 0
    outer loop
      vertex 20 5.55625 24.175
      vertex 9.80294 5.55625 3.175
      vertex 9.80294 5.55625 24.175
    endloop
  endfacet
  facet normal 0 0 0
    outer loop
      vertex 9.80294 5.55625 3.175
      vertex 6.07574 5.55625 3.175
      vertex 8.49592 5.55625 3.175
    endloop
  endfacet
  facet normal 0 1 0
    outer loop
      vertex 5.55625 5.55625 3.175
      vertex 6.07574 5.55625 3.175
      vertex 9.80294 5.55625 3.175
    endloop
  endfacet
  facet normal 0 1 -0
    outer loop
      vertex 20 5.55625 3.175
      vertex 9.80294 5.55625 3.175
      vertex 20 5.55625 24.175
    endloop
  endfacet
  facet normal 0 1 0
    outer loop
      vertex 5.55625 5.55625 3.175
      vertex 9.80294 5.55625 3.175
      vertex 20 5.55625 3.175
    endloop
  endfacet
  facet normal 0 1 -0
    outer loop
      vertex 8.49592 5.55625 3.175
      vertex 6.07574 5.55625 24.175
      vertex 8.49592 5.55625 24.175
    endloop
  endfacet
  facet normal 0 1 0
    outer loop
      vertex 6.07574 5.55625 24.175
      vertex 8.49592 5.55625 3.175
      vertex 6.07574 5.55625 3.175
    endloop
  endfacet
  facet normal 0 1 -0
    outer loop
      vertex 3.96875 5.55625 3.175
      vertex 1.5875 5.55625 24.175
      vertex 3.96875 5.55625 24.175
    endloop
  endfacet
  facet normal 0 1 0
    outer loop
      vertex 1.5875 5.55625 24.175
      vertex 3.96875 5.55625 3.175
      vertex 1.5875 5.55625 3.175
    endloop
  endfacet
  facet normal 0 0 -1
    outer loop
      vertex 9.5875 1.64243 3.175
      vertex 9.55496 1.64986 3.175
      vertex 9.5875 3.96875 3.175
    endloop
  endfacet
  facet normal 0 0 -1
    outer loop
      vertex 9.5875 3.96875 3.175
      vertex 20 5.55625 3.175
      vertex 20 3.96875 3.175
    endloop
  endfacet
  facet normal 0 0 -1
    outer loop
      vertex 8 1.5875 3.175
      vertex 9.55496 1.64986 3.175
      vertex 9.47677 1.5875 3.175
    endloop
  endfacet
  facet normal -0 0 -1
    outer loop
      vertex 9.55496 1.64986 3.175
      vertex 8 1.5875 3.175
      vertex 8 3.96875 3.175
    endloop
  endfacet
  facet normal 0 0 -1
    outer loop
      vertex 9.55496 1.64986 3.175
      vertex 8 3.96875 3.175
      vertex 9.5875 3.96875 3.175
    endloop
  endfacet
  facet normal 0 0 -1
    outer loop
      vertex 5.55625 5.55625 3.175
      vertex 9.5875 3.96875 3.175
      vertex 8 3.96875 3.175
    endloop
  endfacet
  facet normal 0 0 -1
    outer loop
      vertex 5.55625 5.55625 3.175
      vertex 8 3.96875 3.175
      vertex 5.55625 3.96875 3.175
    endloop
  endfacet
  facet normal 0 0 -1
    outer loop
      vertex 9.5875 3.96875 3.175
      vertex 5.55625 5.55625 3.175
      vertex 20 5.55625 3.175
    endloop
  endfacet
  facet normal 0 0 -1
    outer loop
      vertex 1.5875 8 3.175
      vertex 3.96875 9.5875 3.175
      vertex 3.96875 8 3.175
    endloop
  endfacet
  facet normal -0 0 -1
    outer loop
      vertex 3.96875 9.5875 3.175
      vertex 1.5875 8 3.175
      vertex 1.5875 9.5875 3.175
    endloop
  endfacet
  facet normal 0 0 -1
    outer loop
      vertex 1.5875 3.96875 3.175
      vertex 3.96875 5.55625 3.175
      vertex 3.96875 3.96875 3.175
    endloop
  endfacet
  facet normal -0 0 -1
    outer loop
      vertex 3.96875 5.55625 3.175
      vertex 1.5875 3.96875 3.175
      vertex 1.5875 5.55625 3.175
    endloop
  endfacet
  facet normal 0 0 -1
    outer loop
      vertex 3.96875 3.96875 3.175
      vertex 5.55625 3.96875 3.175
      vertex 5.55625 1.5875 3.175
    endloop
  endfacet
  facet normal 0 0 -1
    outer loop
      vertex 5.55625 3.96875 3.175
      vertex 3.96875 3.96875 3.175
      vertex 5.55625 5.55625 3.175
    endloop
  endfacet
  facet normal 0 0 -1
    outer loop
      vertex 3.96875 3.96875 3.175
      vertex 5.55625 1.5875 3.175
      vertex 3.96875 1.5875 3.175
    endloop
  endfacet
  facet normal -0 0 -1
    outer loop
      vertex 5.55625 5.55625 3.175
      vertex 3.96875 3.96875 3.175
      vertex 3.96875 5.55625 3.175
    endloop
  endfacet
  facet normal 0 0 -1
    outer loop
      vertex 3.96875 8 3.175
      vertex 5.55625 5.55625 3.175
      vertex 3.96875 5.55625 3.175
    endloop
  endfacet
  facet normal 0 0 -1
    outer loop
      vertex 5.55625 5.55625 3.175
      vertex 3.96875 8 3.175
      vertex 5.55625 10 3.175
    endloop
  endfacet
  facet normal 0 0 -1
    outer loop
      vertex 3.96875 9.5875 3.175
      vertex 5.55625 10 3.175
      vertex 3.96875 8 3.175
    endloop
  endfacet
  facet normal -0 0 -1
    outer loop
      vertex 5.55625 10 3.175
      vertex 3.96875 9.5875 3.175
      vertex 3.96875 10 3.175
    endloop
  endfacet
  facet normal 0 -1 0
    outer loop
      vertex 9.5875 3.96875 3.175
      vertex 20 3.96875 24.175
      vertex 9.5875 3.96875 24.175
    endloop
  endfacet
  facet normal 0 -1 -0
    outer loop
      vertex 20 3.96875 24.175
      vertex 9.5875 3.96875 3.175
      vertex 20 3.96875 3.175
    endloop
  endfacet
  facet normal 0 -1 0
    outer loop
      vertex 1.5875 3.96875 3.175
      vertex 3.96875 3.96875 24.175
      vertex 1.5875 3.96875 24.175
    endloop
  endfacet
  facet normal 0 -1 -0
    outer loop
      vertex 3.96875 3.96875 24.175
      vertex 1.5875 3.96875 3.175
      vertex 3.96875 3.96875 3.175
    endloop
  endfacet
  facet normal 0 -1 0
    outer loop
      vertex 5.55625 3.96875 3.175
      vertex 8 3.96875 24.175
      vertex 5.55625 3.96875 24.175
    endloop
  endfacet
  facet normal 0 -1 -0
    outer loop
      vertex 8 3.96875 24.175
      vertex 5.55625 3.96875 3.175
      vertex 8 3.96875 3.175
    endloop
  endfacet
  facet normal 1 0 0
    outer loop
      vertex 1.5875 9.76639 27.35
      vertex 1.5875 9.5875 24.175
      vertex 1.5875 9.76639 0
    endloop
  endfacet
  facet normal 1 0 0
    outer loop
      vertex 1.5875 9.76639 27.35
      vertex 1.5875 8 24.175
      vertex 1.5875 9.5875 24.175
    endloop
  endfacet
  facet normal 1 0 0
    outer loop
      vertex 1.5875 8 24.175
      vertex 1.5875 5.55625 24.175
      vertex 1.5875 8 3.175
    endloop
  endfacet
  facet normal 1 0 0
    outer loop
      vertex 1.5875 9.76639 27.35
      vertex 1.5875 5.55625 24.175
      vertex 1.5875 8 24.175
    endloop
  endfacet
  facet normal 1 -0 0
    outer loop
      vertex 1.5875 1.5875 27.35
      vertex 1.5875 5.55625 24.175
      vertex 1.5875 9.76639 27.35
    endloop
  endfacet
  facet normal 1 0 0
    outer loop
      vertex 1.5875 3.96875 24.175
      vertex 1.5875 1.5875 27.35
      vertex 1.5875 3.96875 3.175
    endloop
  endfacet
  facet normal 1 0 0
    outer loop
      vertex 1.5875 5.55625 24.175
      vertex 1.5875 1.5875 27.35
      vertex 1.5875 3.96875 24.175
    endloop
  endfacet
  facet normal 1 -0 0
    outer loop
      vertex 1.5875 9.5875 3.175
      vertex 1.5875 9.76639 0
      vertex 1.5875 9.5875 24.175
    endloop
  endfacet
  facet normal 1 -0 0
    outer loop
      vertex 1.5875 8 3.175
      vertex 1.5875 9.76639 0
      vertex 1.5875 9.5875 3.175
    endloop
  endfacet
  facet normal 1 0 0
    outer loop
      vertex 1.5875 5.55625 3.175
      vertex 1.5875 8 3.175
      vertex 1.5875 5.55625 24.175
    endloop
  endfacet
  facet normal 1 -0 0
    outer loop
      vertex 1.5875 5.55625 3.175
      vertex 1.5875 9.76639 0
      vertex 1.5875 8 3.175
    endloop
  endfacet
  facet normal 1 0 0
    outer loop
      vertex 1.5875 1.5875 0
      vertex 1.5875 5.55625 3.175
      vertex 1.5875 3.96875 3.175
    endloop
  endfacet
  facet normal 1 0 0
    outer loop
      vertex 1.5875 5.55625 3.175
      vertex 1.5875 1.5875 0
      vertex 1.5875 9.76639 0
    endloop
  endfacet
  facet normal 1 0 0
    outer loop
      vertex 1.5875 1.5875 0
      vertex 1.5875 3.96875 3.175
      vertex 1.5875 1.5875 27.35
    endloop
  endfacet
  facet normal -1 0 0
    outer loop
      vertex 3.96875 9.5875 3.175
      vertex 3.96875 10 24.175
      vertex 3.96875 10 3.175
    endloop
  endfacet
  facet normal -1 -0 0
    outer loop
      vertex 3.96875 10 24.175
      vertex 3.96875 9.5875 3.175
      vertex 3.96875 9.5875 24.175
    endloop
  endfacet
  facet normal -1 0 0
    outer loop
      vertex 3.96875 5.55625 3.175
      vertex 3.96875 8 24.175
      vertex 3.96875 8 3.175
    endloop
  endfacet
  facet normal -1 -0 0
    outer loop
      vertex 3.96875 8 24.175
      vertex 3.96875 5.55625 3.175
      vertex 3.96875 5.55625 24.175
    endloop
  endfacet
  facet normal -1 0 0
    outer loop
      vertex 3.96875 1.5875 3.175
      vertex 3.96875 3.96875 24.175
      vertex 3.96875 3.96875 3.175
    endloop
  endfacet
  facet normal -1 -0 0
    outer loop
      vertex 3.96875 3.96875 24.175
      vertex 3.96875 1.5875 3.175
      vertex 3.96875 1.5875 24.175
    endloop
  endfacet
  facet normal 1 0 0
    outer loop
      vertex 5.55625 8.31697 24.175
      vertex 5.55625 5.97053 24.175
      vertex 5.55625 8.31697 3.175
    endloop
  endfacet
  facet normal 1 -0 0
    outer loop
      vertex 5.55625 9.7228 24.175
      vertex 5.55625 10 3.175
      vertex 5.55625 10 24.175
    endloop
  endfacet
  facet normal 1 -0 0
    outer loop
      vertex 5.55625 9.7228 3.175
      vertex 5.55625 10 3.175
      vertex 5.55625 9.7228 24.175
    endloop
  endfacet
  facet normal 1 -0 0
    outer loop
      vertex 5.55625 8.31697 3.175
      vertex 5.55625 10 3.175
      vertex 5.55625 9.7228 3.175
    endloop
  endfacet
  facet normal 1 0 0
    outer loop
      vertex 5.55625 5.97053 3.175
      vertex 5.55625 8.31697 3.175
      vertex 5.55625 5.97053 24.175
    endloop
  endfacet
  facet normal 1 -0 0
    outer loop
      vertex 5.55625 5.97053 3.175
      vertex 5.55625 10 3.175
      vertex 5.55625 8.31697 3.175
    endloop
  endfacet
  facet normal 1 0 0
    outer loop
      vertex 5.55625 5.97053 3.175
      vertex 5.55625 5.55625 3.175
      vertex 5.55625 10 3.175
    endloop
  endfacet
  facet normal 1 -0 0
    outer loop
      vertex 5.55625 1.5875 24.175
      vertex 5.55625 3.96875 3.175
      vertex 5.55625 3.96875 24.175
    endloop
  endfacet
  facet normal 1 0 0
    outer loop
      vertex 5.55625 3.96875 3.175
      vertex 5.55625 1.5875 24.175
      vertex 5.55625 1.5875 3.175
    endloop
  endfacet
  facet normal 0 1 -0
    outer loop
      vertex 5.55625 10 3.175
      vertex 3.96875 10 24.175
      vertex 5.55625 10 24.175
    endloop
  endfacet
  facet normal 0 1 0
    outer loop
      vertex 3.96875 10 24.175
      vertex 5.55625 10 3.175
      vertex 3.96875 10 3.175
    endloop
  endfacet
  facet normal 0 1 -0
    outer loop
      vertex 3.96875 9.5875 3.175
      vertex 1.5875 9.5875 24.175
      vertex 3.96875 9.5875 24.175
    endloop
  endfacet
  facet normal 0 1 0
    outer loop
      vertex 1.5875 9.5875 24.175
      vertex 3.96875 9.5875 3.175
      vertex 1.5875 9.5875 3.175
    endloop
  endfacet
  facet normal 0 -1 0
    outer loop
      vertex 1.5875 8 3.175
      vertex 3.96875 8 24.175
      vertex 1.5875 8 24.175
    endloop
  endfacet
  facet normal 0 -1 -0
    outer loop
      vertex 3.96875 8 24.175
      vertex 1.5875 8 3.175
      vertex 3.96875 8 3.175
    endloop
  endfacet
  facet normal -1 0 0
    outer loop
      vertex 8 1.5875 3.175
      vertex 8 3.96875 24.175
      vertex 8 3.96875 3.175
    endloop
  endfacet
  facet normal -1 -0 0
    outer loop
      vertex 8 3.96875 24.175
      vertex 8 1.5875 3.175
      vertex 8 1.5875 24.175
    endloop
  endfacet
  facet normal 1 -0 0
    outer loop
      vertex 9.5875 1.64243 24.175
      vertex 9.5875 3.96875 3.175
      vertex 9.5875 3.96875 24.175
    endloop
  endfacet
  facet normal 1 0 0
    outer loop
      vertex 9.5875 3.96875 3.175
      vertex 9.5875 1.64243 24.175
      vertex 9.5875 1.64243 3.175
    endloop
  endfacet
endsolid OpenSCAD_Model
