solid OpenSCAD_Model
  facet normal 0.951057 0.309017 0
    outer loop
      vertex 9.525 6.35 24.175
      vertex 8.91863 8.21622 3.175
      vertex 8.91863 8.21622 24.175
    endloop
  endfacet
  facet normal 0.951057 0.309017 0
    outer loop
      vertex 8.91863 8.21622 3.175
      vertex 9.525 6.35 24.175
      vertex 9.525 6.35 3.175
    endloop
  endfacet
  facet normal 0 1 -0
    outer loop
      vertex 7.33113 9.3696 3.175
      vertex 5.36887 9.3696 24.175
      vertex 7.33113 9.3696 24.175
    endloop
  endfacet
  facet normal 0 1 0
    outer loop
      vertex 5.36887 9.3696 24.175
      vertex 7.33113 9.3696 3.175
      vertex 5.36887 9.3696 3.175
    endloop
  endfacet
  facet normal 0.587785 0.809017 -0
    outer loop
      vertex 8.91863 8.21622 3.175
      vertex 7.33113 9.3696 24.175
      vertex 8.91863 8.21622 24.175
    endloop
  endfacet
  facet normal 0.587785 0.809017 0
    outer loop
      vertex 7.33113 9.3696 24.175
      vertex 8.91863 8.21622 3.175
      vertex 7.33113 9.3696 3.175
    endloop
  endfacet
  facet normal 0 0 1
    outer loop
      vertex 7.9375 6.35 24.175
      vertex 9.525 6.35 24.175
      vertex 8.91863 8.21622 24.175
    endloop
  endfacet
  facet normal 0 0 1
    outer loop
      vertex 9.525 6.35 24.175
      vertex 7.9375 6.35 24.175
      vertex 8.91863 4.48378 24.175
    endloop
  endfacet
  facet normal 0 0 1
    outer loop
      vertex 6.84056 7.8598 24.175
      vertex 8.91863 8.21622 24.175
      vertex 7.33113 9.3696 24.175
    endloop
  endfacet
  facet normal 0 0 1
    outer loop
      vertex 8.91863 8.21622 24.175
      vertex 6.84056 7.8598 24.175
      vertex 7.9375 6.35 24.175
    endloop
  endfacet
  facet normal -0 0 1
    outer loop
      vertex 5.36887 9.3696 24.175
      vertex 6.84056 7.8598 24.175
      vertex 7.33113 9.3696 24.175
    endloop
  endfacet
  facet normal 0 0 1
    outer loop
      vertex 5.36887 9.3696 24.175
      vertex 5.06569 7.28311 24.175
      vertex 6.84056 7.8598 24.175
    endloop
  endfacet
  facet normal 0 0 1
    outer loop
      vertex 3.175 6.35 24.175
      vertex 5.06569 7.28311 24.175
      vertex 3.78137 8.21622 24.175
    endloop
  endfacet
  facet normal -0 0 1
    outer loop
      vertex 3.78137 8.21622 24.175
      vertex 5.06569 7.28311 24.175
      vertex 5.36887 9.3696 24.175
    endloop
  endfacet
  facet normal -0 0 1
    outer loop
      vertex 6.84056 4.8402 24.175
      vertex 8.91863 4.48378 24.175
      vertex 7.9375 6.35 24.175
    endloop
  endfacet
  facet normal 0 0 1
    outer loop
      vertex 8.91863 4.48378 24.175
      vertex 6.84056 4.8402 24.175
      vertex 7.33113 3.3304 24.175
    endloop
  endfacet
  facet normal 0 0 1
    outer loop
      vertex 6.84056 4.8402 24.175
      vertex 5.36887 3.3304 24.175
      vertex 7.33113 3.3304 24.175
    endloop
  endfacet
  facet normal 0 0 1
    outer loop
      vertex 5.06569 5.41689 24.175
      vertex 5.36887 3.3304 24.175
      vertex 6.84056 4.8402 24.175
    endloop
  endfacet
  facet normal 0 0 1
    outer loop
      vertex 5.06569 7.28311 24.175
      vertex 3.175 6.35 24.175
      vertex 5.06569 5.41689 24.175
    endloop
  endfacet
  facet normal 0 0 1
    outer loop
      vertex 5.06569 5.41689 24.175
      vertex 3.78137 4.48378 24.175
      vertex 5.36887 3.3304 24.175
    endloop
  endfacet
  facet normal 0 0 1
    outer loop
      vertex 5.06569 5.41689 24.175
      vertex 3.175 6.35 24.175
      vertex 3.78137 4.48378 24.175
    endloop
  endfacet
  facet normal -0.587786 0.809017 0
    outer loop
      vertex 5.36887 9.3696 3.175
      vertex 4.63649 8.8375 24.175
      vertex 5.36887 9.3696 24.175
    endloop
  endfacet
  facet normal -0.587786 0.809017 0
    outer loop
      vertex 4.63649 8.8375 24.175
      vertex 5.36887 9.3696 3.175
      vertex 4.63649 8.8375 3.175
    endloop
  endfacet
  facet normal 0 0 -1
    outer loop
      vertex 5.36887 9.3696 24.175
      vertex 4.63649 8.8375 24.175
      vertex 3.78137 8.21622 24.175
    endloop
  endfacet
  facet normal 0 0 -1
    outer loop
      vertex 7.25 4.36562 3.175
      vertex 6.84056 4.8402 3.175
      vertex 7.25 4.96875 3.175
    endloop
  endfacet
  facet normal 0 0 -1
    outer loop
      vertex 4.36562 4.36562 3.175
      vertex 6.84056 4.8402 3.175
      vertex 7.25 4.36562 3.175
    endloop
  endfacet
  facet normal 0 0 -1
    outer loop
      vertex 5.06569 5.41689 3.175
      vertex 4.96875 7.25 3.175
      vertex 5.06569 7.28311 3.175
    endloop
  endfacet
  facet normal -0 0 -1
    outer loop
      vertex 6.84056 4.8402 3.175
      vertex 4.36562 4.36562 3.175
      vertex 5.06569 5.41689 3.175
    endloop
  endfacet
  facet normal 0 0 -1
    outer loop
      vertex 4.36562 7.25 3.175
      vertex 5.06569 5.41689 3.175
      vertex 4.36562 4.36562 3.175
    endloop
  endfacet
  facet normal 0 0 -1
    outer loop
      vertex 5.06569 5.41689 3.175
      vertex 4.36562 7.25 3.175
      vertex 4.96875 7.25 3.175
    endloop
  endfacet
  facet normal 0 0 -1
    outer loop
      vertex 7.25 4.96875 3.175
      vertex 7.9375 6.35 3.175
      vertex 8.8375 4.96875 3.175
    endloop
  endfacet
  facet normal 0 0 -1
    outer loop
      vertex 7.9375 6.35 3.175
      vertex 7.25 4.96875 3.175
      vertex 6.84056 4.8402 3.175
    endloop
  endfacet
  facet normal 0 0 -1
    outer loop
      vertex 8.8375 4.96875 3.175
      vertex 9.525 6.35 3.175
      vertex 8.91863 4.48378 3.175
    endloop
  endfacet
  facet normal 0 0 -1
    outer loop
      vertex 8.8375 4.96875 3.175
      vertex 8.91863 4.48378 3.175
      vertex 8.8375 4.42484 3.175
    endloop
  endfacet
  facet normal 0 0 -1
    outer loop
      vertex 7.9375 6.35 3.175
      vertex 9.525 6.35 3.175
      vertex 8.8375 4.96875 3.175
    endloop
  endfacet
  facet normal 0 0 -1
    outer loop
      vertex 9.525 6.35 3.175
      vertex 7.9375 6.35 3.175
      vertex 8.91863 8.21622 3.175
    endloop
  endfacet
  facet normal 0 0 -1
    outer loop
      vertex 6.84056 7.8598 3.175
      vertex 8.91863 8.21622 3.175
      vertex 7.9375 6.35 3.175
    endloop
  endfacet
  facet normal -0 0 -1
    outer loop
      vertex 8.91863 8.21622 3.175
      vertex 6.84056 7.8598 3.175
      vertex 7.33113 9.3696 3.175
    endloop
  endfacet
  facet normal 0 0 -1
    outer loop
      vertex 6.84056 7.8598 3.175
      vertex 5.36887 9.3696 3.175
      vertex 7.33113 9.3696 3.175
    endloop
  endfacet
  facet normal 0 0 -1
    outer loop
      vertex 4.96875 8.8375 3.175
      vertex 6.84056 7.8598 3.175
      vertex 5.06569 7.28311 3.175
    endloop
  endfacet
  facet normal 0 0 -1
    outer loop
      vertex 4.96875 8.8375 3.175
      vertex 5.06569 7.28311 3.175
      vertex 4.96875 7.25 3.175
    endloop
  endfacet
  facet normal 0 0 -1
    outer loop
      vertex 6.84056 7.8598 3.175
      vertex 4.96875 8.8375 3.175
      vertex 5.36887 9.3696 3.175
    endloop
  endfacet
  facet normal 0 0 -1
    outer loop
      vertex 5.36887 9.3696 3.175
      vertex 4.96875 8.8375 3.175
      vertex 4.63649 8.8375 3.175
    endloop
  endfacet
  facet normal 0.587782 -0.809019 0
    outer loop
      vertex 8.8375 4.42484 3.175
      vertex 8.91863 4.48378 24.175
      vertex 8.8375 4.42484 24.175
    endloop
  endfacet
  facet normal 0.587782 -0.809019 0
    outer loop
      vertex 8.91863 4.48378 24.175
      vertex 8.8375 4.42484 3.175
      vertex 8.91863 4.48378 3.175
    endloop
  endfacet
  facet normal 0 0 -1
    outer loop
      vertex 8.91863 4.48378 24.175
      vertex 7.33113 3.3304 24.175
      vertex 8.8375 4.42484 24.175
    endloop
  endfacet
  facet normal 0.951057 -0.309017 0
    outer loop
      vertex 8.91863 4.48378 24.175
      vertex 9.525 6.35 3.175
      vertex 9.525 6.35 24.175
    endloop
  endfacet
  facet normal 0.951057 -0.309017 0
    outer loop
      vertex 9.525 6.35 3.175
      vertex 8.91863 4.48378 24.175
      vertex 8.91863 4.48378 3.175
    endloop
  endfacet
  facet normal -0.809017 -0.587785 0
    outer loop
      vertex 7.9375 6.35 3.175
      vertex 6.84056 7.8598 24.175
      vertex 6.84056 7.8598 3.175
    endloop
  endfacet
  facet normal -0.809017 -0.587785 0
    outer loop
      vertex 6.84056 7.8598 24.175
      vertex 7.9375 6.35 3.175
      vertex 7.9375 6.35 24.175
    endloop
  endfacet
  facet normal 1 -0 0
    outer loop
      vertex 5.06569 5.41689 24.175
      vertex 5.06569 7.28311 3.175
      vertex 5.06569 7.28311 24.175
    endloop
  endfacet
  facet normal 1 0 0
    outer loop
      vertex 5.06569 7.28311 3.175
      vertex 5.06569 5.41689 24.175
      vertex 5.06569 5.41689 3.175
    endloop
  endfacet
  facet normal 0.309017 -0.951056 0
    outer loop
      vertex 5.06569 7.28311 3.175
      vertex 6.84056 7.8598 24.175
      vertex 5.06569 7.28311 24.175
    endloop
  endfacet
  facet normal 0.309017 -0.951056 0
    outer loop
      vertex 6.84056 7.8598 24.175
      vertex 5.06569 7.28311 3.175
      vertex 6.84056 7.8598 3.175
    endloop
  endfacet
  facet normal 0.309017 0.951056 -0
    outer loop
      vertex 6.84056 4.8402 3.175
      vertex 5.06569 5.41689 24.175
      vertex 6.84056 4.8402 24.175
    endloop
  endfacet
  facet normal 0.309017 0.951056 0
    outer loop
      vertex 5.06569 5.41689 24.175
      vertex 6.84056 4.8402 3.175
      vertex 5.06569 5.41689 3.175
    endloop
  endfacet
  facet normal -0.809017 0.587785 0
    outer loop
      vertex 6.84056 4.8402 3.175
      vertex 7.9375 6.35 24.175
      vertex 7.9375 6.35 3.175
    endloop
  endfacet
  facet normal -0.809017 0.587785 0
    outer loop
      vertex 7.9375 6.35 24.175
      vertex 6.84056 4.8402 3.175
      vertex 6.84056 4.8402 24.175
    endloop
  endfacet
  facet normal 0.900969 0.433884 0
    outer loop
      vertex 1.7 -0.299999 27.35
      vertex 1.55553 0 0
      vertex 1.55553 0 27.35
    endloop
  endfacet
  facet normal 0.900969 0.433884 0
    outer loop
      vertex 1.55553 0 0
      vertex 1.7 -0.299999 27.35
      vertex 1.7 -0.299999 0
    endloop
  endfacet
  facet normal -1 0 0
    outer loop
      vertex -2.10194 -1.16777 0
      vertex -2.10194 0.567767 27.35
      vertex -2.10194 0.567767 0
    endloop
  endfacet
  facet normal -1 -0 0
    outer loop
      vertex -2.10194 0.567767 27.35
      vertex -2.10194 -1.16777 0
      vertex -2.10194 -1.16777 27.35
    endloop
  endfacet
  facet normal 0.222521 0.974928 -0
    outer loop
      vertex 0 1.4798 0
      vertex -0.745042 1.64986 27.35
      vertex 0 1.4798 27.35
    endloop
  endfacet
  facet normal 0.222521 0.974928 0
    outer loop
      vertex -0.745042 1.64986 27.35
      vertex 0 1.4798 0
      vertex -0.745042 1.64986 0
    endloop
  endfacet
  facet normal -0 0 -1
    outer loop
      vertex 1.7 -0.299999 0
      vertex 0.94698 -1.86366 0
      vertex 1.55553 0 0
    endloop
  endfacet
  facet normal -0 0 -1
    outer loop
      vertex 1.7 10 0
      vertex 1.5875 9.76639 0
      vertex 1.5875 10.2336 0
    endloop
  endfacet
  facet normal -0 0 -1
    outer loop
      vertex 12 -0.299999 0
      vertex 11.247 -1.86366 0
      vertex 11.8555 0 0
    endloop
  endfacet
  facet normal 0 0 -1
    outer loop
      vertex 20 1.54828 0
      vertex 22 -0.299999 0
      vertex 21.247 -1.86366 0
    endloop
  endfacet
  facet normal 0 0 -1
    outer loop
      vertex 22 -0.299999 0
      vertex 20 1.54828 0
      vertex 21.247 1.26366 0
    endloop
  endfacet
  facet normal 0 0 -1
    outer loop
      vertex 20 1.54828 0
      vertex 19.8282 1.5875 0
      vertex 20 1.5875 0
    endloop
  endfacet
  facet normal 0 0 -1
    outer loop
      vertex 18.1981 0 0
      vertex 20 1.54828 0
      vertex 21.247 -1.86366 0
    endloop
  endfacet
  facet normal 0 0 -1
    outer loop
      vertex 18.1981 0 0
      vertex 21.247 -1.86366 0
      vertex 19.555 -2.24986 0
    endloop
  endfacet
  facet normal 0 -0 -1
    outer loop
      vertex 19.4768 1.5875 0
      vertex 20 1.54828 0
      vertex 18.1981 0 0
    endloop
  endfacet
  facet normal 0 0 -1
    outer loop
      vertex 19.8282 1.5875 0
      vertex 19.4768 1.5875 0
      vertex 19.555 1.64986 0
    endloop
  endfacet
  facet normal 0 0 -1
    outer loop
      vertex 18.1981 0 0
      vertex 19.555 -2.24986 0
      vertex 18.1981 -1.16777 0
    endloop
  endfacet
  facet normal 0 0 -1
    outer loop
      vertex 20 1.54828 0
      vertex 19.4768 1.5875 0
      vertex 19.8282 1.5875 0
    endloop
  endfacet
  facet normal 0 0 -1
    outer loop
      vertex 11.8555 0 0
      vertex 19.4768 1.5875 0
      vertex 18.1981 0 0
    endloop
  endfacet
  facet normal 0 0 -1
    outer loop
      vertex 11.8555 0 0
      vertex 9.82816 1.5875 0
      vertex 19.4768 1.5875 0
    endloop
  endfacet
  facet normal 0 0 -1
    outer loop
      vertex 8.19806 0 0
      vertex 11.8555 0 0
      vertex 11.247 -1.86366 0
    endloop
  endfacet
  facet normal 0 0 -1
    outer loop
      vertex 8.19806 0 0
      vertex 11.247 -1.86366 0
      vertex 9.55496 -2.24986 0
    endloop
  endfacet
  facet normal 0 0 -1
    outer loop
      vertex 11.8555 0 0
      vertex 8.19806 0 0
      vertex 9.82816 1.5875 0
    endloop
  endfacet
  facet normal 0 0 -1
    outer loop
      vertex 9.82816 1.5875 0
      vertex 9.47677 1.5875 0
      vertex 9.55496 1.64986 0
    endloop
  endfacet
  facet normal 0 0 -1
    outer loop
      vertex 8.19806 0 0
      vertex 9.55496 -2.24986 0
      vertex 8.19806 -1.16777 0
    endloop
  endfacet
  facet normal -0 0 -1
    outer loop
      vertex 9.82816 1.5875 0
      vertex 8.19806 0 0
      vertex 9.47677 1.5875 0
    endloop
  endfacet
  facet normal 0 0 -1
    outer loop
      vertex 8.19806 0 0
      vertex 1.5875 1.5875 0
      vertex 9.47677 1.5875 0
    endloop
  endfacet
  facet normal 0 0 -1
    outer loop
      vertex 0 8.22019 0
      vertex 1.5875 9.76639 0
      vertex 1.5875 1.5875 0
    endloop
  endfacet
  facet normal -0 0 -1
    outer loop
      vertex 1.5875 9.76639 0
      vertex 0 8.22019 0
      vertex 1.5875 10.2336 0
    endloop
  endfacet
  facet normal 0 0 -1
    outer loop
      vertex 0 1.4798 0
      vertex 1.5875 1.5875 0
      vertex 1.55553 0 0
    endloop
  endfacet
  facet normal 0 0 -1
    outer loop
      vertex 1.55553 0 0
      vertex 1.5875 1.5875 0
      vertex 8.19806 0 0
    endloop
  endfacet
  facet normal 0 0 -1
    outer loop
      vertex -0.745042 -2.24986 0
      vertex 1.55553 0 0
      vertex 0.94698 -1.86366 0
    endloop
  endfacet
  facet normal 0 0 -1
    outer loop
      vertex 1.5875 19.7664 0
      vertex 0.94698 21.5637 0
      vertex 1.7 20 0
    endloop
  endfacet
  facet normal -0 0 -1
    outer loop
      vertex 1.5875 10.2336 0
      vertex 0 8.22019 0
      vertex 0 11.7798 0
    endloop
  endfacet
  facet normal -0 0 -1
    outer loop
      vertex 1.5875 1.5875 0
      vertex 0 1.4798 0
      vertex 0 8.22019 0
    endloop
  endfacet
  facet normal -0 0 -1
    outer loop
      vertex 1.55553 0 0
      vertex -0.745042 -2.24986 0
      vertex 0 1.4798 0
    endloop
  endfacet
  facet normal 0 0 -1
    outer loop
      vertex -2.10194 -1.16777 0
      vertex 0 1.4798 0
      vertex -0.745042 -2.24986 0
    endloop
  endfacet
  facet normal 0 0 -1
    outer loop
      vertex -2.10194 0.567767 0
      vertex 0 1.4798 0
      vertex -2.10194 -1.16777 0
    endloop
  endfacet
  facet normal -0 0 -1
    outer loop
      vertex 0 1.4798 0
      vertex -2.10194 0.567767 0
      vertex -0.745042 1.64986 0
    endloop
  endfacet
  facet normal 0 0 -1
    outer loop
      vertex -2.10194 9.13223 0
      vertex 0 8.22019 0
      vertex -0.745042 8.05014 0
    endloop
  endfacet
  facet normal 0 0 -1
    outer loop
      vertex 0 8.22019 0
      vertex -2.10194 9.13223 0
      vertex 0 11.7798 0
    endloop
  endfacet
  facet normal 0 0 -1
    outer loop
      vertex -2.10194 10.8678 0
      vertex 0 11.7798 0
      vertex -2.10194 9.13223 0
    endloop
  endfacet
  facet normal -0 0 -1
    outer loop
      vertex 0 11.7798 0
      vertex -2.10194 10.8678 0
      vertex -0.745042 11.9499 0
    endloop
  endfacet
  facet normal 0 0 -1
    outer loop
      vertex 1.5875 10.2336 0
      vertex 0 11.7798 0
      vertex 1.5875 19.7664 0
    endloop
  endfacet
  facet normal 0 0 -1
    outer loop
      vertex 0 18.2202 0
      vertex 1.5875 19.7664 0
      vertex 0 11.7798 0
    endloop
  endfacet
  facet normal -0 0 -1
    outer loop
      vertex 1.5875 19.7664 0
      vertex 0 18.2202 0
      vertex 0.94698 21.5637 0
    endloop
  endfacet
  facet normal 0 0 -1
    outer loop
      vertex -2.10194 19.1322 0
      vertex 0 18.2202 0
      vertex -0.745042 18.0501 0
    endloop
  endfacet
  facet normal 0 0 -1
    outer loop
      vertex 0 18.2202 0
      vertex -0.745042 21.9499 0
      vertex 0.94698 21.5637 0
    endloop
  endfacet
  facet normal 0 0 -1
    outer loop
      vertex -2.10194 20.8678 0
      vertex 0 18.2202 0
      vertex -2.10194 19.1322 0
    endloop
  endfacet
  facet normal 0 0 -1
    outer loop
      vertex 0 18.2202 0
      vertex -2.10194 20.8678 0
      vertex -0.745042 21.9499 0
    endloop
  endfacet
  facet normal -0 0 1
    outer loop
      vertex 0 11.7798 27.35
      vertex 1.5875 10.2336 27.35
      vertex 1.5875 19.7664 27.35
    endloop
  endfacet
  facet normal 0 0 1
    outer loop
      vertex 1.5875 10.2336 27.35
      vertex 0 11.7798 27.35
      vertex 1.5875 9.76639 27.35
    endloop
  endfacet
  facet normal 0 0 1
    outer loop
      vertex 0 8.22019 27.35
      vertex 1.5875 9.76639 27.35
      vertex 0 11.7798 27.35
    endloop
  endfacet
  facet normal 0 0 1
    outer loop
      vertex 0 18.2202 27.35
      vertex 1.5875 19.7664 27.35
      vertex 0.94698 21.5637 27.35
    endloop
  endfacet
  facet normal 0 0 1
    outer loop
      vertex 0.94698 21.5637 27.35
      vertex 1.5875 19.7664 27.35
      vertex 1.7 20 27.35
    endloop
  endfacet
  facet normal 0 0 1
    outer loop
      vertex 1.7 10 27.35
      vertex 1.5875 10.2336 27.35
      vertex 1.5875 9.76639 27.35
    endloop
  endfacet
  facet normal -0 0 1
    outer loop
      vertex 1.5875 1.5875 27.35
      vertex 8.19806 0 27.35
      vertex 9.47677 1.5875 27.35
    endloop
  endfacet
  facet normal 0 0 1
    outer loop
      vertex 8.19806 0 27.35
      vertex 1.5875 1.5875 27.35
      vertex 1.55553 0 27.35
    endloop
  endfacet
  facet normal 0 0 1
    outer loop
      vertex 19.4768 1.5875 27.35
      vertex 11.8555 0 27.35
      vertex 18.1981 0 27.35
    endloop
  endfacet
  facet normal -0 0 1
    outer loop
      vertex 9.82816 1.5875 27.35
      vertex 11.8555 0 27.35
      vertex 19.4768 1.5875 27.35
    endloop
  endfacet
  facet normal 0 0 1
    outer loop
      vertex 8.19806 0 27.35
      vertex 11.8555 0 27.35
      vertex 9.82816 1.5875 27.35
    endloop
  endfacet
  facet normal 0 0 1
    outer loop
      vertex 9.47677 1.5875 27.35
      vertex 9.82816 1.5875 27.35
      vertex 9.55496 1.64986 27.35
    endloop
  endfacet
  facet normal 0 0 1
    outer loop
      vertex 8.19806 0 27.35
      vertex 9.82816 1.5875 27.35
      vertex 9.47677 1.5875 27.35
    endloop
  endfacet
  facet normal 0 0 1
    outer loop
      vertex 11.8555 0 27.35
      vertex 8.19806 0 27.35
      vertex 11.247 -1.86366 27.35
    endloop
  endfacet
  facet normal 0 0 1
    outer loop
      vertex 11.247 -1.86366 27.35
      vertex 8.19806 0 27.35
      vertex 9.55496 -2.24986 27.35
    endloop
  endfacet
  facet normal 0 0 1
    outer loop
      vertex 9.55496 -2.24986 27.35
      vertex 8.19806 0 27.35
      vertex 8.19806 -1.16777 27.35
    endloop
  endfacet
  facet normal 0 0 1
    outer loop
      vertex 12 -0.299999 27.35
      vertex 11.8555 0 27.35
      vertex 11.247 -1.86366 27.35
    endloop
  endfacet
  facet normal 0 0 1
    outer loop
      vertex 20 1.5875 27.35
      vertex 19.8282 1.5875 27.35
      vertex 20 1.54828 27.35
    endloop
  endfacet
  facet normal 0 0 1
    outer loop
      vertex 20 1.54828 27.35
      vertex 22 -0.299999 27.35
      vertex 21.247 1.26366 27.35
    endloop
  endfacet
  facet normal 0 0 1
    outer loop
      vertex 22 -0.299999 27.35
      vertex 20 1.54828 27.35
      vertex 21.247 -1.86366 27.35
    endloop
  endfacet
  facet normal -0 0 1
    outer loop
      vertex 19.4768 1.5875 27.35
      vertex 20 1.54828 27.35
      vertex 19.8282 1.5875 27.35
    endloop
  endfacet
  facet normal 0 0 1
    outer loop
      vertex 19.4768 1.5875 27.35
      vertex 19.8282 1.5875 27.35
      vertex 19.555 1.64986 27.35
    endloop
  endfacet
  facet normal 0 0 1
    outer loop
      vertex 20 1.54828 27.35
      vertex 19.4768 1.5875 27.35
      vertex 18.1981 0 27.35
    endloop
  endfacet
  facet normal 0 0 1
    outer loop
      vertex 20 1.54828 27.35
      vertex 18.1981 0 27.35
      vertex 21.247 -1.86366 27.35
    endloop
  endfacet
  facet normal 0 0 1
    outer loop
      vertex 21.247 -1.86366 27.35
      vertex 18.1981 0 27.35
      vertex 19.555 -2.24986 27.35
    endloop
  endfacet
  facet normal 0 0 1
    outer loop
      vertex 19.555 -2.24986 27.35
      vertex 18.1981 0 27.35
      vertex 18.1981 -1.16777 27.35
    endloop
  endfacet
  facet normal 0 0 1
    outer loop
      vertex 1.55553 0 27.35
      vertex 0.94698 -1.86366 27.35
      vertex 1.7 -0.299999 27.35
    endloop
  endfacet
  facet normal 0 0 1
    outer loop
      vertex 1.5875 9.76639 27.35
      vertex 0 8.22019 27.35
      vertex 1.5875 1.5875 27.35
    endloop
  endfacet
  facet normal 0 0 1
    outer loop
      vertex 1.5875 19.7664 27.35
      vertex 0 18.2202 27.35
      vertex 0 11.7798 27.35
    endloop
  endfacet
  facet normal 0 0 1
    outer loop
      vertex -0.745042 21.9499 27.35
      vertex 0 18.2202 27.35
      vertex 0.94698 21.5637 27.35
    endloop
  endfacet
  facet normal -0 0 1
    outer loop
      vertex -2.10194 20.8678 27.35
      vertex 0 18.2202 27.35
      vertex -0.745042 21.9499 27.35
    endloop
  endfacet
  facet normal -0 0 1
    outer loop
      vertex -2.10194 19.1322 27.35
      vertex 0 18.2202 27.35
      vertex -2.10194 20.8678 27.35
    endloop
  endfacet
  facet normal 0 0 1
    outer loop
      vertex 0 18.2202 27.35
      vertex -2.10194 19.1322 27.35
      vertex -0.745042 18.0501 27.35
    endloop
  endfacet
  facet normal 0 0 1
    outer loop
      vertex -2.10194 10.8678 27.35
      vertex 0 11.7798 27.35
      vertex -0.745042 11.9499 27.35
    endloop
  endfacet
  facet normal 0 0 1
    outer loop
      vertex 0 11.7798 27.35
      vertex -2.10194 10.8678 27.35
      vertex 0 8.22019 27.35
    endloop
  endfacet
  facet normal -0 0 1
    outer loop
      vertex -2.10194 9.13223 27.35
      vertex 0 8.22019 27.35
      vertex -2.10194 10.8678 27.35
    endloop
  endfacet
  facet normal 0 0 1
    outer loop
      vertex 0 8.22019 27.35
      vertex -2.10194 9.13223 27.35
      vertex -0.745042 8.05014 27.35
    endloop
  endfacet
  facet normal 0 0 1
    outer loop
      vertex 0 1.4798 27.35
      vertex 1.5875 1.5875 27.35
      vertex 0 8.22019 27.35
    endloop
  endfacet
  facet normal 0 0 1
    outer loop
      vertex 1.5875 1.5875 27.35
      vertex 0 1.4798 27.35
      vertex 1.55553 0 27.35
    endloop
  endfacet
  facet normal 0 0 1
    outer loop
      vertex -0.745042 -2.24986 27.35
      vertex 1.55553 0 27.35
      vertex 0 1.4798 27.35
    endloop
  endfacet
  facet normal 0 0 1
    outer loop
      vertex -2.10194 0.567767 27.35
      vertex 0 1.4798 27.35
      vertex -0.745042 1.64986 27.35
    endloop
  endfacet
  facet normal 0 0 1
    outer loop
      vertex 1.55553 0 27.35
      vertex -0.745042 -2.24986 27.35
      vertex 0.94698 -1.86366 27.35
    endloop
  endfacet
  facet normal 0 0 1
    outer loop
      vertex -2.10194 -1.16777 27.35
      vertex 0 1.4798 27.35
      vertex -2.10194 0.567767 27.35
    endloop
  endfacet
  facet normal 0 0 1
    outer loop
      vertex 0 1.4798 27.35
      vertex -2.10194 -1.16777 27.35
      vertex -0.745042 -2.24986 27.35
    endloop
  endfacet
  facet normal -0.62349 0.781831 0
    outer loop
      vertex -0.745042 1.64986 0
      vertex -2.10194 0.567767 27.35
      vertex -0.745042 1.64986 27.35
    endloop
  endfacet
  facet normal -0.62349 0.781831 0
    outer loop
      vertex -2.10194 0.567767 27.35
      vertex -0.745042 1.64986 0
      vertex -2.10194 0.567767 0
    endloop
  endfacet
  facet normal 0.900969 -0.433884 0
    outer loop
      vertex 0.94698 -1.86366 27.35
      vertex 1.7 -0.299999 0
      vertex 1.7 -0.299999 27.35
    endloop
  endfacet
  facet normal 0.900969 -0.433884 0
    outer loop
      vertex 1.7 -0.299999 0
      vertex 0.94698 -1.86366 27.35
      vertex 0.94698 -1.86366 0
    endloop
  endfacet
  facet normal -0.62349 -0.781831 0
    outer loop
      vertex -2.10194 -1.16777 0
      vertex -0.745042 -2.24986 27.35
      vertex -2.10194 -1.16777 27.35
    endloop
  endfacet
  facet normal -0.62349 -0.781831 -0
    outer loop
      vertex -0.745042 -2.24986 27.35
      vertex -2.10194 -1.16777 0
      vertex -0.745042 -2.24986 0
    endloop
  endfacet
  facet normal 0.222521 -0.974928 0
    outer loop
      vertex -0.745042 -2.24986 0
      vertex 0.94698 -1.86366 27.35
      vertex -0.745042 -2.24986 27.35
    endloop
  endfacet
  facet normal 0.222521 -0.974928 0
    outer loop
      vertex 0.94698 -1.86366 27.35
      vertex -0.745042 -2.24986 0
      vertex 0.94698 -1.86366 0
    endloop
  endfacet
  facet normal 0.900969 0.433884 0
    outer loop
      vertex 12 -0.299999 27.35
      vertex 11.8555 0 0
      vertex 11.8555 0 27.35
    endloop
  endfacet
  facet normal 0.900969 0.433884 0
    outer loop
      vertex 11.8555 0 0
      vertex 12 -0.299999 27.35
      vertex 12 -0.299999 0
    endloop
  endfacet
  facet normal -1 0 0
    outer loop
      vertex 8.19806 -1.16777 0
      vertex 8.19806 0 27.35
      vertex 8.19806 0 0
    endloop
  endfacet
  facet normal -1 -0 0
    outer loop
      vertex 8.19806 0 27.35
      vertex 8.19806 -1.16777 0
      vertex 8.19806 -1.16777 27.35
    endloop
  endfacet
  facet normal 0.222521 0.974928 -0
    outer loop
      vertex 9.82816 1.5875 0
      vertex 9.55496 1.64986 27.35
      vertex 9.82816 1.5875 27.35
    endloop
  endfacet
  facet normal 0.222521 0.974928 0
    outer loop
      vertex 9.55496 1.64986 27.35
      vertex 9.82816 1.5875 0
      vertex 9.55496 1.64986 0
    endloop
  endfacet
  facet normal -0.623491 0.781831 0
    outer loop
      vertex 9.55496 1.64986 0
      vertex 9.47677 1.5875 27.35
      vertex 9.55496 1.64986 27.35
    endloop
  endfacet
  facet normal -0.623491 0.781831 0
    outer loop
      vertex 9.47677 1.5875 27.35
      vertex 9.55496 1.64986 0
      vertex 9.47677 1.5875 0
    endloop
  endfacet
  facet normal 0.900969 -0.433884 0
    outer loop
      vertex 11.247 -1.86366 27.35
      vertex 12 -0.299999 0
      vertex 12 -0.299999 27.35
    endloop
  endfacet
  facet normal 0.900969 -0.433884 0
    outer loop
      vertex 12 -0.299999 0
      vertex 11.247 -1.86366 27.35
      vertex 11.247 -1.86366 0
    endloop
  endfacet
  facet normal -0.62349 -0.781831 0
    outer loop
      vertex 8.19806 -1.16777 0
      vertex 9.55496 -2.24986 27.35
      vertex 8.19806 -1.16777 27.35
    endloop
  endfacet
  facet normal -0.62349 -0.781831 -0
    outer loop
      vertex 9.55496 -2.24986 27.35
      vertex 8.19806 -1.16777 0
      vertex 9.55496 -2.24986 0
    endloop
  endfacet
  facet normal 0.222521 -0.974928 0
    outer loop
      vertex 9.55496 -2.24986 0
      vertex 11.247 -1.86366 27.35
      vertex 9.55496 -2.24986 27.35
    endloop
  endfacet
  facet normal 0.222521 -0.974928 0
    outer loop
      vertex 11.247 -1.86366 27.35
      vertex 9.55496 -2.24986 0
      vertex 11.247 -1.86366 0
    endloop
  endfacet
  facet normal 0.900969 0.433884 0
    outer loop
      vertex 1.7 10 27.35
      vertex 1.5875 10.2336 0
      vertex 1.5875 10.2336 27.35
    endloop
  endfacet
  facet normal 0.900969 0.433884 0
    outer loop
      vertex 1.5875 10.2336 0
      vertex 1.7 10 27.35
      vertex 1.7 10 0
    endloop
  endfacet
  facet normal -1 0 0
    outer loop
      vertex -2.10194 9.13223 0
      vertex -2.10194 10.8678 27.35
      vertex -2.10194 10.8678 0
    endloop
  endfacet
  facet normal -1 -0 0
    outer loop
      vertex -2.10194 10.8678 27.35
      vertex -2.10194 9.13223 0
      vertex -2.10194 9.13223 27.35
    endloop
  endfacet
  facet normal 0.222522 0.974928 -0
    outer loop
      vertex 0 11.7798 0
      vertex -0.745042 11.9499 27.35
      vertex 0 11.7798 27.35
    endloop
  endfacet
  facet normal 0.222522 0.974928 0
    outer loop
      vertex -0.745042 11.9499 27.35
      vertex 0 11.7798 0
      vertex -0.745042 11.9499 0
    endloop
  endfacet
  facet normal -0.62349 0.781831 0
    outer loop
      vertex -0.745042 11.9499 0
      vertex -2.10194 10.8678 27.35
      vertex -0.745042 11.9499 27.35
    endloop
  endfacet
  facet normal -0.62349 0.781831 0
    outer loop
      vertex -2.10194 10.8678 27.35
      vertex -0.745042 11.9499 0
      vertex -2.10194 10.8678 0
    endloop
  endfacet
  facet normal 0.222522 -0.974928 0
    outer loop
      vertex -0.745042 8.05014 0
      vertex 0 8.22019 27.35
      vertex -0.745042 8.05014 27.35
    endloop
  endfacet
  facet normal 0.222522 -0.974928 0
    outer loop
      vertex 0 8.22019 27.35
      vertex -0.745042 8.05014 0
      vertex 0 8.22019 0
    endloop
  endfacet
  facet normal -0.62349 -0.781831 0
    outer loop
      vertex -2.10194 9.13223 0
      vertex -0.745042 8.05014 27.35
      vertex -2.10194 9.13223 27.35
    endloop
  endfacet
  facet normal -0.62349 -0.781831 -0
    outer loop
      vertex -0.745042 8.05014 27.35
      vertex -2.10194 9.13223 0
      vertex -0.745042 8.05014 0
    endloop
  endfacet
  facet normal 0.900969 -0.433884 0
    outer loop
      vertex 1.5875 9.76639 27.35
      vertex 1.7 10 0
      vertex 1.7 10 27.35
    endloop
  endfacet
  facet normal 0.900969 -0.433884 0
    outer loop
      vertex 1.7 10 0
      vertex 1.5875 9.76639 27.35
      vertex 1.5875 9.76639 0
    endloop
  endfacet
  facet normal 0.900969 0.433884 0
    outer loop
      vertex 22 -0.299999 27.35
      vertex 21.247 1.26366 0
      vertex 21.247 1.26366 27.35
    endloop
  endfacet
  facet normal 0.900969 0.433884 0
    outer loop
      vertex 21.247 1.26366 0
      vertex 22 -0.299999 27.35
      vertex 22 -0.299999 0
    endloop
  endfacet
  facet normal -1 0 0
    outer loop
      vertex 18.1981 -1.16777 0
      vertex 18.1981 0 27.35
      vertex 18.1981 0 0
    endloop
  endfacet
  facet normal -1 -0 0
    outer loop
      vertex 18.1981 0 27.35
      vertex 18.1981 -1.16777 0
      vertex 18.1981 -1.16777 27.35
    endloop
  endfacet
  facet normal 0.222521 0.974928 -0
    outer loop
      vertex 21.247 1.26366 0
      vertex 20 1.54828 27.35
      vertex 21.247 1.26366 27.35
    endloop
  endfacet
  facet normal 0.222521 0.974928 0
    outer loop
      vertex 20 1.54828 27.35
      vertex 21.247 1.26366 0
      vertex 20 1.54828 0
    endloop
  endfacet
  facet normal 0.222521 0.974928 -0
    outer loop
      vertex 19.8282 1.5875 0
      vertex 19.555 1.64986 27.35
      vertex 19.8282 1.5875 27.35
    endloop
  endfacet
  facet normal 0.222521 0.974928 0
    outer loop
      vertex 19.555 1.64986 27.35
      vertex 19.8282 1.5875 0
      vertex 19.555 1.64986 0
    endloop
  endfacet
  facet normal -0.623481 0.781838 0
    outer loop
      vertex 19.555 1.64986 0
      vertex 19.4768 1.5875 27.35
      vertex 19.555 1.64986 27.35
    endloop
  endfacet
  facet normal -0.623481 0.781838 0
    outer loop
      vertex 19.4768 1.5875 27.35
      vertex 19.555 1.64986 0
      vertex 19.4768 1.5875 0
    endloop
  endfacet
  facet normal 0.900969 -0.433884 0
    outer loop
      vertex 21.247 -1.86366 27.35
      vertex 22 -0.299999 0
      vertex 22 -0.299999 27.35
    endloop
  endfacet
  facet normal 0.900969 -0.433884 0
    outer loop
      vertex 22 -0.299999 0
      vertex 21.247 -1.86366 27.35
      vertex 21.247 -1.86366 0
    endloop
  endfacet
  facet normal -0.62349 -0.781831 0
    outer loop
      vertex 18.1981 -1.16777 0
      vertex 19.555 -2.24986 27.35
      vertex 18.1981 -1.16777 27.35
    endloop
  endfacet
  facet normal -0.62349 -0.781831 -0
    outer loop
      vertex 19.555 -2.24986 27.35
      vertex 18.1981 -1.16777 0
      vertex 19.555 -2.24986 0
    endloop
  endfacet
  facet normal 0.222521 -0.974928 0
    outer loop
      vertex 19.555 -2.24986 0
      vertex 21.247 -1.86366 27.35
      vertex 19.555 -2.24986 27.35
    endloop
  endfacet
  facet normal 0.222521 -0.974928 0
    outer loop
      vertex 21.247 -1.86366 27.35
      vertex 19.555 -2.24986 0
      vertex 21.247 -1.86366 0
    endloop
  endfacet
  facet normal 0.900969 0.433884 0
    outer loop
      vertex 1.7 20 27.35
      vertex 0.94698 21.5637 0
      vertex 0.94698 21.5637 27.35
    endloop
  endfacet
  facet normal 0.900969 0.433884 0
    outer loop
      vertex 0.94698 21.5637 0
      vertex 1.7 20 27.35
      vertex 1.7 20 0
    endloop
  endfacet
  facet normal -1 0 0
    outer loop
      vertex -2.10194 19.1322 0
      vertex -2.10194 20.8678 27.35
      vertex -2.10194 20.8678 0
    endloop
  endfacet
  facet normal -1 -0 0
    outer loop
      vertex -2.10194 20.8678 27.35
      vertex -2.10194 19.1322 0
      vertex -2.10194 19.1322 27.35
    endloop
  endfacet
  facet normal 0.222521 0.974928 -0
    outer loop
      vertex 0.94698 21.5637 0
      vertex -0.745042 21.9499 27.35
      vertex 0.94698 21.5637 27.35
    endloop
  endfacet
  facet normal 0.222521 0.974928 0
    outer loop
      vertex -0.745042 21.9499 27.35
      vertex 0.94698 21.5637 0
      vertex -0.745042 21.9499 0
    endloop
  endfacet
  facet normal -0.62349 0.781831 0
    outer loop
      vertex -0.745042 21.9499 0
      vertex -2.10194 20.8678 27.35
      vertex -0.745042 21.9499 27.35
    endloop
  endfacet
  facet normal -0.62349 0.781831 0
    outer loop
      vertex -2.10194 20.8678 27.35
      vertex -0.745042 21.9499 0
      vertex -2.10194 20.8678 0
    endloop
  endfacet
  facet normal 0.900968 -0.433885 0
    outer loop
      vertex 1.5875 19.7664 27.35
      vertex 1.7 20 0
      vertex 1.7 20 27.35
    endloop
  endfacet
  facet normal 0.900968 -0.433885 0
    outer loop
      vertex 1.7 20 0
      vertex 1.5875 19.7664 27.35
      vertex 1.5875 19.7664 0
    endloop
  endfacet
  facet normal 0.222519 -0.974928 0
    outer loop
      vertex -0.745042 18.0501 0
      vertex 0 18.2202 27.35
      vertex -0.745042 18.0501 27.35
    endloop
  endfacet
  facet normal 0.222519 -0.974928 0
    outer loop
      vertex 0 18.2202 27.35
      vertex -0.745042 18.0501 0
      vertex 0 18.2202 0
    endloop
  endfacet
  facet normal -0.62349 -0.781831 0
    outer loop
      vertex -2.10194 19.1322 0
      vertex -0.745042 18.0501 27.35
      vertex -2.10194 19.1322 27.35
    endloop
  endfacet
  facet normal -0.62349 -0.781831 -0
    outer loop
      vertex -0.745042 18.0501 27.35
      vertex -2.10194 19.1322 0
      vertex -0.745042 18.0501 0
    endloop
  endfacet
  facet normal -1 0 0
    outer loop
      vertex 0 1.4798 0
      vertex 0 8.22019 27.35
      vertex 0 8.22019 0
    endloop
  endfacet
  facet normal -1 -0 0
    outer loop
      vertex 0 8.22019 27.35
      vertex 0 1.4798 0
      vertex 0 1.4798 27.35
    endloop
  endfacet
  facet normal -1 0 0
    outer loop
      vertex 0 11.7798 0
      vertex 0 18.2202 27.35
      vertex 0 18.2202 0
    endloop
  endfacet
  facet normal -1 -0 0
    outer loop
      vertex 0 18.2202 27.35
      vertex 0 11.7798 0
      vertex 0 11.7798 27.35
    endloop
  endfacet
  facet normal 1 -0 0
    outer loop
      vertex 20 1.54828 27.35
      vertex 20 1.5875 0
      vertex 20 1.5875 27.35
    endloop
  endfacet
  facet normal 1 0 0
    outer loop
      vertex 20 1.5875 0
      vertex 20 1.54828 27.35
      vertex 20 1.54828 0
    endloop
  endfacet
  facet normal 0 -1 0
    outer loop
      vertex 11.8555 0 0
      vertex 18.1981 0 27.35
      vertex 11.8555 0 27.35
    endloop
  endfacet
  facet normal 0 -1 -0
    outer loop
      vertex 18.1981 0 27.35
      vertex 11.8555 0 0
      vertex 18.1981 0 0
    endloop
  endfacet
  facet normal 0 -1 0
    outer loop
      vertex 1.55553 0 0
      vertex 8.19806 0 27.35
      vertex 1.55553 0 27.35
    endloop
  endfacet
  facet normal 0 -1 -0
    outer loop
      vertex 8.19806 0 27.35
      vertex 1.55553 0 0
      vertex 8.19806 0 0
    endloop
  endfacet
  facet normal 0 1 -0
    outer loop
      vertex 20 1.5875 0
      vertex 19.8282 1.5875 27.35
      vertex 20 1.5875 27.35
    endloop
  endfacet
  facet normal 0 1 0
    outer loop
      vertex 19.8282 1.5875 27.35
      vertex 20 1.5875 0
      vertex 19.8282 1.5875 0
    endloop
  endfacet
  facet normal 0 1 -0
    outer loop
      vertex 19.4768 1.5875 0
      vertex 9.82816 1.5875 27.35
      vertex 19.4768 1.5875 27.35
    endloop
  endfacet
  facet normal 0 1 0
    outer loop
      vertex 9.82816 1.5875 27.35
      vertex 19.4768 1.5875 0
      vertex 9.82816 1.5875 0
    endloop
  endfacet
  facet normal 0 1 -0
    outer loop
      vertex 7.25 1.5875 3.175
      vertex 4.36562 1.5875 24.175
      vertex 7.25 1.5875 24.175
    endloop
  endfacet
  facet normal 0 1 0
    outer loop
      vertex 4.36562 1.5875 24.175
      vertex 7.25 1.5875 3.175
      vertex 4.36562 1.5875 3.175
    endloop
  endfacet
  facet normal 0 1 0
    outer loop
      vertex 7.25 1.5875 24.175
      vertex 9.47677 1.5875 27.35
      vertex 8.8375 1.5875 24.175
    endloop
  endfacet
  facet normal 0 1 0
    outer loop
      vertex 9.47677 1.5875 27.35
      vertex 8.8375 1.5875 3.175
      vertex 8.8375 1.5875 24.175
    endloop
  endfacet
  facet normal 0 1 0
    outer loop
      vertex 9.47677 1.5875 0
      vertex 7.25 1.5875 3.175
      vertex 8.8375 1.5875 3.175
    endloop
  endfacet
  facet normal 0 1 0
    outer loop
      vertex 7.25 1.5875 3.175
      vertex 9.47677 1.5875 0
      vertex 4.36562 1.5875 3.175
    endloop
  endfacet
  facet normal 0 1 0
    outer loop
      vertex 1.5875 1.5875 0
      vertex 4.36562 1.5875 3.175
      vertex 9.47677 1.5875 0
    endloop
  endfacet
  facet normal 0 1 -0
    outer loop
      vertex 9.47677 1.5875 0
      vertex 8.8375 1.5875 3.175
      vertex 9.47677 1.5875 27.35
    endloop
  endfacet
  facet normal 0 1 0
    outer loop
      vertex 4.36562 1.5875 24.175
      vertex 9.47677 1.5875 27.35
      vertex 7.25 1.5875 24.175
    endloop
  endfacet
  facet normal 0 1 0
    outer loop
      vertex 9.47677 1.5875 27.35
      vertex 4.36562 1.5875 24.175
      vertex 1.5875 1.5875 27.35
    endloop
  endfacet
  facet normal 0 1 -0
    outer loop
      vertex 3.175 1.5875 24.175
      vertex 1.5875 1.5875 27.35
      vertex 4.36562 1.5875 24.175
    endloop
  endfacet
  facet normal 0 1 -0
    outer loop
      vertex 3.175 1.5875 3.175
      vertex 1.5875 1.5875 27.35
      vertex 3.175 1.5875 24.175
    endloop
  endfacet
  facet normal 0 1 0
    outer loop
      vertex 3.175 1.5875 3.175
      vertex 1.5875 1.5875 0
      vertex 1.5875 1.5875 27.35
    endloop
  endfacet
  facet normal 0 1 0
    outer loop
      vertex 4.36562 1.5875 3.175
      vertex 1.5875 1.5875 0
      vertex 3.175 1.5875 3.175
    endloop
  endfacet
  facet normal 0 0 1
    outer loop
      vertex 3.175 8.8375 24.175
      vertex 4.36562 8.8375 24.175
      vertex 4.36562 20 24.175
    endloop
  endfacet
  facet normal 0 0 1
    outer loop
      vertex 4.36562 8.8375 24.175
      vertex 3.175 8.8375 24.175
      vertex 3.78137 8.21622 24.175
    endloop
  endfacet
  facet normal 0 0 1
    outer loop
      vertex 3.175 8.8375 24.175
      vertex 4.36562 20 24.175
      vertex 3.175 20 24.175
    endloop
  endfacet
  facet normal 0 0 1
    outer loop
      vertex 4.63649 8.8375 24.175
      vertex 4.36562 8.8375 24.175
      vertex 3.78137 8.21622 24.175
    endloop
  endfacet
  facet normal -0 0 1
    outer loop
      vertex 5.36887 3.3304 24.175
      vertex 7.25 3.175 24.175
      vertex 7.33113 3.3304 24.175
    endloop
  endfacet
  facet normal 0 0 1
    outer loop
      vertex 5.36887 3.3304 24.175
      vertex 4.36562 3.175 24.175
      vertex 7.25 3.175 24.175
    endloop
  endfacet
  facet normal 0 0 1
    outer loop
      vertex 3.78137 4.48378 24.175
      vertex 4.36562 3.175 24.175
      vertex 5.36887 3.3304 24.175
    endloop
  endfacet
  facet normal 0 0 1
    outer loop
      vertex 3.175 3.175 24.175
      vertex 4.36562 3.175 24.175
      vertex 3.78137 4.48378 24.175
    endloop
  endfacet
  facet normal 0 0 1
    outer loop
      vertex 3.175 4.36562 24.175
      vertex 3.78137 4.48378 24.175
      vertex 3.175 6.35 24.175
    endloop
  endfacet
  facet normal 0 0 1
    outer loop
      vertex 3.78137 8.21622 24.175
      vertex 3.175 8.8375 24.175
      vertex 3.175 7.25 24.175
    endloop
  endfacet
  facet normal 0 0 1
    outer loop
      vertex 3.78137 8.21622 24.175
      vertex 3.175 7.25 24.175
      vertex 3.175 6.35 24.175
    endloop
  endfacet
  facet normal 0 0 1
    outer loop
      vertex 3.175 4.36562 24.175
      vertex 3.175 6.35 24.175
      vertex 3.175 7.25 24.175
    endloop
  endfacet
  facet normal 0 0 1
    outer loop
      vertex 3.175 3.175 24.175
      vertex 3.78137 4.48378 24.175
      vertex 3.175 4.36562 24.175
    endloop
  endfacet
  facet normal 0 0 1
    outer loop
      vertex 4.36562 3.175 24.175
      vertex 3.175 3.175 24.175
      vertex 4.36562 1.5875 24.175
    endloop
  endfacet
  facet normal 0 0 1
    outer loop
      vertex 4.36562 1.5875 24.175
      vertex 3.175 3.175 24.175
      vertex 3.175 1.5875 24.175
    endloop
  endfacet
  facet normal 0 0 1
    outer loop
      vertex 7.33113 3.3304 24.175
      vertex 8.8375 4.36562 24.175
      vertex 8.8375 4.42484 24.175
    endloop
  endfacet
  facet normal 0 0 1
    outer loop
      vertex 8.8375 4.36562 24.175
      vertex 7.33113 3.3304 24.175
      vertex 8.8375 3.175 24.175
    endloop
  endfacet
  facet normal 0 0 1
    outer loop
      vertex 7.25 3.175 24.175
      vertex 8.8375 3.175 24.175
      vertex 7.33113 3.3304 24.175
    endloop
  endfacet
  facet normal 0 0 1
    outer loop
      vertex 8.8375 3.175 24.175
      vertex 7.25 3.175 24.175
      vertex 8.8375 1.5875 24.175
    endloop
  endfacet
  facet normal 0 0 1
    outer loop
      vertex 8.8375 1.5875 24.175
      vertex 7.25 3.175 24.175
      vertex 7.25 1.5875 24.175
    endloop
  endfacet
  facet normal -0 0 1
    outer loop
      vertex 8.8375 4.36562 24.175
      vertex 20 3.175 24.175
      vertex 20 4.36562 24.175
    endloop
  endfacet
  facet normal 0 0 1
    outer loop
      vertex 20 3.175 24.175
      vertex 8.8375 4.36562 24.175
      vertex 8.8375 3.175 24.175
    endloop
  endfacet
  facet normal -0 0 1
    outer loop
      vertex 1.5875 4.36562 24.175
      vertex 3.175 3.175 24.175
      vertex 3.175 4.36562 24.175
    endloop
  endfacet
  facet normal 0 0 1
    outer loop
      vertex 3.175 3.175 24.175
      vertex 1.5875 4.36562 24.175
      vertex 1.5875 3.175 24.175
    endloop
  endfacet
  facet normal -0 0 1
    outer loop
      vertex 1.5875 8.8375 24.175
      vertex 3.175 7.25 24.175
      vertex 3.175 8.8375 24.175
    endloop
  endfacet
  facet normal 0 0 1
    outer loop
      vertex 3.175 7.25 24.175
      vertex 1.5875 8.8375 24.175
      vertex 1.5875 7.25 24.175
    endloop
  endfacet
  facet normal 1 -0 0
    outer loop
      vertex 20 3.175 24.175
      vertex 20 4.36562 3.175
      vertex 20 4.36562 24.175
    endloop
  endfacet
  facet normal 1 0 0
    outer loop
      vertex 20 4.36562 3.175
      vertex 20 3.175 24.175
      vertex 20 3.175 3.175
    endloop
  endfacet
  facet normal 0 0 -1
    outer loop
      vertex 1.5875 7.25 3.175
      vertex 3.175 8.8375 3.175
      vertex 3.175 7.25 3.175
    endloop
  endfacet
  facet normal -0 0 -1
    outer loop
      vertex 3.175 8.8375 3.175
      vertex 1.5875 7.25 3.175
      vertex 1.5875 8.8375 3.175
    endloop
  endfacet
  facet normal 0 0 -1
    outer loop
      vertex 1.5875 3.175 3.175
      vertex 3.175 4.36562 3.175
      vertex 3.175 3.175 3.175
    endloop
  endfacet
  facet normal -0 0 -1
    outer loop
      vertex 3.175 4.36562 3.175
      vertex 1.5875 3.175 3.175
      vertex 1.5875 4.36562 3.175
    endloop
  endfacet
  facet normal 0 0 -1
    outer loop
      vertex 3.175 3.175 3.175
      vertex 4.36562 3.175 3.175
      vertex 4.36562 1.5875 3.175
    endloop
  endfacet
  facet normal 0 0 -1
    outer loop
      vertex 4.36562 3.175 3.175
      vertex 3.175 3.175 3.175
      vertex 4.36562 4.36562 3.175
    endloop
  endfacet
  facet normal 0 0 -1
    outer loop
      vertex 4.36562 4.36562 3.175
      vertex 3.175 4.36562 3.175
      vertex 4.36562 7.25 3.175
    endloop
  endfacet
  facet normal 0 0 -1
    outer loop
      vertex 3.175 7.25 3.175
      vertex 4.36562 7.25 3.175
      vertex 3.175 4.36562 3.175
    endloop
  endfacet
  facet normal 0 0 -1
    outer loop
      vertex 3.175 3.175 3.175
      vertex 4.36562 1.5875 3.175
      vertex 3.175 1.5875 3.175
    endloop
  endfacet
  facet normal -0 0 -1
    outer loop
      vertex 4.36562 4.36562 3.175
      vertex 3.175 3.175 3.175
      vertex 3.175 4.36562 3.175
    endloop
  endfacet
  facet normal 0 0 -1
    outer loop
      vertex 4.36562 7.25 3.175
      vertex 3.175 7.25 3.175
      vertex 4.36562 8.8375 3.175
    endloop
  endfacet
  facet normal -0 0 -1
    outer loop
      vertex 4.36562 8.8375 3.175
      vertex 3.175 7.25 3.175
      vertex 3.175 8.8375 3.175
    endloop
  endfacet
  facet normal 0 0 -1
    outer loop
      vertex 4.36562 8.8375 3.175
      vertex 3.175 8.8375 3.175
      vertex 4.36562 20 3.175
    endloop
  endfacet
  facet normal -0 0 -1
    outer loop
      vertex 4.36562 20 3.175
      vertex 3.175 8.8375 3.175
      vertex 3.175 20 3.175
    endloop
  endfacet
  facet normal 0 0 -1
    outer loop
      vertex 4.36562 3.175 3.175
      vertex 7.25 4.36562 3.175
      vertex 7.25 3.175 3.175
    endloop
  endfacet
  facet normal -0 0 -1
    outer loop
      vertex 7.25 4.36562 3.175
      vertex 4.36562 3.175 3.175
      vertex 4.36562 4.36562 3.175
    endloop
  endfacet
  facet normal 0 0 -1
    outer loop
      vertex 7.25 3.175 3.175
      vertex 8.8375 3.175 3.175
      vertex 8.8375 1.5875 3.175
    endloop
  endfacet
  facet normal 0 0 -1
    outer loop
      vertex 8.8375 3.175 3.175
      vertex 7.25 3.175 3.175
      vertex 8.8375 4.36562 3.175
    endloop
  endfacet
  facet normal 0 0 -1
    outer loop
      vertex 7.25 3.175 3.175
      vertex 8.8375 1.5875 3.175
      vertex 7.25 1.5875 3.175
    endloop
  endfacet
  facet normal 0 0 -1
    outer loop
      vertex 7.25 4.36562 3.175
      vertex 8.8375 4.36562 3.175
      vertex 7.25 3.175 3.175
    endloop
  endfacet
  facet normal 0 0 -1
    outer loop
      vertex 8.8375 4.36562 3.175
      vertex 7.25 4.36562 3.175
      vertex 8.8375 4.96875 3.175
    endloop
  endfacet
  facet normal -0 0 -1
    outer loop
      vertex 8.8375 4.96875 3.175
      vertex 7.25 4.36562 3.175
      vertex 7.25 4.96875 3.175
    endloop
  endfacet
  facet normal 0 0 -1
    outer loop
      vertex 8.8375 3.175 3.175
      vertex 20 4.36562 3.175
      vertex 20 3.175 3.175
    endloop
  endfacet
  facet normal -0 0 -1
    outer loop
      vertex 20 4.36562 3.175
      vertex 8.8375 3.175 3.175
      vertex 8.8375 4.36562 3.175
    endloop
  endfacet
  facet normal 0 0 -1
    outer loop
      vertex 4.36562 7.25 3.175
      vertex 4.96875 8.8375 3.175
      vertex 4.96875 7.25 3.175
    endloop
  endfacet
  facet normal -0 0 -1
    outer loop
      vertex 4.96875 8.8375 3.175
      vertex 4.36562 7.25 3.175
      vertex 4.36562 8.8375 3.175
    endloop
  endfacet
  facet normal 0 -1 0
    outer loop
      vertex 8.8375 3.175 3.175
      vertex 20 3.175 24.175
      vertex 8.8375 3.175 24.175
    endloop
  endfacet
  facet normal 0 -1 -0
    outer loop
      vertex 20 3.175 24.175
      vertex 8.8375 3.175 3.175
      vertex 20 3.175 3.175
    endloop
  endfacet
  facet normal 0 -1 0
    outer loop
      vertex 1.5875 3.175 3.175
      vertex 3.175 3.175 24.175
      vertex 1.5875 3.175 24.175
    endloop
  endfacet
  facet normal 0 -1 -0
    outer loop
      vertex 3.175 3.175 24.175
      vertex 1.5875 3.175 3.175
      vertex 3.175 3.175 3.175
    endloop
  endfacet
  facet normal 0 -1 0
    outer loop
      vertex 4.36562 3.175 3.175
      vertex 7.25 3.175 24.175
      vertex 4.36562 3.175 24.175
    endloop
  endfacet
  facet normal 0 -1 -0
    outer loop
      vertex 7.25 3.175 24.175
      vertex 4.36562 3.175 3.175
      vertex 7.25 3.175 3.175
    endloop
  endfacet
  facet normal 0 1 -0
    outer loop
      vertex 20 4.36562 3.175
      vertex 8.8375 4.36562 24.175
      vertex 20 4.36562 24.175
    endloop
  endfacet
  facet normal 0 1 0
    outer loop
      vertex 8.8375 4.36562 24.175
      vertex 20 4.36562 3.175
      vertex 8.8375 4.36562 3.175
    endloop
  endfacet
  facet normal 0 1 -0
    outer loop
      vertex 3.175 4.36562 3.175
      vertex 1.5875 4.36562 24.175
      vertex 3.175 4.36562 24.175
    endloop
  endfacet
  facet normal 0 1 0
    outer loop
      vertex 1.5875 4.36562 24.175
      vertex 3.175 4.36562 3.175
      vertex 1.5875 4.36562 3.175
    endloop
  endfacet
  facet normal 1 0 0
    outer loop
      vertex 1.5875 9.76639 27.35
      vertex 1.5875 8.8375 24.175
      vertex 1.5875 9.76639 0
    endloop
  endfacet
  facet normal 1 0 0
    outer loop
      vertex 1.5875 9.76639 27.35
      vertex 1.5875 7.25 24.175
      vertex 1.5875 8.8375 24.175
    endloop
  endfacet
  facet normal 1 0 0
    outer loop
      vertex 1.5875 7.25 24.175
      vertex 1.5875 4.36562 24.175
      vertex 1.5875 7.25 3.175
    endloop
  endfacet
  facet normal 1 0 0
    outer loop
      vertex 1.5875 9.76639 27.35
      vertex 1.5875 4.36562 24.175
      vertex 1.5875 7.25 24.175
    endloop
  endfacet
  facet normal 1 -0 0
    outer loop
      vertex 1.5875 1.5875 27.35
      vertex 1.5875 4.36562 24.175
      vertex 1.5875 9.76639 27.35
    endloop
  endfacet
  facet normal 1 0 0
    outer loop
      vertex 1.5875 3.175 24.175
      vertex 1.5875 1.5875 27.35
      vertex 1.5875 3.175 3.175
    endloop
  endfacet
  facet normal 1 0 0
    outer loop
      vertex 1.5875 4.36562 24.175
      vertex 1.5875 1.5875 27.35
      vertex 1.5875 3.175 24.175
    endloop
  endfacet
  facet normal 1 -0 0
    outer loop
      vertex 1.5875 8.8375 3.175
      vertex 1.5875 9.76639 0
      vertex 1.5875 8.8375 24.175
    endloop
  endfacet
  facet normal 1 -0 0
    outer loop
      vertex 1.5875 7.25 3.175
      vertex 1.5875 9.76639 0
      vertex 1.5875 8.8375 3.175
    endloop
  endfacet
  facet normal 1 0 0
    outer loop
      vertex 1.5875 4.36562 3.175
      vertex 1.5875 7.25 3.175
      vertex 1.5875 4.36562 24.175
    endloop
  endfacet
  facet normal 1 -0 0
    outer loop
      vertex 1.5875 4.36562 3.175
      vertex 1.5875 9.76639 0
      vertex 1.5875 7.25 3.175
    endloop
  endfacet
  facet normal 1 0 0
    outer loop
      vertex 1.5875 1.5875 0
      vertex 1.5875 4.36562 3.175
      vertex 1.5875 3.175 3.175
    endloop
  endfacet
  facet normal 1 0 0
    outer loop
      vertex 1.5875 4.36562 3.175
      vertex 1.5875 1.5875 0
      vertex 1.5875 9.76639 0
    endloop
  endfacet
  facet normal 1 0 0
    outer loop
      vertex 1.5875 1.5875 0
      vertex 1.5875 3.175 3.175
      vertex 1.5875 1.5875 27.35
    endloop
  endfacet
  facet normal 1 -0 0
    outer loop
      vertex 1.5875 10.2336 27.35
      vertex 1.5875 19.7664 0
      vertex 1.5875 19.7664 27.35
    endloop
  endfacet
  facet normal 1 0 0
    outer loop
      vertex 1.5875 19.7664 0
      vertex 1.5875 10.2336 27.35
      vertex 1.5875 10.2336 0
    endloop
  endfacet
  facet normal -1 0 0
    outer loop
      vertex 3.175 8.8375 3.175
      vertex 3.175 20 24.175
      vertex 3.175 20 3.175
    endloop
  endfacet
  facet normal -1 -0 0
    outer loop
      vertex 3.175 20 24.175
      vertex 3.175 8.8375 3.175
      vertex 3.175 8.8375 24.175
    endloop
  endfacet
  facet normal -1 0 0
    outer loop
      vertex 3.175 4.36562 3.175
      vertex 3.175 7.25 24.175
      vertex 3.175 7.25 3.175
    endloop
  endfacet
  facet normal -1 -0 0
    outer loop
      vertex 3.175 7.25 24.175
      vertex 3.175 4.36562 3.175
      vertex 3.175 4.36562 24.175
    endloop
  endfacet
  facet normal -1 0 0
    outer loop
      vertex 3.175 1.5875 3.175
      vertex 3.175 3.175 24.175
      vertex 3.175 3.175 3.175
    endloop
  endfacet
  facet normal -1 -0 0
    outer loop
      vertex 3.175 3.175 24.175
      vertex 3.175 1.5875 3.175
      vertex 3.175 1.5875 24.175
    endloop
  endfacet
  facet normal 1 -0 0
    outer loop
      vertex 4.36562 8.8375 24.175
      vertex 4.36562 20 3.175
      vertex 4.36562 20 24.175
    endloop
  endfacet
  facet normal 1 0 0
    outer loop
      vertex 4.36562 20 3.175
      vertex 4.36562 8.8375 24.175
      vertex 4.36562 8.8375 3.175
    endloop
  endfacet
  facet normal 1 -0 0
    outer loop
      vertex 4.36562 1.5875 24.175
      vertex 4.36562 3.175 3.175
      vertex 4.36562 3.175 24.175
    endloop
  endfacet
  facet normal 1 0 0
    outer loop
      vertex 4.36562 3.175 3.175
      vertex 4.36562 1.5875 24.175
      vertex 4.36562 1.5875 3.175
    endloop
  endfacet
  facet normal 0 1 -0
    outer loop
      vertex 4.36562 20 3.175
      vertex 3.175 20 24.175
      vertex 4.36562 20 24.175
    endloop
  endfacet
  facet normal 0 1 0
    outer loop
      vertex 3.175 20 24.175
      vertex 4.36562 20 3.175
      vertex 3.175 20 3.175
    endloop
  endfacet
  facet normal 0 -1 0
    outer loop
      vertex 1.5875 7.25 3.175
      vertex 3.175 7.25 24.175
      vertex 1.5875 7.25 24.175
    endloop
  endfacet
  facet normal 0 -1 -0
    outer loop
      vertex 3.175 7.25 24.175
      vertex 1.5875 7.25 3.175
      vertex 3.175 7.25 3.175
    endloop
  endfacet
  facet normal 0 1 -0
    outer loop
      vertex 4.63649 8.8375 3.175
      vertex 4.36562 8.8375 24.175
      vertex 4.63649 8.8375 24.175
    endloop
  endfacet
  facet normal 0 1 0
    outer loop
      vertex 4.63649 8.8375 3.175
      vertex 4.36562 8.8375 3.175
      vertex 4.36562 8.8375 24.175
    endloop
  endfacet
  facet normal 0 1 0
    outer loop
      vertex 4.36562 8.8375 3.175
      vertex 4.63649 8.8375 3.175
      vertex 4.96875 8.8375 3.175
    endloop
  endfacet
  facet normal 0 1 -0
    outer loop
      vertex 3.175 8.8375 3.175
      vertex 1.5875 8.8375 24.175
      vertex 3.175 8.8375 24.175
    endloop
  endfacet
  facet normal 0 1 0
    outer loop
      vertex 1.5875 8.8375 24.175
      vertex 3.175 8.8375 3.175
      vertex 1.5875 8.8375 3.175
    endloop
  endfacet
  facet normal -1 0 0
    outer loop
      vertex 7.25 1.5875 3.175
      vertex 7.25 3.175 24.175
      vertex 7.25 3.175 3.175
    endloop
  endfacet
  facet normal -1 -0 0
    outer loop
      vertex 7.25 3.175 24.175
      vertex 7.25 1.5875 3.175
      vertex 7.25 1.5875 24.175
    endloop
  endfacet
  facet normal 1 0 0
    outer loop
      vertex 8.8375 4.42484 24.175
      vertex 8.8375 4.36562 24.175
      vertex 8.8375 4.42484 3.175
    endloop
  endfacet
  facet normal 1 0 0
    outer loop
      vertex 8.8375 4.42484 3.175
      vertex 8.8375 4.36562 3.175
      vertex 8.8375 4.96875 3.175
    endloop
  endfacet
  facet normal 1 0 0
    outer loop
      vertex 8.8375 4.36562 3.175
      vertex 8.8375 4.42484 3.175
      vertex 8.8375 4.36562 24.175
    endloop
  endfacet
  facet normal 1 -0 0
    outer loop
      vertex 8.8375 1.5875 24.175
      vertex 8.8375 3.175 3.175
      vertex 8.8375 3.175 24.175
    endloop
  endfacet
  facet normal 1 0 0
    outer loop
      vertex 8.8375 3.175 3.175
      vertex 8.8375 1.5875 24.175
      vertex 8.8375 1.5875 3.175
    endloop
  endfacet
endsolid OpenSCAD_Model
